<svg xmlns="http://www.w3.org/2000/svg" viewBox="0 0 24.24 24.24">
  <title>bootstrap</title>
  <g id="Layer_2" data-name="Layer 2">
    <g id="Layer_1-2" data-name="Layer 1">
      <g>
        <path d="M0,21.11a3.13,3.13,0,0,0,3.13,3.13h18a3.13,3.13,0,0,0,3.13-3.13v-18A3.13,3.13,0,0,0,21.11,0h-18A3.13,3.13,0,0,0,0,3.13Z" style="fill: #563d7c"/>
        <path d="M10.05,10.72V7.29h3a4.61,4.61,0,0,1,.84.07,2,2,0,0,1,.7.26,1.36,1.36,0,0,1,.5.51,1.74,1.74,0,0,1,.18.84,1.55,1.55,0,0,1-.55,1.34,2.28,2.28,0,0,1-1.42.41ZM6.82,4.78V19.46h7.12a7.33,7.33,0,0,0,1.92-.25,5,5,0,0,0,1.66-.76,3.56,3.56,0,0,0,1.16-1.33,4,4,0,0,0,.44-1.92,4.09,4.09,0,0,0-.67-2.35,3.54,3.54,0,0,0-2-1.37,3.59,3.59,0,0,0,1.49-1.21,3.18,3.18,0,0,0,.51-1.85,4,4,0,0,0-.34-1.73,2.91,2.91,0,0,0-1-1.12A4,4,0,0,0,15.64,5a8.64,8.64,0,0,0-1.91-.19ZM10.05,17v-4h3.52a2.7,2.7,0,0,1,1.68.48A1.9,1.9,0,0,1,15.89,15a2,2,0,0,1-.2.94,1.5,1.5,0,0,1-.52.59,2.25,2.25,0,0,1-.76.31,4.46,4.46,0,0,1-.91.09Z" style="fill: #fff"/>
      </g>
    </g>
  </g>
</svg>
