<svg xmlns="http://www.w3.org/2000/svg" viewBox="0 0 24.24 27.49">
  <title>css3</title>
  <g id="Layer_2" data-name="Layer 2">
    <g id="Layer_1-2" data-name="Layer 1">
      <g id="layer1">
        <g id="g3013">
          <polygon id="polygon2989" points="24.24 0 22.03 24.74 12.11 27.49 2.21 24.74 0 0 24.24 0" style="fill: #264de4"/>
          <polygon id="polygon2991" points="20.14 23.16 22.03 2.02 12.12 2.02 12.12 25.39 20.14 23.16" style="fill: #2965f1"/>
          <polygon id="polygon2993" points="5.06 11.2 5.33 14.23 12.12 14.23 12.12 11.2 5.06 11.2" style="fill: #ebebeb"/>
          <polygon id="polygon2995" points="12.12 5.06 12.11 5.06 4.51 5.06 4.79 8.09 12.12 8.09 12.12 5.06" style="fill: #ebebeb"/>
          <polygon id="polygon2997" points="12.12 22.24 12.12 19.08 12.11 19.08 8.73 18.17 8.51 15.75 6.87 15.75 5.46 15.75 5.89 20.52 12.11 22.24 12.12 22.24" style="fill: #ebebeb"/>
          <polygon id="polygon3005" points="15.85 14.23 15.49 18.17 12.11 19.08 12.11 22.24 18.33 20.52 18.38 20 19.09 12.01 19.16 11.2 19.71 5.06 12.11 5.06 12.11 8.09 16.39 8.09 16.11 11.2 12.11 11.2 12.11 14.23 15.85 14.23" style="fill: #fff"/>
        </g>
      </g>
    </g>
  </g>
</svg>
