<svg xmlns="http://www.w3.org/2000/svg" viewBox="0 0 25.01 25.01">
  <title>es6</title>
  <g id="Layer_2" data-name="Layer 2">
    <g id="Layer_1-2" data-name="Layer 1">
      <g>
        <rect width="25.01" height="25.01" style="fill: #f7df1e"/>
        <path d="M10.31,15.63h3.82v-1H11.49V13h2.44v-1H11.49V10.42h2.64v-1H10.31v6.25Zm8.93-1.7c0-1.25-.08-1.52-1.76-1.92-1.08-.27-1.09-.28-1.09-1,0-.54.14-.71.93-.71a8.29,8.29,0,0,1,1.67.19l.13-1a8.51,8.51,0,0,0-1.82-.2c-1.58,0-2.1.56-2.1,1.7,0,1.32.21,1.61,1.72,1.95,1.12.24,1.14.3,1.14,1s-.14.78-1,.78a6.12,6.12,0,0,1-1.76-.29l-.21.92a5.19,5.19,0,0,0,2,.38c1.85,0,2.19-.61,2.19-1.79Zm2.18-2.33c0-.95.46-1.14,1.57-1.14a6.22,6.22,0,0,1,.88.08l.07-.95a5.12,5.12,0,0,0-1.08-.11c-1.7,0-2.58.52-2.58,2.17v2.28c0,1.08.31,1.79,1.93,1.79,1.47,0,1.92-.73,1.92-1.71v-.45c0-1.07-.46-1.54-1.59-1.54a3.29,3.29,0,0,0-1.12.17V11.6Zm.94,1.4c.41,0,.63.14.63.59v.46c0,.48-.19.69-.78.69s-.79-.17-.79-.69V13.2a2.5,2.5,0,0,1,.94-.2Z"/>
      </g>
    </g>
  </g>
</svg>
