<svg xmlns="http://www.w3.org/2000/svg" viewBox="0 0 24.72 24.72">
  <title>git</title>
  <g id="Layer_2" data-name="Layer 2">
    <g id="Layer_1-2" data-name="Layer 1">
      <path d="M24.25,11.26,13.46.47a1.58,1.58,0,0,0-2.25,0L9,2.71l2.84,2.84A1.89,1.89,0,0,1,14.2,8l2.74,2.74a1.9,1.9,0,1,1-1.13,1.07L13.25,9.21v6.73a1.89,1.89,0,1,1-2.17.35,1.81,1.81,0,0,1,.62-.41V9.09a1.68,1.68,0,0,1-.62-.41,1.89,1.89,0,0,1-.41-2.07l-2.8-2.8-7.4,7.4a1.58,1.58,0,0,0,0,2.25L11.26,24.25a1.59,1.59,0,0,0,2.25,0L24.25,13.51a1.59,1.59,0,0,0,0-2.25" style="fill: #de4c36"/>
    </g>
  </g>
</svg>
