<svg xmlns="http://www.w3.org/2000/svg" viewBox="0 0 25.48 24.85">
  <title>github</title>
  <g id="Layer_2" data-name="Layer 2">
    <g id="Layer_1-2" data-name="Layer 1">
      <path d="M12.74,0a12.74,12.74,0,0,0-4,24.83c.64.12.87-.28.87-.61s0-1.31,0-2.38c-3.55.78-4.3-1.5-4.3-1.5a3.37,3.37,0,0,0-1.41-1.86C2.7,17.69,4,17.7,4,17.7A2.67,2.67,0,0,1,5.9,19a2.73,2.73,0,0,0,3.71,1.06,2.67,2.67,0,0,1,.81-1.71C7.59,18.05,4.61,17,4.61,12.08A4.93,4.93,0,0,1,5.92,8.66a4.64,4.64,0,0,1,.13-3.38s1.07-.34,3.5,1.31a12.58,12.58,0,0,1,3.19-.43,12.58,12.58,0,0,1,3.19.43c2.43-1.65,3.5-1.31,3.5-1.31a4.59,4.59,0,0,1,.13,3.38,4.93,4.93,0,0,1,1.31,3.42c0,4.89-3,6-5.82,6.28a3,3,0,0,1,.86,2.36c0,1.71,0,3.08,0,3.5s.23.73.88.61A12.74,12.74,0,0,0,12.74,0Zm-8,18.15a.17.17,0,0,1-.22,0c-.09,0-.14-.13-.11-.19a.15.15,0,0,1,.22,0C4.75,18,4.8,18.09,4.77,18.15Zm.63.56a.2.2,0,0,1-.26-.06.2.2,0,0,1,0-.27.2.2,0,0,1,.26.06A.2.2,0,0,1,5.4,18.71Zm.43.71c-.08.06-.21,0-.29-.11s-.07-.25,0-.3.2,0,.28.11S5.91,19.37,5.83,19.42Zm.73.83c-.07.08-.22.06-.33-.05s-.14-.25-.07-.32.22-.06.33.05S6.63,20.18,6.56,20.25Zm.94.28a.25.25,0,0,1-.32.1c-.15,0-.24-.16-.21-.26s.17-.14.32-.1S7.53,20.43,7.5,20.53Zm1.06.12c0,.11-.11.19-.27.19S8,20.76,8,20.66s.12-.19.27-.2S8.56,20.55,8.56,20.65Zm1.06,0c0,.1-.09.21-.24.24s-.29,0-.31-.14.09-.21.24-.24S9.6,20.51,9.62,20.61Z" style="fill: #e6e6e6"/>
    </g>
  </g>
</svg>
