<svg xmlns="http://www.w3.org/2000/svg" viewBox="0 0 12.68 28.16">
  <title>gulp</title>
  <g id="Layer_2" data-name="Layer 2">
    <g id="Layer_1-2" data-name="Layer 1">
      <g>
        <path d="M9.78,27.31l.27-4.5.75-1.27a13.13,13.13,0,0,1-4.54.69,13.1,13.1,0,0,1-4.52-.68l.84,1.39.3,4.37c0,.47,1.54.85,3.45.85s3.45-.38,3.45-.85" style="fill: #d34a47"/>
        <path d="M8.93,6.29,9.5,4.05,12.64.74,11.81,0,8.49,3.56,7.83,6.24c-.48,0-1,0-1.49,0-3.5,0-6.34.4-6.34.89S2.84,8,6.34,8s6.34-.4,6.34-.89-1.54-.67-3.75-.81" style="fill: #d34a47"/>
        <path d="M8.6,7.54a2.36,2.36,0,0,1-.48,0c-.36,0-.62,0-.72-.09a.18.18,0,0,1-.05-.11.16.16,0,0,1,.11-.13l0,.09s0,0,0,0,.37.08.65.08.62,0,.62-.08,0,0-.07,0l.06-.08c.07,0,.13.06.13.14s-.16.15-.27.16" style="fill: #fff"/>
        <path d="M12.63.75c.08-.09,0-.33-.26-.52S11.89,0,11.81,0s0,.32.27.52.47.28.55.19" style="fill: #d34a47"/>
        <path d="M9.63,16.32c-.07-.72,1.57-1.76,1.15-1.79-.91.05-1.36,1.06-1.82,2.12-.16.39-.73,2-1.11,1.84s.49-1.57.73-2.37c-.28.2-1.3,1-1.57.25-.42.36-1.32.56-1.22-.39-.23.4-.73,1-1.34.73-.79-.31.46-2.85.78-2.72s-.07.71-.17.93c-.21.5-.46,1.12-.29,1.25s1.06-.83,1.08-.85c.14-.19.56-1.45.89-1.31s-.83,1.81-.39,2.14c.08.07.45,0,.66-.28s.1-.49.57-1.62.9-2.54,1.22-2.43.06.83-.06,1.1c-.54,1.26-1.49,3.35-1,3.19a1.93,1.93,0,0,0,1.11-.68c.44-.51.42-1.35.71-1.33s.24.28.17.49c.28-.33,1.36-1,1.61-.34s-1.53,2-1.07,1.92a2.75,2.75,0,0,0,1.48-.93l.85-7.65s-.85.71-6.3.71S0,7.61,0,7.61l.73,7c.38-1.1,1.3-3.31,2.74-3.23.65,0,1.52,1.29.78,1.34-.32,0-.35-.63-.73-.73a1.11,1.11,0,0,0-.89.39,5.73,5.73,0,0,0-1.39,3.29c.17,1.19,1.64-.42,1.89-.89s.29-1.34.68-1.23,0,1.13-.31,2-.48,2.1-.87,2,.25-1.44.22-1.67c-.37.34-1,1.2-1.91.77L1.43,21s1.2.94,4.8.94S11.07,21,11.07,21l.56-5c-.46.45-1.9,1.24-2,.35" style="fill: #d34a47"/>
      </g>
    </g>
  </g>
</svg>
