<svg xmlns="http://www.w3.org/2000/svg" viewBox="0 0 23.36 23.14">
  <title>jquery</title>
  <g id="Layer_2" data-name="Layer 2">
    <g id="Layer_1-2" data-name="Layer 1">
      <g>
        <path d="M22.82,17.18l-.11.27a10.21,10.21,0,0,1-9.44,5.69,13.07,13.07,0,0,1-5.42-1.08,14,14,0,0,1-6.51-6.15C-.52,12.3-.86,7.28,3,3.53c.06,0-.47.82-.41.82l-.11.34C-.29,13.44,8.31,20.93,16.67,20.07a11,11,0,0,0,6.15-2.89" style="fill: #21609b;fill-rule: evenodd"/>
        <path d="M17.76,13.56a8,8,0,0,0,5.6-2.34c-1.14,2.89-4.43,4.74-8.85,4.15A9.51,9.51,0,0,1,6.92,7.42c-.27-2.72.68-4.34,2.24-6.3a6.48,6.48,0,0,0-.8,2.32c-.59,5.88,4.69,10.09,9.4,10.12" style="fill: #21609b;fill-rule: evenodd"/>
        <path d="M23.15,6.27a6.62,6.62,0,0,1-3,2.34A5.8,5.8,0,0,1,13.6,6a8,8,0,0,1-.52-1.17A5,5,0,0,1,14.13,0a5.87,5.87,0,0,0-.24,3.16,6.82,6.82,0,0,0,.87,1.91,4.91,4.91,0,0,0,2,1.75,4.7,4.7,0,0,0,1,.48c.83.24,2.58.89,5.4-1" style="fill: #21609b;fill-rule: evenodd"/>
      </g>
    </g>
  </g>
</svg>
