<svg xmlns="http://www.w3.org/2000/svg" viewBox="0 0 23.85 23.85">
  <title>laravel</title>
  <g id="Layer_2" data-name="Layer 2">
    <g id="Layer_1-2" data-name="Layer 1">
      <g>
        <path d="M15,19.38c.18.27.3.24.44.18S23,17,23.22,16.9s.15-.15.08-.27S20.74,13.15,20.62,13s-.19-.16-.38-.09l-7.9,2.05s2.42,4.2,2.61,4.47Z" style="fill: #f35045"/>
        <path d="M23.85,15.94V12l-2.46.66c.67.89,1.72,2.29,2.46,3.29Z" style="fill: #f35045"/>
        <path d="M21.38,7.78c-.12,0-2.81.52-3,.54s-.11.11,0,.21l2.37,3.25L23.81,11h0v-.43c-.53-.66-2-2.49-2.09-2.66a.29.29,0,0,0-.38-.14Z" style="fill: #f35045"/>
        <path d="M4.42,2.67c.58,0,.64.1.89.48l6.45,10.78L19.86,12,17.18,8.18c-.22-.31,0-.45.36-.51l3.73-.62c.26,0,.47-.13.91.39.22.26,1,1.2,1.67,2.07v-5a4.34,4.34,0,0,0-1.31-3.16A4.34,4.34,0,0,0,19.38,0H4.47A4.34,4.34,0,0,0,1.31,1.31,4.33,4.33,0,0,0,.24,3C1.7,2.87,4,2.69,4.42,2.67Z" style="fill: #f35045"/>
        <path d="M15.68,20.83c-.69.2-1,.31-1.44-.31-.33-.47-2.13-3.72-3-5.32-1.67.44-4.73,1.24-5.61,1.45A1.08,1.08,0,0,1,4.24,16C4.14,15.8,1.61,10.36,0,6.86V19.38a4.34,4.34,0,0,0,1.31,3.16,4.34,4.34,0,0,0,3.16,1.31H19.38a4.47,4.47,0,0,0,4.47-4.47V17.91c-1.83.67-7.71,2.78-8.17,2.92Z" style="fill: #f35045"/>
        <path d="M5.63,15.4l4.87-1.16c.1,0,.16-.08.06-.26L4.51,3.54c0-.1,0-.13-.19-.12L.05,3.79a4,4,0,0,0,0,.5L5.36,15.34c0,.09,0,.11.27.06Z" style="fill: #f35045"/>
      </g>
    </g>
  </g>
</svg>
