<svg xmlns="http://www.w3.org/2000/svg" xmlns:xlink="http://www.w3.org/1999/xlink" viewBox="0 0 26.66 26.66"><defs><radialGradient id="radial-gradient" cx="-997.11" cy="-1523.27" r="0.1" gradientTransform="matrix(256, 0, 0, -256, 255272.91, -389969.24)" gradientUnits="userSpaceOnUse"><stop offset="0" stop-color="#20c6b7"/><stop offset="1" stop-color="#4d9abf"/></radialGradient></defs><title>netlify</title><g id="Layer_2" data-name="Layer 2"><g id="Grid_Fluid" data-name="Grid Fluid"><path d="M19.32,9.25h0a.14.14,0,0,1,0-.07l.54-3.28,2.53,2.52L19.71,9.52h-.05A1.13,1.13,0,0,0,19.32,9.25ZM23,9.05l2.7,2.7c.56.56.84.84.94,1.16,0,.05,0,.09,0,.14l-6.45-2.72h0s-.06,0-.06-.05,0,0,.06,0h0Zm3.57,4.87a5.14,5.14,0,0,1-.87,1l-3,3-3.94-.82h0s-.07,0-.07-.05a1.23,1.23,0,0,0-.46-.83.06.06,0,0,1,0-.06h0l.74-4.54h0s0-.08,0-.08a1.2,1.2,0,0,0,.81-.46l0,0a.09.09,0,0,1,.07,0l6.72,2.84Zm-4.61,4.73-5,5,.86-5.25h0v0s0,0,0,0h0a1.41,1.41,0,0,0,.48-.36s0,0,.06,0h0l3.53.72ZM15.88,24.7l-.57.56-6.23-9h0s0,0,0-.05,0,0,0,0h0l.05-.09v0h0s0,0,0,0h.05l6.91,1.42.05,0a0,0,0,0,1,0,0,1.22,1.22,0,0,0,.72.81s0,0,0,.06v0C16.82,18.93,16.08,23.47,15.88,24.7ZM14.7,25.88a2.64,2.64,0,0,1-.94.71,1.34,1.34,0,0,1-.84,0c-.32-.1-.6-.38-1.16-.94L5.5,19.4l1.63-2.54,0,0h.06a1.66,1.66,0,0,0,1.14-.06s0,0,.06,0l0,0,6.26,9.08ZM4.89,18.79,3.46,17.36l2.83-1.21h0s0,0,0,0l.09.13h0a.06.06,0,0,1,0,0L4.89,18.79ZM2.82,16.73,1,14.91c-.31-.31-.54-.53-.69-.72l5.52,1.14h0s.07,0,.07.05,0,0-.07.06h0ZM0,13.25a2,2,0,0,1,.06-.34,3.65,3.65,0,0,1,1-1.16L3.33,9.42l3.22,4.65s0,.06,0,.08a2.48,2.48,0,0,0-.28.36s0,0,0,.05h0L0,13.25ZM4,8.8,7.08,5.68l2.32,1L11,7.34s0,0,0,0v0a1.39,1.39,0,0,0,.36,1.27s0,.05,0,.07v0L8.2,13.69l0,0H8.11a1.58,1.58,0,0,0-.38-.05,1.56,1.56,0,0,0-.36.05h0l0,0ZM7.71,5.05l4.05-4A3.65,3.65,0,0,1,12.92.06a1.5,1.5,0,0,1,.84,0,3.55,3.55,0,0,1,1.17,1l.87.87L12.93,6.33l0,0h-.07a1.42,1.42,0,0,0-1.33.26s-.05,0-.07,0Zm8.7-2.56,2.66,2.66-.64,4h0v0l0,0a1.13,1.13,0,0,0-.38.19h0l0,0h0L13.89,7.66h0s-.06,0-.06,0A1.47,1.47,0,0,0,13.61,7s0-.06,0-.09Zm-2.73,6,3.79,1.6s.05,0,.06,0v0a1.11,1.11,0,0,0,0,.19v.1s0,0-.06.05h0L9,14.1H9S9,14,9,14H9L12.1,9.17h0s0-.06.07-.06h.23a1.43,1.43,0,0,0,1.18-.62l0,0A.09.09,0,0,1,13.68,8.48ZM9.33,14.86l8.55-3.64h0l.13.11h0s0,0,0,0v0l-.73,4.49v0s0,.07,0,.07a1.21,1.21,0,0,0-.95.59h0l0,0h0L9.44,15.22S9.34,14.86,9.33,14.86Z" style="fill:url(#radial-gradient)"/></g></g></svg>