<svg xmlns="http://www.w3.org/2000/svg" viewBox="0 0 24.72 27.78">
  <title>npm</title>
  <g id="Layer_2" data-name="Layer 2">
    <g id="Layer_1-2" data-name="Layer 1">
      <g>
        <path d="M.76,7,12.56.12,24.36,7V20.73L12.56,27.6.76,20.73Z" style="fill: #c00"/>
        <path d="M12.89,13.86l11-6.32.44,12.73-11.42,6.9Z" style="fill: #fff"/>
        <path d="M24,7.15l0,13.5L12.55,27.29,12.5,14,24,7.15Zm-9.63,8,0,8.87,3.8-2.22V15.09L20.15,14v6.71l1.92-1.12v-9L14.4,15.12Z" style="fill: #c00"/>
        <path d="M13.31.22a2.21,2.21,0,0,0-1.91,0L1,6.23A2.1,2.1,0,0,0,0,7.88v12a2.08,2.08,0,0,0,1,1.64l10.45,6a2.14,2.14,0,0,0,1.91,0l10.46-6a2.07,2.07,0,0,0,.95-1.64v-12a2.11,2.11,0,0,0-.95-1.65L13.31.22Zm9.28,6.29a.57.57,0,0,1,0,1.09l-9.16,5.26a2.12,2.12,0,0,1-1.9,0L2.24,7.52c-.53-.29-.53-.79,0-1.09l9.15-5.26a2.14,2.14,0,0,1,1.91,0l9.29,5.34ZM.82,8.75c0-.61.43-.85.94-.55l9.37,5.38a2.1,2.1,0,0,1,.95,1.64V25.9c0,.61-.43.85-.95.55L1.76,21.07a2.11,2.11,0,0,1-.94-1.64V8.75Zm13,17.54c-.53.29-.94.05-.94-.56V15.22a2.12,2.12,0,0,1,.94-1.64L23,8.36c.53-.29.95,0,.95.55V19.43A2.11,2.11,0,0,1,23,21.07l-9.09,5.22Z" style="fill: #910505"/>
      </g>
    </g>
  </g>
</svg>
