<svg xmlns="http://www.w3.org/2000/svg" viewBox="0 0 23.58 16.84">
  <title>php</title>
  <g id="Layer_2" data-name="Layer 2">
    <g id="Layer_1-2" data-name="Layer 1">
      <path d="M7.85,12.74a1.84,1.84,0,0,0-1.16-1.59c-.29-.11-.54-.31-.82-.44a6.93,6.93,0,0,0-1-.37.6.6,0,0,0-.66.27c-.14.21,0,.41.09.59a5.9,5.9,0,0,0,.44.58c.25.31.52.61.77.93a1.49,1.49,0,0,1,.4,1A3.28,3.28,0,0,1,4.81,16a.45.45,0,0,1-.29.1,1.77,1.77,0,0,1-1.08-.49.55.55,0,0,1,.12-1,1.75,1.75,0,0,0,.29-.18.63.63,0,0,0,.2-.79,1.39,1.39,0,0,0-.25-.38c-.52-.48-1-1-1.6-1.41A5.48,5.48,0,0,1,0,7.69,8.82,8.82,0,0,1,1.33,2.42,3.57,3.57,0,0,1,2.82.93,9.17,9.17,0,0,1,4.28.47,9.7,9.7,0,0,1,8.39.09a3,3,0,0,1,2.51,2,5.56,5.56,0,0,1,.24,2.4A4.1,4.1,0,0,1,8.23,8a1.13,1.13,0,0,1-1.45-.49c-.3-.4-.54-.84-.8-1.27a1.24,1.24,0,0,1-.1-.2l-.1-.2a4.78,4.78,0,0,0,.65,2,1.12,1.12,0,0,0,.88.6A3.83,3.83,0,0,0,11,6.88a5.59,5.59,0,0,0,.93-4.51c-.05-.32-.15-.63-.22-1A.34.34,0,0,1,11.9,1l.29-.08A11.74,11.74,0,0,1,15.88.69,8.62,8.62,0,0,1,19.82,2a8.93,8.93,0,0,1,3.65,5.09,3.48,3.48,0,0,1,.11,1c0,.21-.13.27-.29.13a3.91,3.91,0,0,1-.51-.49c-.14-.16-.26-.35-.4-.52s-.2-.12-.26.05L22,7.54a7.4,7.4,0,0,1-1.67,3.12.81.81,0,0,0-.23.47,7.18,7.18,0,0,0,0,1.39c.09,1,.23,2,.34,2.94a.88.88,0,0,1-.63,1.07,3.84,3.84,0,0,1-1.15.26c-.62.05-1.24,0-1.86,0,0-.7.05-1.37-.6-1.74.12-.52.27-1,.35-1.5a1.33,1.33,0,0,0-.28-1.16.69.69,0,0,0-.92-.22,3.3,3.3,0,0,1-2.92.19.75.75,0,0,0-1,.35,2.5,2.5,0,0,0-.35,1.46c0,.64.15,1.28.23,1.92.05.35,0,.45-.35.54a7.38,7.38,0,0,1-2.39.16l-.12,0c0-.67,0-1.37-.77-1.73a3.78,3.78,0,0,0,.19-2.3ZM3.08,10.11a.91.91,0,0,0,.24-.44,1.1,1.1,0,0,0-.56-1.08.39.39,0,0,0-.48.09L1.35,9.77a.77.77,0,0,0-.14.21c-.13.24-.05.41.21.47s.33.05.49.08a1.94,1.94,0,0,0,1.17-.42Zm0-4a.53.53,0,0,0-.52-.52.54.54,0,0,0-.53.54.53.53,0,0,0,.54.51.51.51,0,0,0,.51-.53Z" style="fill: #777bb4"/>
    </g>
  </g>
</svg>
