<svg xmlns="http://www.w3.org/2000/svg" viewBox="0 0 27.02 27.02">
  <title>sass</title>
  <g id="Layer_2" data-name="Layer 2">
    <g id="Layer_1-2" data-name="Layer 1">
      <g>
        <path d="M13.51,0A13.51,13.51,0,1,1,0,13.51,13.51,13.51,0,0,1,13.51,0Z" style="fill: #c69;fill-rule: evenodd"/>
        <path d="M22,5.78c-.61-2.4-4.59-3.19-8.35-1.85A19,19,0,0,0,7.22,7.61C5.14,9.55,4.81,11.24,5,11.94c.48,2.49,3.89,4.12,5.29,5.33h0c-.41.21-3.44,1.74-4.15,3.3s.12,2.84.7,3a4.27,4.27,0,0,0,4.58-1.86,4.66,4.66,0,0,0,.45-4.13,5.41,5.41,0,0,1,2.07-.12c2.37.27,2.83,1.75,2.75,2.37a1.6,1.6,0,0,1-.76,1.07c-.16.1-.21.13-.2.21s.1.11.24.08a1.85,1.85,0,0,0,1.29-1.64c.06-1.46-1.33-3.08-3.8-3a6.58,6.58,0,0,0-2.11.29l-.1-.12C9.67,15.06,6.86,13.91,7,11.73c0-.8.32-2.89,5.41-5.42,4.16-2.08,7.5-1.51,8.08-.24.82,1.81-1.79,5.17-6.11,5.66a3.28,3.28,0,0,1-2.74-.7c-.23-.25-.26-.26-.34-.21s0,.3,0,.43a2.54,2.54,0,0,0,1.56,1.23,8.33,8.33,0,0,0,5.07-.5C20.54,11,22.58,8.14,22,5.78ZM10.82,18a3.46,3.46,0,0,1,0,2l-.08.2a1.76,1.76,0,0,1-.09.2,3.58,3.58,0,0,1-.62.91c-.78.85-1.88,1.18-2.35.9s-.25-1.5.66-2.46a9.14,9.14,0,0,1,2.38-1.7h0Z" style="fill: #fff"/>
      </g>
    </g>
  </g>
</svg>
