<svg xmlns="http://www.w3.org/2000/svg" viewBox="0 0 24.24 24.24">
  <title>wordpress</title>
  <g id="Layer_2" data-name="Layer 2">
    <g id="Layer_1-2" data-name="Layer 1">
      <path d="M1.72,12.12a10.41,10.41,0,0,0,5.86,9.36l-5-13.59a10.44,10.44,0,0,0-.9,4.23Zm17.42-.53a5.41,5.41,0,0,0-.86-2.86,4.84,4.84,0,0,1-1-2.44A1.8,1.8,0,0,1,19,4.44h.13a10.39,10.39,0,0,0-15.71,2H4.1c1.09,0,2.77-.13,2.77-.13a.43.43,0,0,1,.07.86s-.56.06-1.19.09L9.54,18.51l2.27-6.83L10.19,7.24c-.56,0-1.09-.09-1.09-.09a.43.43,0,0,1,.07-.86s1.71.13,2.73.13,2.78-.13,2.78-.13a.43.43,0,0,1,.06.86s-.56.06-1.19.09l3.76,11.18,1-3.46a12.59,12.59,0,0,0,.79-3.37ZM12.3,13,9.18,22.09a10.2,10.2,0,0,0,2.94.43,10.37,10.37,0,0,0,3.45-.59.69.69,0,0,1-.07-.15L12.3,13Zm8.94-5.9a7.21,7.21,0,0,1,.07,1.07,9.64,9.64,0,0,1-.79,3.72l-3.17,9.19a10.39,10.39,0,0,0,3.89-14ZM12.12,0A12.12,12.12,0,1,0,24.24,12.12,12.14,12.14,0,0,0,12.12,0Zm0,23.68A11.56,11.56,0,1,1,23.68,12.12,11.57,11.57,0,0,1,12.12,23.68Z" style="fill: #464342"/>
    </g>
  </g>
</svg>
