<svg id="branding-animation"
    xmlns="http://www.w3.org/2000/svg" viewBox="0 0 1080 1080">
    <title>Animation showing a logo being drawn, followed by a color palette and then being used on business cards, a website viewed on a mobile device and a brochure.</title>
    <rect width="1080" height="1080" style="fill: #5962ab" />
    <g id="mobile">
        <g id="device">
            <path d="M174.43,79.38H153.7a2.5,2.5,0,0,1,0-5h20.73a2.5,2.5,0,0,1,0,5ZM153.7,76.16a.72.72,0,0,0,0,1.43h20.73a.72.72,0,0,0,0-1.43Z"
                                        style="fill: #323342" />
            <path d="M186.37,80.2a3.33,3.33,0,1,1,3.33-3.33h0a3.33,3.33,0,0,1-3.33,3.33Zm0-4.86a1.54,1.54,0,1,0,1.54,1.54h0A1.54,1.54,0,0,0,186.37,75.34Z"
                                        style="fill: #323342" />
            <path d="M62.68,130.08a1.34,1.34,0,0,1-1.34-1.34V116.59a1.34,1.34,0,1,1,2.68,0h0v12.15a1.34,1.34,0,0,1-1.34,1.34Z"
                                        style="fill: #323342;opacity: 0.5;isolation: isolate" />
            <path d="M62.68,173.77a1.34,1.34,0,0,1-1.34-1.34v-26.8a1.34,1.34,0,1,1,2.68,0h0v26.8A1.34,1.34,0,0,1,62.68,173.77Z"
                                        style="fill: #323342;opacity: 0.5;isolation: isolate" />
            <path d="M62.68,210.21a1.34,1.34,0,0,1-1.34-1.34V183.51a1.34,1.34,0,1,1,2.68,0h0v25.36a1.34,1.34,0,0,1-1.34,1.34Z"
                                        style="fill: #323342;opacity: 0.5;isolation: isolate" />
            <path d="M268.18,200.92a1.34,1.34,0,0,1-1.34-1.34V156a1.34,1.34,0,1,1,2.68,0h0v43.58A1.34,1.34,0,0,1,268.18,200.92Z"
                                        style="fill: #323342;opacity: 0.5;isolation: isolate" />
            <rect x="66.05" y="62.06" width="197.93" height="405.16" rx="29.12" style="fill: #3f3d56" />
            <path d="M214.89,75.52h0a3.24,3.24,0,0,1,3.21-3.22h15.8a21.77,21.77,0,0,1,21.77,21.77V422.89a21.77,21.77,0,0,1-21.77,21.77H96.12a21.77,21.77,0,0,1-21.77-21.77V94.07A21.77,21.77,0,0,1,96.12,72.3h15.76a3.22,3.22,0,0,1,3.22,3.22h0a11.61,11.61,0,0,0,11.61,11.61h76.57a11.61,11.61,0,0,0,11.61-11.61Z"
                                        style="fill: #323342" />
            <path d="M211.15,456.39H118.88a1.34,1.34,0,0,1,0-2.68h92.27a1.34,1.34,0,0,1,0,2.68Z" style="fill: #323342" />
        </g>
        <g id="screen">
            <path d="M215.31,75.52h0a3.24,3.24,0,0,1,3.21-3.22h15.8a21.77,21.77,0,0,1,21.77,21.77V422.89a21.77,21.77,0,0,1-21.77,21.77H96.54a21.77,21.77,0,0,1-21.77-21.77V94.07A21.77,21.77,0,0,1,96.54,72.3H112.3a3.22,3.22,0,0,1,3.22,3.22h0a11.61,11.61,0,0,0,11.61,11.61h76.56a11.61,11.61,0,0,0,11.62-11.6h0Z"
                                        style="fill: none" />
            <g>
                <rect id="pagebg" x="72.54" y="240.55" width="183.55" height="206.12" style="fill: #fff" />
                <g id="hero">
                    <rect id="hero-bg" x="74.35" y="71.7" width="181.32" height="168.85" style="fill: #3838ff" />
                    <g id="logo">
                        <path d="M92.19,94.57a.94.94,0,0,0-1.33,0h0a.9.9,0,0,0-.27.67.94.94,0,1,0,1.88,0h0A.93.93,0,0,0,92.19,94.57Z"
                                                    style="fill: #fff" />
                        <rect x="92.26" y="102.85" width="11.05" height="2.02" style="fill: #fff" />
                        <path d="M106.7,89.09a7.48,7.48,0,0,0-5.48-2.28H92.61v.06a7.22,7.22,0,0,0-5.94,4.66v.06l-.36.84h.06a8,8,0,0,0-.29,2.12v10.31h2V94.56a5.75,5.75,0,0,1,.43-2.2v-.11a5.64,5.64,0,0,1,1.2-1.74,5.44,5.44,0,0,1,3.81-1.67h0A5.09,5.09,0,0,1,93.37,99H92.26v2h1.11a7.11,7.11,0,0,0,5-12.13l-.07-.06h2.89A5.72,5.72,0,0,1,107,94.44h0v10.43h2V94.56A7.48,7.48,0,0,0,106.7,89.09Z"
                                                    style="fill: #fff" />
                    </g>
                    <g id="hamburger">
                        <polygon points="240.03 93.25 239.89 93.25 235.27 93.25 235.13 93.25 230.51 93.25 230.36 93.25 225.6 93.25 225.6 94.41 230.36 94.41 230.51 94.41 235.13 94.41 235.27 94.41 239.89 94.41 240.03 94.41 244.8 94.41 244.8 93.25 240.03 93.25"
                                                    style="fill: #fff" />
                        <polygon points="239.89 98.48 235.27 98.48 235.13 98.48 230.51 98.48 230.36 98.48 225.6 98.48 225.6 99.64 230.36 99.64 230.51 99.64 235.13 99.64 235.27 99.64 239.89 99.64 240.03 99.64 244.8 99.64 244.8 98.48 240.03 98.48 239.89 98.48"
                                                    style="fill: #fff" />
                        <polygon points="239.89 103.71 235.27 103.71 235.13 103.71 230.51 103.71 230.36 103.71 225.6 103.71 225.6 104.87 230.36 104.87 230.51 104.87 235.13 104.87 235.27 104.87 239.89 104.87 240.03 104.87 244.8 104.87 244.8 103.71 240.03 103.71 239.89 103.71"
                                                    style="fill: #fff" />
                    </g>
                    <g id="h1">
                        <rect x="86.06" y="180.55" width="122.05" height="11.46" style="fill: #fff" />
                        <rect x="86.06" y="197.38" width="68.84" height="11.46" style="fill: #fff" />
                    </g>
                    <line x1="72.54" y1="121.82" x2="255.67" y2="121.82" style="fill: none;stroke: #fff;stroke-miterlimit: 10;stroke-width: 0.5px" />
                </g>
                <g id="p1">
                    <rect x="86.06" y="275.68" width="82.91" height="9.41" style="fill: #323342" />
                    <g>
                        <rect x="86.09" y="293.81" width="154.1" height="2.89" style="fill: #323342" />
                        <rect x="86.09" y="306.7" width="150.74" height="2.89" style="fill: #323342" />
                        <rect x="86.09" y="319.59" width="152.86" height="2.89" style="fill: #323342" />
                        <rect x="86.09" y="332.48" width="145.61" height="2.89" style="fill: #323342" />
                        <rect x="86.09" y="345.36" width="146.67" height="2.89" style="fill: #323342" />
                        <rect x="86.09" y="358.25" width="141.19" height="2.89" style="fill: #323342" />
                        <rect x="86.09" y="371.14" width="148" height="2.89" style="fill: #323342" />
                        <rect x="86.09" y="384.03" width="142.87" height="2.89" style="fill: #323342" />
                        <rect x="86.09" y="396.91" width="137.04" height="2.89" style="fill: #323342" />
                        <rect x="86.09" y="409.8" width="140.13" height="2.89" style="fill: #323342" />
                        <rect x="86.09" y="422.69" width="72.27" height="2.89" style="fill: #323342" />
                    </g>
                </g>
            </g>
            <path d="M234.86,62.06H95.17A29.12,29.12,0,0,0,66.05,91.18V438.1a29.12,29.12,0,0,0,29.12,29.12H234.86A29.12,29.12,0,0,0,264,438.1V91.18A29.12,29.12,0,0,0,234.86,62.06Zm20.81,360.83a21.77,21.77,0,0,1-21.77,21.77H96.12a21.77,21.77,0,0,1-21.77-21.77V94.07A21.77,21.77,0,0,1,96.12,72.3h15.76a3.22,3.22,0,0,1,3.22,3.22,11.61,11.61,0,0,0,11.61,11.61h76.57a11.61,11.61,0,0,0,11.61-11.61,3.24,3.24,0,0,1,3.21-3.22h15.8a21.77,21.77,0,0,1,21.77,21.77Z"
                                        style="fill: #3f3d56" />
        </g>
    </g>
    <g id="business-card">
        <rect x="59.91" y="879.92" width="258.18" height="138.78" style="fill: #231f20;opacity: 0.10000000149011612;isolation: isolate" />
        <rect x="61.19" y="880.98" width="256.9" height="137.71" style="fill: #231f20;opacity: 0.10000000149011612;isolation: isolate" />
        <rect x="61.34" y="880.98" width="255.48" height="135.12" style="fill: #fff" />
        <path d="M230.05,982.48h-9.23V945.43a18.91,18.91,0,0,0-18.89-18.89h-7.56a25.91,25.91,0,0,1-19.82,42.54h-5v-9.23h5a16.65,16.65,0,0,0,.82-33.28h-.14a18,18,0,0,0-12.51,5.5,18.94,18.94,0,0,0-4,5.71l-.16.39a18.61,18.61,0,0,0-1.39,7.26v37.05H148V945.43a28.68,28.68,0,0,1,.78-6.78l-.35-.15,1.76-4.1a25.52,25.52,0,0,1,6.09-9.51,25,25,0,0,1,14.57-7.33v-.36l3.72.11h1.54l3.7-.1v.1H202a28.13,28.13,0,0,1,28.12,28.12ZM223,980.3h4.87V945.43a26,26,0,0,0-25.94-25.94H173v.08l-1,.09a24,24,0,0,0-19.78,15.54l-.11.26-.83,1.94h.08l-.26.92a26.78,26.78,0,0,0-.94,7.12V980.3H155V945.43a21.05,21.05,0,0,1,1.56-8.11l.17-.4a20.85,20.85,0,0,1,4.44-6.39,20,20,0,0,1,14-6.14h.18a17.76,17.76,0,0,1,12.46,5.49A18.85,18.85,0,0,1,174.55,962h-2.81v4.87h2.81a23.7,23.7,0,0,0,16.75-40.46l-.21-.21-1.91-1.87h12.75A21.08,21.08,0,0,1,223,945.42h0Zm-12.72,2.18H169.56v-9.23h40.72Zm-38.54-2.18H208.1v-4.87H171.74Z"
                                    style="fill: #3838ff" />
    </g>
    <g id="business-card-back">
        <rect x="330.06" y="880.48" width="258.18" height="138.78" style="fill: #231f20;opacity: 0.10000000149011612;isolation: isolate" />
        <rect x="331.33" y="881.55" width="256.9" height="137.71" style="fill: #231f20;opacity: 0.10000000149011612;isolation: isolate" />
        <rect x="331.48" y="881.55" width="255.48" height="135.12" style="fill: #fff" />
        <path d="M385.7,937.86h-3.42V924.14a7,7,0,0,0-7-7h-2.8a9.6,9.6,0,0,1-7.35,15.76h-1.85v-3.42h1.85a6.17,6.17,0,0,0,.31-12.33h-.05a6.65,6.65,0,0,0-4.64,2,7,7,0,0,0-1.47,2.11l-.06.15a6.72,6.72,0,0,0-.52,2.69v13.72h-3.42V924.14a11.26,11.26,0,0,1,.29-2.52h-.13l.65-1.52a9.38,9.38,0,0,1,2.26-3.52,9.25,9.25,0,0,1,5.4-2.72v-.13h11.53a10.44,10.44,0,0,1,10.42,10.42Zm-2.62-.8h1.81V924.14a9.61,9.61,0,0,0-9.61-9.61H364.17a8.45,8.45,0,0,0-5.26,2.53,8.69,8.69,0,0,0-2.07,3.23v.1l-.31.71h0l-.09.34a9.82,9.82,0,0,0-.35,2.64V937h1.8V924.14a7.71,7.71,0,0,1,.58-3l.07-.15a7.7,7.7,0,0,1,1.64-2.36,7.41,7.41,0,0,1,5.2-2.28h.07a7,7,0,0,1-.32,13.95h-1v1.8h1a8.78,8.78,0,0,0,6.21-15l-.08-.08-.7-.69h4.72a7.8,7.8,0,0,1,7.8,7.8h0Zm-4.71.8H363.28v-3.42h15.09Zm-14.28-.8h13.48v-1.81H364.09Z"
                                    style="fill: #3838ff" />
        <g>
            <rect x="413.43" y="913.68" width="41.98" height="5.44" style="fill: #3838ff" />
            <g>
                <rect x="413.43" y="928.07" width="139.94" height="2.2" style="fill: #3838ff" />
                <rect x="413.43" y="933.41" width="139.94" height="2.2" style="fill: #3838ff" />
                <rect x="413.43" y="938.75" width="139.94" height="2.2" style="fill: #3838ff" />
            </g>
        </g>
        <g>
            <rect x="413.43" y="956.6" width="48.2" height="5.44" style="fill: #3838ff" />
            <g>
                <rect x="413.43" y="971" width="139.94" height="2.2" style="fill: #3838ff" />
                <rect x="413.43" y="976.33" width="139.94" height="2.2" style="fill: #3838ff" />
                <rect x="413.43" y="981.67" width="139.94" height="2.2" style="fill: #3838ff" />
            </g>
        </g>
    </g>
    <g id="booklet">
        <g id="page-left">
            <rect x="529.82" y="59.92" width="248.52" height="219.75" style="fill: #231f20;opacity: 0.10000000149011612;isolation: isolate" />
            <rect x="529.83" y="61" width="246.62" height="218.67" style="fill: #231f20;opacity: 0.10000000149011612;isolation: isolate" />
            <polygon points="776.44 61.12 776.44 278.58 534.47 278.58 776.44 61.12" style="fill: #3838ff" />
            <rect x="534.47" y="61.06" width="241.97" height="217.46" style="fill: #fff" />
            <polygon points="776.44 61.12 776.44 278.58 534.47 278.58 619.14 202.49 623.64 198.44 636.01 187.33 638.19 185.37 641.91 182.02 644.75 179.47 656.8 168.64 659.65 166.08 664.65 161.58 666.68 159.77 678.3 149.32 679.98 147.81 683.69 144.47 685.35 142.99 776.44 61.12"
                                        style="fill: #3838ff" />
            <g>
                <path d="M619.14,202.49h4.5v-4.05Zm69.12-56.93a33.83,33.83,0,0,0-2.91-2.57l-1.66,1.48a26.77,26.77,0,0,1,3,2.63,25.1,25.1,0,0,1,7.6,18.34v34.87h-4.87V165.44a20.12,20.12,0,0,0-6.17-14.89,21.63,21.63,0,0,0-3.3-2.74l-1.68,1.51a19.45,19.45,0,0,1,3.43,2.77,18,18,0,0,1,5.54,13.35v37.05h9.23V165.44A27.22,27.22,0,0,0,688.26,145.56Zm-23.61,16c0,.53.06,1.08.06,1.63A23.78,23.78,0,0,1,641,186.91h-2.81V182h3.72a19,19,0,0,0,17.74-15.94l-2.85,2.56a16.21,16.21,0,0,1-4.06,6.33,15.71,15.71,0,0,1-8,4.5,17.49,17.49,0,0,1-3.75.39h-5v9.23h5a26,26,0,0,0,25.89-25.88,28.24,28.24,0,0,0-.21-3.44ZM636,193.26v9.23h40.72v-9.23Zm38.54,7.05H638.19v-4.87h36.36Z"
                                            style="fill: #fff" />
                <g>
                    <path d="M655.64,144.37l1.9,1.87c.07.07.13.14.21.21a22.75,22.75,0,0,1,6.9,15.13l2-1.81a24.68,24.68,0,0,0-5.86-13.22h7.56a18,18,0,0,1,9.92,2.77l1.68-1.51a20,20,0,0,0-11.6-3.44Z"
                                                style="fill: #3838ff" />
                    <path d="M668.38,137.32H646.24v-.1l-3.7.1H641l-3.72-.1v.35a25,25,0,0,0-14.56,7.33,25.34,25.34,0,0,0-6.1,9.51l-1.75,4.1.34.15a28.68,28.68,0,0,0-.78,6.78v37.05h4.73l4.5-4.05v-33a18.79,18.79,0,0,1,1.39-7.26l.16-.38a18.53,18.53,0,0,1,4-5.71,17.87,17.87,0,0,1,12.5-5.51h.14a15.69,15.69,0,0,1,10.94,4.86,15.92,15.92,0,0,1,4.9,11.77,16.41,16.41,0,0,1-.86,5.43l2.85-2.56a21.18,21.18,0,0,0,.19-2.87,18,18,0,0,0-5.54-13.32,17.76,17.76,0,0,0-12.45-5.49h-.19a20,20,0,0,0-14,6.15,21.1,21.1,0,0,0-4.44,6.38l-.17.4a21.05,21.05,0,0,0-1.56,8.11v34.87h-4.87V165.44a26.78,26.78,0,0,1,.94-7.12l.26-.92h-.08l.83-1.94.11-.26a23.15,23.15,0,0,1,5.59-8.72,22.79,22.79,0,0,1,14.19-6.81l1-.1v-.07h29a25,25,0,0,1,15.31,5l1.66-1.48A27,27,0,0,0,668.38,137.32Z"
                                                style="fill: #3838ff" />
                </g>
            </g>
            <path d="M756.82,264.57v-2.5h4.07v8.5H758.1v-6Z" style="fill: #fff" />
            <rect x="557.27" y="94.9" width="26.94" height="3.06" style="fill: #323342" />
            <rect x="557.27" y="101.01" width="53.66" height="1.53" style="fill: #323342" />
            <rect x="557.27" y="105.13" width="53.66" height="1.53" style="fill: #323342" />
        </g>
        <g id="page-right">
            <rect x="771.8" y="59.91" width="248.52" height="219.75" style="fill: #231f20;opacity: 0.10000000149011612;isolation: isolate" />
            <rect x="771.8" y="60.99" width="246.62" height="218.67" style="fill: #231f20;opacity: 0.05000000074505806;isolation: isolate" />
            <rect x="776.46" y="61.06" width="241.97" height="217.46" style="fill: #fff" />
            <path d="M1004,266.33a2.51,2.51,0,0,0,.92-1.65q0-.6-.42-.6a.35.35,0,0,0-.34.21,2.07,2.07,0,0,0-.1.78h-2.58a3.58,3.58,0,0,1,.48-1.83,2.78,2.78,0,0,1,1.17-1.06,3.78,3.78,0,0,1,1.59-.33,2.93,2.93,0,0,1,2.21.74,2.51,2.51,0,0,1,.7,1.82,3.55,3.55,0,0,1-.75,2.15,7.2,7.2,0,0,1-1.91,1.74h2.75v2.15h-6.21v-2A24,24,0,0,0,1004,266.33Z"
                                        style="fill: #3838ff" />
            <g id="p1-2">
                <rect x="820.38" y="94.9" width="82.91" height="9.41" style="fill: #3838ff" />
                <g>
                    <rect x="820.4" y="113.03" width="154.1" height="2.89" style="fill: #323342" />
                    <rect x="820.4" y="125.92" width="150.74" height="2.89" style="fill: #323342" />
                    <rect x="820.4" y="138.81" width="152.86" height="2.89" style="fill: #323342" />
                    <rect x="820.4" y="151.7" width="145.61" height="2.89" style="fill: #323342" />
                    <rect x="820.4" y="164.58" width="146.67" height="2.89" style="fill: #323342" />
                    <rect x="820.4" y="177.47" width="141.19" height="2.89" style="fill: #323342" />
                    <rect x="820.4" y="190.36" width="148" height="2.89" style="fill: #323342" />
                    <rect x="820.4" y="203.25" width="142.87" height="2.89" style="fill: #323342" />
                    <rect x="820.4" y="216.13" width="137.04" height="2.89" style="fill: #323342" />
                    <rect x="820.4" y="229.02" width="140.13" height="2.89" style="fill: #323342" />
                    <rect x="820.4" y="241.91" width="72.27" height="2.89" style="fill: #323342" />
                </g>
            </g>
        </g>
    </g>
    <g id="line-logo">
        <g id="Layer0_0_FILL" data-name="Layer0 0 FILL">
            <path d="M454.73,519.8a15.09,15.09,0,1,0,4.42,10.67A14.58,14.58,0,0,0,454.73,519.8Z" style="fill: none;stroke: #fff;stroke-miterlimit: 10;stroke-width: 10px" />
        </g>
        <path d="M723.27,684.63H690.93V519.69c0-25.53-8.79-46.72-26.86-64.78s-39.25-26.85-64.78-26.85H553.05c.34.32.67.65,1,1,22.15,22.06,33.39,49.13,33.39,80.41S576.18,567.78,554,589.81c-22,22.11-49,33.37-80.28,33.37H455.81V590.84H473.7c22.67,0,41.45-7.82,57.41-23.9,16.17-16,24-34.82,24-57.49s-7.82-41.51-23.91-57.54c-15.17-15.23-32.75-23-53.78-23.73h-.5c-23.87.82-43.82,9.57-61,26.73a90.69,90.69,0,0,0-19.3,27.72l-.77,1.78a90.8,90.8,0,0,0-6.78,35.28V684.63H356.73V519.69a126.79,126.79,0,0,1,4.52-34l-.95-.4,5.77-13.49.38-.89A111.23,111.23,0,0,1,393.27,429c19.15-19.15,42-30.12,68.14-32.71v-.94l12.14.34c1.2,0,2.38,0,3.57.09s2.34-.09,3.56-.09h.05l12.1-.34v.34H599.29c34.06,0,63.55,12.22,87.65,36.33s36.33,53.59,36.33,87.65Zm-90.67,0H455.81V652.29H632.6Z"
                                    style="fill: none;stroke: #fff;stroke-miterlimit: 10;stroke-width: 10px" />
    </g>
    <g id="colorstrips">
        <g id="strip-purple">
            <rect x="903.29" y="650.1" width="116.8" height="369.99" style="fill: #231f20;opacity: 0.10000000149011612;isolation: isolate" />
            <rect x="903.29" y="650.1" width="115.51" height="369.99" style="fill: #231f20;opacity: 0.10000000149011612;isolation: isolate" />
            <rect x="904.73" y="650.1" width="114.06" height="368.38" style="fill: #fff" />
            <rect x="919.48" y="666.95" width="84.56" height="84.56" style="fill: #410568" />
            <rect x="919.48" y="768.35" width="84.56" height="84.56" style="fill: #6c0aab" />
            <rect x="919.48" y="869.76" width="84.56" height="84.56" style="fill: #9552c0" />
        </g>
        <g id="strip-green">
            <rect x="903.29" y="650.1" width="116.8" height="369.99" style="fill: #231f20;opacity: 0.10000000149011612;isolation: isolate" />
            <rect x="903.29" y="650.1" width="115.51" height="369.99" style="fill: #231f20;opacity: 0.10000000149011612;isolation: isolate" />
            <rect x="904.73" y="650.1" width="114.06" height="368.38" style="fill: #fff" />
            <rect x="919.48" y="666.95" width="84.56" height="84.56" style="fill: #006941" />
            <rect x="919.48" y="768.35" width="84.56" height="84.56" style="fill: #00ac6b" />
            <rect x="919.48" y="869.76" width="84.56" height="84.56" style="fill: #4cc195" />
        </g>
        <g id="strip-blue">
            <rect x="903.29" y="650.1" width="116.8" height="369.99" style="fill: #231f20;opacity: 0.10000000149011612;isolation: isolate" />
            <rect x="903.29" y="650.1" width="115.51" height="369.99" style="fill: #231f20;opacity: 0.10000000149011612;isolation: isolate" />
            <rect x="904.73" y="650.1" width="114.06" height="368.38" style="fill: #fff" />
            <rect x="919.48" y="666.95" width="84.56" height="84.56" style="fill: #010195" />
            <rect x="919.48" y="768.35" width="84.56" height="84.56" style="fill: #3838ff" />
            <rect x="919.48" y="869.76" width="84.56" height="84.56" style="fill: #6262fc" />
        </g>
    </g>
</svg>