<svg id="design-animation"
    xmlns="http://www.w3.org/2000/svg"
    xmlns:xlink="http://www.w3.org/1999/xlink" viewBox="0 0 1080 1080">
    <defs>
        <clipPath id="clip-path">
            <path id="screen-mask" d="M627.45,208.4h0a5.64,5.64,0,0,1,5.64-5.64H660.8A38.17,38.17,0,0,1,699,240.93V817.49a38.16,38.16,0,0,1-38.17,38.16H419.2A38.16,38.16,0,0,1,381,817.49V240.93a38.17,38.17,0,0,1,38.17-38.17h27.64a5.63,5.63,0,0,1,5.64,5.64h0a20.37,20.37,0,0,0,20.36,20.36H607.09A20.36,20.36,0,0,0,627.45,208.4Z"
                                        style="fill: none" />
        </clipPath>
    </defs>
    <title>Illustration Web Design v3</title>
    <rect width="1080" height="1080" style="fill: #5962ab" />
    <g id="mobile">
        <g id="device">
            <path d="M555.77,215.16H519.44a4.39,4.39,0,1,1,0-8.77h36.33a4.39,4.39,0,1,1,0,8.77Zm-36.33-5.64a1.26,1.26,0,1,0,0,2.51h36.33a1.26,1.26,0,1,0,0-2.51Z"
                                        style="fill: #323342" />
            <path d="M576.72,216.61a5.83,5.83,0,1,1,5.83-5.83A5.84,5.84,0,0,1,576.72,216.61Zm0-8.53a2.7,2.7,0,1,0,2.7,2.7A2.7,2.7,0,0,0,576.72,208.08Z"
                                        style="fill: #323342" />
            <path d="M359.83,304.06a2.35,2.35,0,0,1-2.35-2.35v-21.3a2.35,2.35,0,1,1,4.7,0v21.3A2.35,2.35,0,0,1,359.83,304.06Z"
                                        style="fill: #323342;opacity: 0.5" />
            <path d="M359.83,380.67a2.35,2.35,0,0,1-2.35-2.34v-47a2.35,2.35,0,0,1,4.7,0v47A2.35,2.35,0,0,1,359.83,380.67Z"
                                        style="fill: #323342;opacity: 0.5" />
            <path d="M359.83,444.57a2.35,2.35,0,0,1-2.35-2.35V397.75a2.35,2.35,0,0,1,4.7,0v44.47A2.35,2.35,0,0,1,359.83,444.57Z"
                                        style="fill: #323342;opacity: 0.5" />
            <path d="M720.17,428.29a2.35,2.35,0,0,1-2.35-2.35V349.51a2.35,2.35,0,0,1,4.7,0v76.43A2.35,2.35,0,0,1,720.17,428.29Z"
                                        style="fill: #323342;opacity: 0.5" />
            <rect x="184.06" y="366.47" width="710.41" height="347.06" rx="51.06" transform="translate(-0.73 1079.27) rotate(-90)"
                                        style="fill: #3f3d56" />
            <path d="M626.72,208.4h0a5.64,5.64,0,0,1,5.64-5.64h27.71a38.17,38.17,0,0,1,38.16,38.17V817.49a38.16,38.16,0,0,1-38.16,38.16H418.47a38.16,38.16,0,0,1-38.17-38.16V240.93a38.17,38.17,0,0,1,38.17-38.17h27.64a5.63,5.63,0,0,1,5.64,5.64h0a20.37,20.37,0,0,0,20.36,20.36H606.36A20.36,20.36,0,0,0,626.72,208.4Z"
                                        style="fill: #323342" />
            <path d="M620.16,876.22H458.37a2.35,2.35,0,1,1,0-4.69H620.16a2.35,2.35,0,1,1,0,4.69Z" style="fill: #323342" />
        </g>
        <g id="screen">
            <g style="clip-path: url(#clip-path)">
                <g>
                    <rect id="pagebg" x="377.12" y="497.76" width="843.59" height="547.54" style="fill: #fff" />
                    <g id="hero">
                        <rect id="hero-bg" x="377.12" y="201.7" width="843.59" height="296.06" style="fill: #3838ff" />
                        <path d="M1248.94,281.82h-900V188.76h900Zm-899-1h898V189.76h-898Z" style="fill: #fff" />
                        <g id="logo">
                            <path d="M411.58,241.8a1.62,1.62,0,0,0-1.17-.48,1.66,1.66,0,0,0-1.66,1.65,1.56,1.56,0,0,0,.49,1.17,1.6,1.6,0,0,0,1.17.49,1.63,1.63,0,0,0,1.17-.49,1.59,1.59,0,0,0,.48-1.17A1.61,1.61,0,0,0,411.58,241.8Z"
                                                        style="fill: #fff" />
                            <rect x="411.69" y="256.32" width="19.38" height="3.54" style="fill: #fff" />
                            <path d="M437,232.18a13.18,13.18,0,0,0-9.61-4H415.76v0l-1.33,0h-.79l-1.33,0v.1a12,12,0,0,0-7.47,3.58,12.21,12.21,0,0,0-2.94,4.59l0,.1-.63,1.48.1,0a13.88,13.88,0,0,0-.49,3.73v18.08h3.54V241.79a10,10,0,0,1,.74-3.87l.09-.19a9.81,9.81,0,0,1,2.11-3,9.54,9.54,0,0,1,6.69-2.93h.05a8.39,8.39,0,0,1,5.89,2.6,8.93,8.93,0,0,1-6.29,15.23h-2v3.54h2a12.45,12.45,0,0,0,8.8-21.27l-.11-.11h5.07a10,10,0,0,1,10,10v18.08H441V241.79A13.18,13.18,0,0,0,437,232.18Z"
                                                        style="fill: #fff" />
                        </g>
                        <g id="hamburger">
                            <polygon points="670.82 239.48 670.55 239.48 662.47 239.48 662.21 239.48 654.12 239.48 653.86 239.48 645.51 239.48 645.51 241.53 653.86 241.53 654.12 241.53 662.21 241.53 662.47 241.53 670.55 241.53 670.82 241.53 679.16 241.53 679.16 239.48 670.82 239.48"
                                                        style="fill: #fff" />
                            <polygon points="670.55 248.65 662.47 248.65 662.21 248.65 654.12 248.65 653.86 248.65 645.51 248.65 645.51 250.69 653.86 250.69 654.12 250.69 662.21 250.69 662.47 250.69 670.55 250.69 670.82 250.69 679.16 250.69 679.16 248.65 670.82 248.65 670.55 248.65"
                                                        style="fill: #fff" />
                            <polygon points="670.55 257.82 662.47 257.82 662.21 257.82 654.12 257.82 653.86 257.82 645.51 257.82 645.51 259.87 653.86 259.87 654.12 259.87 662.21 259.87 662.47 259.87 670.55 259.87 670.82 259.87 679.16 259.87 679.16 257.82 670.82 257.82 670.55 257.82"
                                                        style="fill: #fff" />
                        </g>
                        <g id="h1">
                            <rect x="400.84" y="392.56" width="214" height="20.1" style="fill: #fff" />
                            <rect x="400.84" y="422.06" width="120.7" height="20.1" style="fill: #fff" />
                        </g>
                    </g>
                    <g id="p1">
                        <rect x="400.84" y="559.36" width="145.38" height="16.5" style="fill: #323342" />
                        <g>
                            <rect x="400.88" y="591.16" width="270.2" height="5.07" style="fill: #323342" />
                            <rect x="400.88" y="613.76" width="264.31" height="5.07" style="fill: #323342" />
                            <rect x="400.88" y="636.36" width="268.03" height="5.07" style="fill: #323342" />
                            <rect x="400.88" y="658.96" width="255.32" height="5.07" style="fill: #323342" />
                            <rect x="400.88" y="681.55" width="257.18" height="5.07" style="fill: #323342" />
                            <rect x="400.88" y="704.15" width="247.57" height="5.07" style="fill: #323342" />
                            <rect x="400.88" y="726.75" width="259.5" height="5.07" style="fill: #323342" />
                            <rect x="400.88" y="749.35" width="250.52" height="5.07" style="fill: #323342" />
                            <rect x="400.88" y="771.94" width="240.29" height="5.07" style="fill: #323342" />
                            <rect x="400.88" y="794.54" width="245.71" height="5.07" style="fill: #323342" />
                            <rect x="400.88" y="817.14" width="126.72" height="5.07" style="fill: #323342" />
                        </g>
                    </g>
                    <rect x="934.16" y="594.89" width="413.96" height="141.71" style="fill: none" />
                </g>
            </g>
        </g>
    </g>
    <g id="desktop-monitor">
        <g id="monitor">
            <path d="M966,170.93H114a19.19,19.19,0,0,0-19.1,19.28h0v149h0v516.4H985.08V190.21A19.19,19.19,0,0,0,966,170.93Z"
                                        style="fill: #323342" />
            <path d="M94.92,855.65v60.5a19.1,19.1,0,0,0,19,19.15H966a19.09,19.09,0,0,0,19.09-19.09h0V855.65Z" style="fill: #3f3d56" />
        </g>
        <g id="Desktop">
            <rect id="bodybg" x="127.13" y="497.75" width="825.75" height="357.9" style="fill: #fff" />
            <g id="hero-2" data-name="hero">
                <rect id="hero-bg-2" data-name="hero-bg" x="127.13" y="202.76" width="825.74" height="295" style="fill: #3838ff" />
                <g id="navbar">
                    <g id="logo-2" data-name="logo">
                        <path d="M226.08,240.62a1.86,1.86,0,0,0-2.62,0,1.87,1.87,0,0,0,0,2.63,1.86,1.86,0,1,0,2.62-2.63Z"
                                                    style="fill: #fff" />
                        <rect x="226.22" y="256.9" width="21.72" height="3.97" style="fill: #fff" />
                        <path d="M254.61,229.84a14.73,14.73,0,0,0-10.77-4.46H230.77v0l-1.49,0h-.88l-1.49,0v.12a13.45,13.45,0,0,0-8.38,4,13.64,13.64,0,0,0-3.29,5.15l-.05.11-.71,1.65.12.05a15.56,15.56,0,0,0-.55,4.18v20.26h4V240.61a11.17,11.17,0,0,1,.83-4.33l.09-.22a11.32,11.32,0,0,1,2.38-3.41,10.68,10.68,0,0,1,7.49-3.28h.06a9.37,9.37,0,0,1,6.6,2.92,10,10,0,0,1-7.06,17.06h-2.19v4h2.19a14,14,0,0,0,9.87-23.84l-.12-.13h5.68a11.27,11.27,0,0,1,11.26,11.26v20.26h4V240.61A14.75,14.75,0,0,0,254.61,229.84Z"
                                                    style="fill: #fff" />
                    </g>
                    <g id="menu">
                        <polygon points="654.55 240.38 646.63 240.38 646.38 240.38 638.46 240.38 638.2 240.38 630.03 240.38 630.03 245.43 638.2 245.43 638.46 245.43 646.38 245.43 646.63 245.43 654.55 245.43 654.8 245.43 662.97 245.43 662.97 240.38 654.8 240.38 654.55 240.38"
                                                    style="fill: #fff" />
                        <polygon points="722.21 240.38 714.29 240.38 714.03 240.38 706.12 240.38 705.86 240.38 697.69 240.38 697.69 245.43 705.86 245.43 706.12 245.43 714.03 245.43 714.29 245.43 722.21 245.43 722.46 245.43 730.63 245.43 730.63 240.38 722.46 240.38 722.21 240.38"
                                                    style="fill: #fff" />
                        <polygon points="789.87 240.38 781.95 240.38 781.7 240.38 773.78 240.38 773.52 240.38 765.35 240.38 765.35 245.43 773.52 245.43 773.78 245.43 781.7 245.43 781.95 245.43 789.87 245.43 790.12 245.43 798.29 245.43 798.29 240.38 790.12 240.38 789.87 240.38"
                                                    style="fill: #fff" />
                        <polygon points="857.53 240.38 849.61 240.38 849.35 240.38 841.44 240.38 841.18 240.38 833.01 240.38 833.01 245.43 841.18 245.43 841.44 245.43 849.35 245.43 849.61 245.43 857.53 245.43 857.78 245.43 865.95 245.43 865.95 240.38 857.78 240.38 857.53 240.38"
                                                    style="fill: #fff" />
                    </g>
                    <rect x="127.13" y="280.82" width="825.74" height="1" style="fill: #fff" />
                </g>
                <g id="h1-2" data-name="h1">
                    <rect x="214.05" y="394.79" width="209.47" height="19.67" style="fill: #fff" />
                    <rect x="214.05" y="423.66" width="118.15" height="19.67" style="fill: #fff" />
                </g>
            </g>
            <g id="p2">
                <rect x="214.05" y="789.38" width="136.06" height="16.15" style="fill: #323342" />
                <g>
                    <rect x="213.98" y="819.62" width="402.71" height="4.06" style="fill: #323342" />
                    <rect x="213.98" y="830.74" width="382.92" height="4.06" style="fill: #323342" />
                    <rect x="213.98" y="841.81" width="392.15" height="4.06" style="fill: #323342" />
                </g>
            </g>
            <g id="p1-2" data-name="p1">
                <rect x="214.05" y="558.06" width="136.06" height="16.15" style="fill: #323342" />
                <g>
                    <rect x="213.98" y="588.21" width="402.71" height="4.06" style="fill: #323342" />
                    <rect x="213.98" y="599.33" width="382.92" height="4.06" style="fill: #323342" />
                    <rect x="213.98" y="610.4" width="392.15" height="4.06" style="fill: #323342" />
                    <rect x="213.98" y="621.48" width="388.92" height="4.06" style="fill: #323342" />
                    <rect x="213.98" y="632.56" width="395.26" height="4.06" style="fill: #323342" />
                    <rect x="213.98" y="643.63" width="386.04" height="4.06" style="fill: #323342" />
                    <rect x="213.98" y="654.71" width="397.92" height="4.06" style="fill: #323342" />
                    <rect x="213.98" y="665.78" width="390.67" height="4.06" style="fill: #323342" />
                    <rect x="213.98" y="676.86" width="392" height="4.06" style="fill: #323342" />
                    <rect x="213.98" y="687.94" width="386.96" height="4.06" style="fill: #323342" />
                    <rect x="213.98" y="699.01" width="340.15" height="4.06" style="fill: #323342" />
                </g>
            </g>
            <g id="sidebar">
                <rect x="716.21" y="563.48" width="119.18" height="10.85" style="fill: #3838ff" />
                <rect x="760.58" y="596.34" width="73.56" height="3.97" style="fill: #3838ff" />
                <rect x="760.58" y="618.82" width="74.82" height="3.97" style="fill: #3838ff" />
                <rect x="760.58" y="641.29" width="68.31" height="3.97" style="fill: #3838ff" />
                <rect x="760.58" y="663.76" width="69.51" height="3.97" style="fill: #3838ff" />
                <rect x="760.58" y="686.24" width="66.94" height="3.97" style="fill: #3838ff" />
                <rect x="760.58" y="708.71" width="70.48" height="3.97" style="fill: #3838ff" />
                <rect x="760.58" y="731.18" width="67.42" height="3.97" style="fill: #3838ff" />
                <rect x="760.58" y="753.66" width="69.19" height="3.97" style="fill: #3838ff" />
                <rect x="760.58" y="776.13" width="65.34" height="3.97" style="fill: #3838ff" />
                <rect x="760.58" y="798.6" width="68.23" height="3.97" style="fill: #3838ff" />
                <rect x="760.58" y="821.08" width="59.15" height="3.97" style="fill: #3838ff" />
                <rect x="716.21" y="596.34" width="31.04" height="3.96" style="fill: #3838ff" />
                <rect x="716.21" y="618.81" width="31.04" height="3.97" style="fill: #3838ff" />
                <rect x="716.21" y="641.29" width="31.04" height="3.96" style="fill: #3838ff" />
                <rect x="716.21" y="663.76" width="31.04" height="3.97" style="fill: #3838ff" />
                <rect x="716.21" y="686.23" width="31.04" height="3.97" style="fill: #3838ff" />
                <rect x="716.21" y="708.71" width="31.04" height="3.96" style="fill: #3838ff" />
                <rect x="716.21" y="731.18" width="31.04" height="3.96" style="fill: #3838ff" />
                <rect x="716.21" y="753.65" width="31.04" height="3.97" style="fill: #3838ff" />
                <rect x="716.21" y="776.13" width="31.04" height="3.96" style="fill: #3838ff" />
                <rect x="716.21" y="798.6" width="31.04" height="3.97" style="fill: #3838ff" />
                <rect x="716.21" y="821.08" width="31.04" height="3.96" style="fill: #3838ff" />
                <rect x="716.21" y="618.81" width="31.04" height="3.97" style="fill: #3838ff" />
                <rect x="716.21" y="641.29" width="31.04" height="3.96" style="fill: #3838ff" />
                <rect x="716.21" y="663.76" width="31.04" height="3.97" style="fill: #3838ff" />
                <rect x="716.21" y="686.23" width="31.04" height="3.97" style="fill: #3838ff" />
                <rect x="716.21" y="708.71" width="31.04" height="3.96" style="fill: #3838ff" />
                <rect x="716.21" y="731.18" width="31.04" height="3.96" style="fill: #3838ff" />
                <rect x="716.21" y="753.65" width="31.04" height="3.97" style="fill: #3838ff" />
                <rect x="716.21" y="776.13" width="31.04" height="3.96" style="fill: #3838ff" />
                <rect x="716.21" y="798.6" width="31.04" height="3.97" style="fill: #3838ff" />
                <rect x="716.21" y="821.08" width="31.04" height="3.96" style="fill: #3838ff" />
            </g>
        </g>
    </g>
</svg>