<svg id="explainer-arrow" data-name="Layer 1" xmlns="http://www.w3.org/2000/svg" viewBox="0 0 545.99 166.16"><title>Hoe het dus niet moet: de gemiddelde website in 2019.</title><g id="arrow"><path d="M516.79,71,532,64.46c2.53-1.08,5-2.21,7.57-3.32s5-2.23,7.54-3.37c5-2.32,10-4.55,14.89-7s9.76-4.92,14.42-7.67l.38-.22.5-.1a2.72,2.72,0,0,1,1.48.14,2.61,2.61,0,0,1,1.13.79,2.67,2.67,0,0,1,.56,1c0,.14.07.28.1.42a3.15,3.15,0,0,1,0,.4v.15c0,.1,0,.2,0,.3l-.05.28,0,.17c-.05.19-.09.31-.12.42l-.21.55-.38.93L579,50.05c-.49,1.13-1,2.23-1.55,3.33L574.3,60,568,73.09c-2.06,4.38-4.11,8.76-6.06,13.15a109.84,109.84,0,0,0-5.15,13.24l-.06.21,0,0a3.12,3.12,0,0,1-.25.53,3,3,0,0,1-1.89,1.41,3.34,3.34,0,0,1-.77.06,3.75,3.75,0,0,1-.57-.09,3.11,3.11,0,0,1-.42-.15,2.5,2.5,0,0,1-.33-.17,3.06,3.06,0,0,1-.42-.28,5,5,0,0,1-.51-.47,10.81,10.81,0,0,1-1.09-1.39c-.58-.85-1.07-1.66-1.56-2.46C548,95.1,547,93.53,546,92c-2-3.11-4-6.16-6.28-9.07a93.76,93.76,0,0,0-7.2-8.39,96.81,96.81,0,0,0-8.19-7.59,67.73,67.73,0,0,1,9.43,6.23,81.16,81.16,0,0,1,8.39,7.68,105.14,105.14,0,0,1,7.33,8.73c1.13,1.53,2.22,3.07,3.3,4.59.54.75,1.08,1.5,1.6,2.16a6.77,6.77,0,0,0,.68.77s0,0,0,0A.65.65,0,0,0,555,97l-.17-.09-.25-.09a2.7,2.7,0,0,0-.41-.06,2,2,0,0,0-.59,0,2.19,2.19,0,0,0-1,.51,2.07,2.07,0,0,0-.39.47,1.22,1.22,0,0,0-.1.2l-.08.25a112.43,112.43,0,0,1,4.8-14.18c1.83-4.57,3.81-9,5.87-13.48s4.2-8.82,6.37-13.18l3.25-6.53,1.61-3.24.78-1.59.34-.75.13-.3s0,0,0,0V45a.47.47,0,0,0,0,.17,1.75,1.75,0,0,0,0,.24v.12a2.73,2.73,0,0,0,0,.37,2.23,2.23,0,0,0,.09.39,2.89,2.89,0,0,0,.55,1,2.64,2.64,0,0,0,1.1.78,2.75,2.75,0,0,0,1.46.13l.88-.32q-7.45,4-15.12,7.27c-2.57,1.08-5.14,2.14-7.72,3.15s-5.18,2-7.79,3q-7.81,2.82-15.76,5.28C527.5,68.19,522.17,69.71,516.79,71Z" transform="translate(-34.62 -42.73)" style="fill:#403e56"/></g><g id="tail"><path d="M543.79,84.57c-4.31,4.53-8.71,8.65-13.28,12.71s-9.23,7.93-14,11.67a283.88,283.88,0,0,1-30,20.58c-5.22,3.08-10.52,6-16,8.71s-10.94,5.22-16.57,7.44a187,187,0,0,1-34.73,10.24,185.92,185.92,0,0,0,34.14-11.62c5.49-2.44,10.86-5.16,16.11-8.05s10.4-6,15.43-9.27a279.6,279.6,0,0,0,28.77-21.51q6.84-5.82,13.3-12c4.28-4.13,8.52-8.45,12.35-12.83Z" transform="translate(-34.62 -42.73)" style="fill:#403e56"/></g><path d="M67.86,159C67,168.67,65,178.67,64,188.67c0,3-1,6-4,6-1,0-2-1-3-2-2-4,3-10,1-12-5-6-16-4-19,4,0,3,0,6-1,8-1,1-4,3-3,1,2-11-6-30,9-33-3,9-1,17,10,15,9-3,6-13,11-19a5.37,5.37,0,0,0,2.48,1.3A1.66,1.66,0,0,1,67.86,159Z" transform="translate(-34.62 -42.73)" style="fill:#403e56"/><path d="M107.76,174.14C105,179.67,98,177.67,93,177.67c2,10-11,19-18,14-8-6,1-22,11.07-21.14,6.93,1.13,13.93,5.14,21.62,3.14A2.8,2.8,0,0,1,107.76,174.14Zm-18.68,5.07c.93-3.56-3-4.66-5-4.73-3.92,1.84-8.85,8.68-6,11.9,2.92,4.18,10.87-1.72,11-7.15Z" transform="translate(-34.62 -42.73)" style="fill:#403e56"/><path d="M130.59,178.21c-2.8,4.24-7.19,9.1-11.89,11.78s-9.7,3.18-13.7-1.32c-7-6-2-20,8-21,3,0,5,3,5,6-1,5-6,8-10,11,3.5,4,7.5,3.25,11.43,1s7.78-6,11-8A1.26,1.26,0,0,1,130.59,178.21Zm-17.19-4.85a2.25,2.25,0,0,1-.4-1.69,14.56,14.56,0,0,0-6,9c1-2,5-3,5.89-5.22A4,4,0,0,0,113.4,173.36Z" transform="translate(-34.62 -42.73)" style="fill:#403e56"/><path d="M179.65,180.59C177,186.67,172,191.67,165,192.67c-7,0-5-8-5-12-5,5-11,10-13,17a3.67,3.67,0,0,0-3-1c0-11,2-23,3-34,11,4,0,16,2,24,3-3,4-8,8-10,9-3,5,8,9,10,6,3,8-7,13.62-6.44A2.6,2.6,0,0,1,179.65,180.59Z" transform="translate(-34.62 -42.73)" style="fill:#403e56"/><path d="M202.82,177.57c-4.82,7.1-9.82,18.1-19.82,16.1-6,0-8-7-7-13s7-13,11-10c9,5-8,13-3,18,7,6,12-9,18.66-11.62A1.06,1.06,0,0,1,202.82,177.57Zm-16.77-2.31c-.56.38-.56-.62-.56-1.61-3,2.23-4,6.32-4.93,9.43a13.45,13.45,0,0,0,5-5.57A5.44,5.44,0,0,0,186.05,175.26Z" transform="translate(-34.62 -42.73)" style="fill:#403e56"/><path d="M222.59,172.73c-2.59,4.94-9.59,2.94-13.59,4.94-6,3-4,12-3,18,0,2-3,2-4,1-6-5,4-19-7-18,4-6,12-7,11-16-1-1,2-3,4-2,3,4-3,8-1,12,4,4,9-2,13.31-.72C222.5,172.06,222.59,172.32,222.59,172.73Z" transform="translate(-34.62 -42.73)" style="fill:#403e56"/><path d="M270.6,179.06c-2.6,3.61-4.6,7.61-9.6,10.61-6,4-11-2-9-8-5,5-11,16-17,9-7-6,0-16,7-21,4-2,8-1,10,3,1-4-2-10,2-13,3-1,4,2,4,4-2,7-6,14-1,19,4,5,8-3,13.36-4.8A2.21,2.21,0,0,1,270.6,179.06ZM247.1,181c2.52-1.5.5-5.61-.51-8.66-6.05,3.68-8.07,9.61-9.06,15.65,4,.19,6-3.77,8.3-5.61Z" transform="translate(-34.62 -42.73)" style="fill:#403e56"/><path d="M307.61,178.82a22.6,22.6,0,0,1-7.29,9.61c-2.32,2.24-4.32,3.24-7.32,3.24s-6-1-7-7c-4,4-8,12-14,9-7-3-6-18,0-18,7-1-1,10,2,12,9,4,9-11,15-15,2,4,0,9,2,12,5,8,10-5,16.39-6.26A.67.67,0,0,1,307.61,178.82Z" transform="translate(-34.62 -42.73)" style="fill:#403e56"/><path d="M326.4,181.07a35.74,35.74,0,0,1-10.72,13A31.11,31.11,0,0,1,300,200.67c4-4,5.75-6.75,6.25-9.88s-.25-6.62-1.25-12.12c-1-3,4-8,7-5,2,3-3,5-3,7-1,3,2,6,4,9,4-3,8-8,13.36-8.87A1.82,1.82,0,0,1,326.4,181.07Z" transform="translate(-34.62 -42.73)" style="fill:#403e56"/><path d="M378.62,183C376,188.67,371,195.67,363,195.67c-6-1-5-8-7-13-6,2-6,12-12,11s-4-13,0-18c1,0,4-1,4,1a20.16,20.16,0,0,1-3,11c5-4,7-12,14-10,5,3,1,10,5,12,6,4,8-8,14.53-7.17A1.15,1.15,0,0,1,378.62,183Z" transform="translate(-34.62 -42.73)" style="fill:#403e56"/><path d="M398.54,186.23C396,192.67,391,196.67,385,199.67c-6,2-9-5-10-10,0-4,0-12,5-11,5,2-3,13,3,15s9-7,15.31-8.4A2.58,2.58,0,0,1,398.54,186.23Zm-13.32-19.81c-.22,4.25-7.22,4.25-6.22,1.25,0-1,2-4,4-4,1,0,1,1,2,1.58A2.92,2.92,0,0,1,385.22,166.42Z" transform="translate(-34.62 -42.73)" style="fill:#403e56"/><path d="M422.81,186.3C418,194.67,406,205.67,398,196.67c-6-5-3-15,3-20,3-2,8-2,9,3,1,8-10,10-8,13,4,9,14-4,20.64-6.91A1.23,1.23,0,0,1,422.81,186.3Zm-17.15-4.92c.34-.71.34-1.71-.66-1.71-4,1-4,5-5,9a12.59,12.59,0,0,0,5.1-5.08A4.8,4.8,0,0,0,405.66,181.38Z" transform="translate(-34.62 -42.73)" style="fill:#403e56"/><path d="M442.82,181.94C434,187.67,419,187.67,426,202.67c1,2-3,3-4,2-7-7,6-18-7-18v-3c10,3,8-8,12-14,2-3,4,0,4,1,0,4-2,8-3,12,5,1,10-2,14.54-1.53C442.73,181.25,442.83,181.51,442.82,181.94Z" transform="translate(-34.62 -42.73)" style="fill:#403e56"/><path d="M506.54,182.08C502,187.67,499,196.67,490,193.67c-4-1-2-7-4-10-5,4-4,14-12,12-3-1-2-7-2-11-7,2-9,22-15,12-2-4-2-13,3-18,1,0,3,0,3,1,1,5-2,9-2,14,3-5,5-14,12-14,5,0,4,7,4,11,5-4,5-16,13-12,4,1-3,12,5,11,4,0,7-6,10.81-8.6C506.3,181.06,506.54,181.39,506.54,182.08Z" transform="translate(-34.62 -42.73)" style="fill:#403e56"/><path d="M535,178.68a2.47,2.47,0,0,1-.17.85,4,4,0,0,1-.46.87,6,6,0,0,1-.66.77,5.21,5.21,0,0,1-.76.61,7.89,7.89,0,0,1-2.34.94,14.82,14.82,0,0,1-3.72.41,10.76,10.76,0,0,1-1.34-.09c-.47-.06-.95-.15-1.43-.25a13.88,13.88,0,0,1-1.44-.39c-.47-.16-.93-.34-1.36-.53a1.57,1.57,0,0,1,.22.55,4.11,4.11,0,0,1,.13.73c0,.25,0,.5,0,.73s0,.41,0,.55a8.41,8.41,0,0,1-.5,2.86,13.29,13.29,0,0,1-1.34,2.73C517,195.67,509,199.67,503,195.67a7.58,7.58,0,0,1-2-4c0-6,3-11,8-15,4-3,7-4,10.56.35a4,4,0,0,0,1,.54,17.34,17.34,0,0,0,1.9.7c.73.24,1.51.44,2.31.62a10.29,10.29,0,0,0,2.21.27l1.9,0a13.85,13.85,0,0,0,1.81-.17,15,15,0,0,0,1.91-.45,18,18,0,0,0,2.21-.84,1.38,1.38,0,0,1,.17.52A2.77,2.77,0,0,1,535,178.68Zm-17.43,5.06c.42-3.07-2.58-5.07-4.58-4.07-4,2-9,9-5,12,3,4,8-3,9.58-7.91Z" transform="translate(-34.62 -42.73)" style="fill:#403e56"/><path d="M558,181.87a3.86,3.86,0,0,1-.61,1.48,38.56,38.56,0,0,1-2.59,3.34,37.39,37.39,0,0,1-3,3.13,36.46,36.46,0,0,1-3.37,2.75,26.39,26.39,0,0,1-3.55,2.19,20.21,20.21,0,0,1-3.58,1.45,12.39,12.39,0,0,1-3.5.53,8,8,0,0,1-6-2.17c-1.43-1.44-2.15-3.63-2.15-6.55a24.54,24.54,0,0,1,.25-3.44,18.82,18.82,0,0,1,.82-3.35,18.38,18.38,0,0,1,3.76-6.35,8.6,8.6,0,0,1,1.16-1.07,9.55,9.55,0,0,1,1.41-.93,9.9,9.9,0,0,1,1.58-.65,5.73,5.73,0,0,1,1.62-.24,4.41,4.41,0,0,1,2.06.45,4.18,4.18,0,0,1,1.43,1.2,5.24,5.24,0,0,1,.83,1.73,7.63,7.63,0,0,1,.27,2,7.35,7.35,0,0,1-1.49,4.15,23.09,23.09,0,0,1-4.11,4.39c-.57.48-1.22,1-2,1.56l-2.52,1.9a2.48,2.48,0,0,0,.33,1.05,2.84,2.84,0,0,0,.76.87,3.82,3.82,0,0,0,1.16.58,5.15,5.15,0,0,0,1.53.21,10.34,10.34,0,0,0,2.33-.28,16,16,0,0,0,2.45-.75,21,21,0,0,0,2.36-1.09,19.66,19.66,0,0,0,2.09-1.29,37.1,37.1,0,0,0,3.2-2.57c1-.92,2-1.86,3-2.82l1.19-1.19a3.54,3.54,0,0,1,2.12-1.1.63.63,0,0,1,.61.3A1,1,0,0,1,558,181.87Zm-17.52-4.13a4.19,4.19,0,0,0-.1-1,.82.82,0,0,0-.32-.56,2.77,2.77,0,0,0-1.63.65,7.11,7.11,0,0,0-1.65,1.86,13.65,13.65,0,0,0-1.41,2.89,19.1,19.1,0,0,0-.91,3.77c.71-.53,1.41-1.08,2.12-1.65a17.79,17.79,0,0,0,1.94-1.81,9.77,9.77,0,0,0,1.41-2A4.67,4.67,0,0,0,540.51,177.74Z" transform="translate(-34.62 -42.73)" style="fill:#403e56"/><path d="M577.91,177.78a1.69,1.69,0,0,1-.18.78,2.52,2.52,0,0,1-.45.62,3.68,3.68,0,0,1-.6.51c-.21.15-.42.28-.61.4a16.79,16.79,0,0,1-2.17.79c-.77.23-1.54.42-2.3.57s-1.51.29-2.24.4l-2,.27-1.31.14-1.34.15-1.21.13c-.37.05-.7.09-1,.14q-.49,1.9-.93,3.66t-.75,3.3c0,.18-.08.43-.14.74l-.19,1c-.06.37-.13.76-.19,1.17s-.11.81-.17,1.17-.09.7-.12,1,0,.51,0,.66a1.9,1.9,0,0,0,.24,1.11,2.86,2.86,0,0,0,.5.53,5.75,5.75,0,0,1,.75.7,1.32,1.32,0,0,1,.3.92,1.31,1.31,0,0,1-.31.84,3.14,3.14,0,0,1-.79.69,4.91,4.91,0,0,1-1,.47,3.22,3.22,0,0,1-1,.18,2.77,2.77,0,0,1-1.46-.39,3.85,3.85,0,0,1-1.12-1.05,4.63,4.63,0,0,1-.72-1.48,5.8,5.8,0,0,1-.25-1.71,26.23,26.23,0,0,1,.23-3.26,32.74,32.74,0,0,1,.65-3.57c.12-.52.25-1.1.39-1.73s.27-1.22.39-1.79.23-1.08.32-1.52l.18-.89c-.32,0-.77.06-1.36.14a18,18,0,0,1-2.1.11,10.3,10.3,0,0,1-1.71-.12,2.82,2.82,0,0,1-1.14-.46,2,2,0,0,1-.66-.92,4.93,4.93,0,0,1-.2-1.53,1.11,1.11,0,0,1,.38-.87,2.67,2.67,0,0,1,.95-.49,6.22,6.22,0,0,1,1.17-.23c.4,0,.76-.05,1.07-.05.15,0,.42,0,.79-.06l1.22-.11,1.28-.11c.42,0,.73-.06,1-.06.07,0,.17-.14.28-.42a11.59,11.59,0,0,0,.35-1.11c.12-.44.24-.94.37-1.49s.25-1.08.37-1.62.23-1,.32-1.47.18-.8.24-1.05a20.18,20.18,0,0,0,.42-2.11,13.84,13.84,0,0,1,.5-2.22,4.92,4.92,0,0,1,1-1.75,2.22,2.22,0,0,1,1.76-.71,2.63,2.63,0,0,1,1.8.53,2.24,2.24,0,0,1,.58,1.74,9.83,9.83,0,0,1-.1,1.33,8.15,8.15,0,0,1-.35,1.52c-.36,1.16-.66,2.24-.92,3.24s-.46,1.88-.62,2.62-.3,1.53-.44,2.37l1.77,0c.56,0,1.13,0,1.72,0s1.19-.06,1.83-.1,1.33-.11,2.07-.2,1.61-.21,2.21-.32l1.58-.29c.46-.09.87-.17,1.25-.22a7.27,7.27,0,0,1,1.16-.09,1.17,1.17,0,0,1,.6.16C577.82,177.1,577.91,177.36,577.91,177.78Z" transform="translate(-34.62 -42.73)" style="fill:#403e56"/><path d="M326.4,207.41a271.32,271.32,0,0,1,27.25-3.19c4.56-.34,9.13-.55,13.71-.72,2.28-.11,4.57-.12,6.86-.15s4.58-.09,6.86-.06q13.74.06,27.44,1.32a210,210,0,0,1,27.11,4.28c-9.12-.79-18.18-1.53-27.28-1.94-1.13-.07-2.27-.1-3.41-.13l-3.41-.13c-2.27-.09-4.54-.19-6.82-.2l-6.82-.16-6.82,0c-2.27,0-4.55,0-6.83,0s-4.55,0-6.82.05c-4.55,0-9.1.16-13.66.22Q340.1,206.88,326.4,207.41Z" transform="translate(-34.62 -42.73)" style="fill:#403e56"/></svg>