<svg id="explainer-arrow" xmlns="http://www.w3.org/2000/svg" viewBox="0 0 641.42 222.04"><title>explainer-arrow-long</title><g id="arrow"><path d="M547.47,70l15.22-6.57c2.53-1.09,5-2.22,7.57-3.33s5-2.23,7.54-3.36c5-2.33,10-4.56,14.89-7s9.76-4.92,14.42-7.67l.37-.22.5-.1a3,3,0,0,1,1.49.14,2.76,2.76,0,0,1,1.13.79,3.12,3.12,0,0,1,.56,1,2.71,2.71,0,0,1,.09.41,3.29,3.29,0,0,1,0,.41v.15a1.43,1.43,0,0,1,0,.29l0,.28,0,.17c0,.19-.09.31-.13.42l-.2.56-.38.92L609.69,49c-.5,1.14-1,2.23-1.56,3.34L605,58.94l-6.26,13.13c-2.07,4.38-4.12,8.75-6.07,13.15a113.83,113.83,0,0,0-5.15,13.23l-.06.21v0a5,5,0,0,1-.25.53,2.89,2.89,0,0,1-.6.74,2.68,2.68,0,0,1-1.29.67,2.87,2.87,0,0,1-.77.07,3.91,3.91,0,0,1-.58-.1,2.79,2.79,0,0,1-.42-.15l-.32-.16a3.34,3.34,0,0,1-.42-.29,5,5,0,0,1-.51-.46,11.56,11.56,0,0,1-1.09-1.4c-.58-.85-1.07-1.66-1.57-2.46-1-1.6-1.93-3.18-2.93-4.73-2-3.1-4-6.16-6.27-9.06a94,94,0,0,0-7.2-8.39,92.33,92.33,0,0,0-8.2-7.59,66.5,66.5,0,0,1,9.43,6.22,79.25,79.25,0,0,1,8.39,7.69,98.43,98.43,0,0,1,7.33,8.73c1.13,1.52,2.23,3.07,3.31,4.58.53.75,1.07,1.51,1.59,2.17a7.65,7.65,0,0,0,.69.77s0,0,0,0l-.13-.09-.17-.08a1.44,1.44,0,0,0-.26-.09,1.76,1.76,0,0,0-.4-.07,2.06,2.06,0,0,0-.6,0,2.31,2.31,0,0,0-1,.5,1.77,1.77,0,0,0-.39.47.65.65,0,0,0-.1.21l-.08.24A109.84,109.84,0,0,1,587.45,83c1.83-4.56,3.81-9,5.87-13.48s4.2-8.82,6.37-13.18l3.25-6.53,1.6-3.24.78-1.59.35-.75.12-.29s0-.06,0,0v0l0,.17a1.94,1.94,0,0,0,0,.24v.12a2.87,2.87,0,0,0,0,.38,2.74,2.74,0,0,0,.09.39,2.69,2.69,0,0,0,1.65,1.76,2.74,2.74,0,0,0,1.46.14l.88-.32c-5,2.65-10,5.08-15.13,7.26-2.56,1.08-5.13,2.15-7.72,3.16s-5.17,2-7.78,2.94q-7.83,2.84-15.76,5.28C558.17,67.16,552.85,68.69,547.47,70Z" transform="translate(-34.62 -41.7)" style="fill:#403e56"/></g><g id="tail"><path d="M574.46,83.55c-4.3,4.52-8.7,8.64-13.27,12.7s-9.23,7.94-14,11.68a282.64,282.64,0,0,1-30,20.57c-5.22,3.09-10.53,6-16,8.71s-10.95,5.22-16.58,7.44a186.88,186.88,0,0,1-34.72,10.25A186.71,186.71,0,0,0,484,143.27c5.49-2.43,10.85-5.15,16.11-8.05s10.4-6,15.43-9.26a282.25,282.25,0,0,0,28.77-21.52q6.84-5.82,13.3-12c4.28-4.13,8.51-8.45,12.34-12.83Z" transform="translate(-34.62 -41.7)" style="fill:#403e56"/></g><path d="M67.86,159C67,168.67,65,178.67,64,188.67c0,3-1,6-4,6-1,0-2-1-3-2-2-4,3-10,1-12-5-6-16-4-19,4,0,3,0,6-1,8-1,1-4,3-3,1,2-11-6-30,9-33-3,9-1,17,10,15,9-3,6-13,11-19a5.37,5.37,0,0,0,2.48,1.3A1.66,1.66,0,0,1,67.86,159Z" transform="translate(-34.62 -41.7)" style="fill:#403e56"/><path d="M107.76,174.14C105,179.67,98,177.67,93,177.67c2,10-11,19-18,14-8-6,1-22,11.07-21.14,6.93,1.13,13.93,5.14,21.62,3.14A2.8,2.8,0,0,1,107.76,174.14Zm-18.68,5.07c.93-3.56-3-4.66-5-4.73-3.92,1.84-8.85,8.68-6,11.9,2.92,4.18,10.87-1.72,11-7.15Z" transform="translate(-34.62 -41.7)" style="fill:#403e56"/><path d="M130.59,178.21c-2.8,4.24-7.19,9.1-11.89,11.78s-9.7,3.18-13.7-1.32c-7-6-2-20,8-21,3,0,5,3,5,6-1,5-6,8-10,11,3.5,4,7.5,3.25,11.43,1s7.78-6,11-8A1.26,1.26,0,0,1,130.59,178.21Zm-17.19-4.85a2.25,2.25,0,0,1-.4-1.69,14.56,14.56,0,0,0-6,9c1-2,5-3,5.89-5.22A4,4,0,0,0,113.4,173.36Z" transform="translate(-34.62 -41.7)" style="fill:#403e56"/><path d="M179.65,180.59C177,186.67,172,191.67,165,192.67c-7,0-5-8-5-12-5,5-11,10-13,17a3.67,3.67,0,0,0-3-1c0-11,2-23,3-34,11,4,0,16,2,24,3-3,4-8,8-10,9-3,5,8,9,10,6,3,8-7,13.62-6.44A2.6,2.6,0,0,1,179.65,180.59Z" transform="translate(-34.62 -41.7)" style="fill:#403e56"/><path d="M202.82,177.57c-4.82,7.1-9.82,18.1-19.82,16.1-6,0-8-7-7-13s7-13,11-10c9,5-8,13-3,18,7,6,12-9,18.66-11.62A1.06,1.06,0,0,1,202.82,177.57Zm-16.77-2.31c-.56.38-.56-.62-.56-1.61-3,2.23-4,6.32-4.93,9.43a13.45,13.45,0,0,0,5-5.57A5.44,5.44,0,0,0,186.05,175.26Z" transform="translate(-34.62 -41.7)" style="fill:#403e56"/><path d="M222.59,172.73c-2.59,4.94-9.59,2.94-13.59,4.94-6,3-4,12-3,18,0,2-3,2-4,1-6-5,4-19-7-18,4-6,12-7,11-16-1-1,2-3,4-2,3,4-3,8-1,12,4,4,9-2,13.31-.72C222.5,172.06,222.59,172.32,222.59,172.73Z" transform="translate(-34.62 -41.7)" style="fill:#403e56"/><path d="M270.6,179.06c-2.6,3.61-4.6,7.61-9.6,10.61-6,4-11-2-9-8-5,5-11,16-17,9-7-6,0-16,7-21,4-2,8-1,10,3,1-4-2-10,2-13,3-1,4,2,4,4-2,7-6,14-1,19,4,5,8-3,13.36-4.8A2.21,2.21,0,0,1,270.6,179.06ZM247.1,181c2.52-1.5.5-5.61-.51-8.66-6.05,3.68-8.07,9.61-9.06,15.65,4,.19,6-3.77,8.3-5.61Z" transform="translate(-34.62 -41.7)" style="fill:#403e56"/><path d="M307.61,178.82a22.6,22.6,0,0,1-7.29,9.61c-2.32,2.24-4.32,3.24-7.32,3.24s-6-1-7-7c-4,4-8,12-14,9-7-3-6-18,0-18,7-1-1,10,2,12,9,4,9-11,15-15,2,4,0,9,2,12,5,8,10-5,16.39-6.26A.67.67,0,0,1,307.61,178.82Z" transform="translate(-34.62 -41.7)" style="fill:#403e56"/><path d="M326.4,181.07a35.74,35.74,0,0,1-10.72,13A31.11,31.11,0,0,1,300,200.67c4-4,5.75-6.75,6.25-9.88s-.25-6.62-1.25-12.12c-1-3,4-8,7-5,2,3-3,5-3,7-1,3,2,6,4,9,4-3,8-8,13.36-8.87A1.82,1.82,0,0,1,326.4,181.07Z" transform="translate(-34.62 -41.7)" style="fill:#403e56"/><path d="M378.62,183C376,188.67,371,195.67,363,195.67c-6-1-5-8-7-13-6,2-6,12-12,11s-4-13,0-18c1,0,4-1,4,1a20.16,20.16,0,0,1-3,11c5-4,7-12,14-10,5,3,1,10,5,12,6,4,8-8,14.53-7.17A1.15,1.15,0,0,1,378.62,183Z" transform="translate(-34.62 -41.7)" style="fill:#403e56"/><path d="M398.54,186.23C396,192.67,391,196.67,385,199.67c-6,2-9-5-10-10,0-4,0-12,5-11,5,2-3,13,3,15s9-7,15.31-8.4A2.58,2.58,0,0,1,398.54,186.23Zm-13.32-19.81c-.22,4.25-7.22,4.25-6.22,1.25,0-1,2-4,4-4,1,0,1,1,2,1.58A2.92,2.92,0,0,1,385.22,166.42Z" transform="translate(-34.62 -41.7)" style="fill:#403e56"/><path d="M422.81,186.3C418,194.67,406,205.67,398,196.67c-6-5-3-15,3-20,3-2,8-2,9,3,1,8-10,10-8,13,4,9,14-4,20.64-6.91A1.23,1.23,0,0,1,422.81,186.3Zm-17.15-4.92c.34-.71.34-1.71-.66-1.71-4,1-4,5-5,9a12.59,12.59,0,0,0,5.1-5.08A4.8,4.8,0,0,0,405.66,181.38Z" transform="translate(-34.62 -41.7)" style="fill:#403e56"/><path d="M442.82,181.94C434,187.67,419,187.67,426,202.67c1,2-3,3-4,2-7-7,6-18-7-18v-3c10,3,8-8,12-14,2-3,4,0,4,1,0,4-2,8-3,12,5,1,10-2,14.54-1.53C442.73,181.25,442.83,181.51,442.82,181.94Z" transform="translate(-34.62 -41.7)" style="fill:#403e56"/><path d="M506.54,182.08C502,187.67,499,196.67,490,193.67c-4-1-2-7-4-10-5,4-4,14-12,12-3-1-2-7-2-11-7,2-9,22-15,12-2-4-2-13,3-18,1,0,3,0,3,1,1,5-2,9-2,14,3-5,5-14,12-14,5,0,4,7,4,11,5-4,5-16,13-12,4,1-3,12,5,11,4,0,7-6,10.81-8.6C506.3,181.06,506.54,181.39,506.54,182.08Z" transform="translate(-34.62 -41.7)" style="fill:#403e56"/><path d="M535,178.68a2.47,2.47,0,0,1-.17.85,4,4,0,0,1-.46.87,6,6,0,0,1-.66.77,5.21,5.21,0,0,1-.76.61,7.89,7.89,0,0,1-2.34.94,14.82,14.82,0,0,1-3.72.41,10.76,10.76,0,0,1-1.34-.09c-.47-.06-.95-.15-1.43-.25a13.88,13.88,0,0,1-1.44-.39c-.47-.16-.93-.34-1.36-.53a1.57,1.57,0,0,1,.22.55,4.11,4.11,0,0,1,.13.73c0,.25,0,.5,0,.73s0,.41,0,.55a8.41,8.41,0,0,1-.5,2.86,13.29,13.29,0,0,1-1.34,2.73C517,195.67,509,199.67,503,195.67a7.58,7.58,0,0,1-2-4c0-6,3-11,8-15,4-3,7-4,10.56.35a4,4,0,0,0,1,.54,17.34,17.34,0,0,0,1.9.7c.73.24,1.51.44,2.31.62a10.29,10.29,0,0,0,2.21.27l1.9,0a13.85,13.85,0,0,0,1.81-.17,15,15,0,0,0,1.91-.45,18,18,0,0,0,2.21-.84,1.38,1.38,0,0,1,.17.52A2.77,2.77,0,0,1,535,178.68Zm-17.43,5.06c.42-3.07-2.58-5.07-4.58-4.07-4,2-9,9-5,12,3,4,8-3,9.58-7.91Z" transform="translate(-34.62 -41.7)" style="fill:#403e56"/><path d="M558,181.87a3.86,3.86,0,0,1-.61,1.48,38.56,38.56,0,0,1-2.59,3.34,37.39,37.39,0,0,1-3,3.13,36.46,36.46,0,0,1-3.37,2.75,26.39,26.39,0,0,1-3.55,2.19,20.21,20.21,0,0,1-3.58,1.45,12.39,12.39,0,0,1-3.5.53,8,8,0,0,1-6-2.17c-1.43-1.44-2.15-3.63-2.15-6.55a24.54,24.54,0,0,1,.25-3.44,18.82,18.82,0,0,1,.82-3.35,18.38,18.38,0,0,1,3.76-6.35,8.6,8.6,0,0,1,1.16-1.07,9.55,9.55,0,0,1,1.41-.93,9.9,9.9,0,0,1,1.58-.65,5.73,5.73,0,0,1,1.62-.24,4.41,4.41,0,0,1,2.06.45,4.18,4.18,0,0,1,1.43,1.2,5.24,5.24,0,0,1,.83,1.73,7.63,7.63,0,0,1,.27,2,7.35,7.35,0,0,1-1.49,4.15,23.09,23.09,0,0,1-4.11,4.39c-.57.48-1.22,1-2,1.56l-2.52,1.9a2.48,2.48,0,0,0,.33,1.05,2.84,2.84,0,0,0,.76.87,3.82,3.82,0,0,0,1.16.58,5.15,5.15,0,0,0,1.53.21,10.34,10.34,0,0,0,2.33-.28,16,16,0,0,0,2.45-.75,21,21,0,0,0,2.36-1.09,19.66,19.66,0,0,0,2.09-1.29,37.1,37.1,0,0,0,3.2-2.57c1-.92,2-1.86,3-2.82l1.19-1.19a3.54,3.54,0,0,1,2.12-1.1.63.63,0,0,1,.61.3A1,1,0,0,1,558,181.87Zm-17.52-4.13a4.19,4.19,0,0,0-.1-1,.82.82,0,0,0-.32-.56,2.77,2.77,0,0,0-1.63.65,7.11,7.11,0,0,0-1.65,1.86,13.65,13.65,0,0,0-1.41,2.89,19.1,19.1,0,0,0-.91,3.77c.71-.53,1.41-1.08,2.12-1.65a17.79,17.79,0,0,0,1.94-1.81,9.77,9.77,0,0,0,1.41-2A4.67,4.67,0,0,0,540.51,177.74Z" transform="translate(-34.62 -41.7)" style="fill:#403e56"/><path d="M577.91,177.78a1.69,1.69,0,0,1-.18.78,2.52,2.52,0,0,1-.45.62,3.68,3.68,0,0,1-.6.51c-.21.15-.42.28-.61.4a16.79,16.79,0,0,1-2.17.79c-.77.23-1.54.42-2.3.57s-1.51.29-2.24.4l-2,.27-1.31.14-1.34.15-1.21.13c-.37.05-.7.09-1,.14q-.49,1.9-.93,3.66t-.75,3.3c0,.18-.08.43-.14.74l-.19,1c-.06.37-.13.76-.19,1.17s-.11.81-.17,1.17-.09.7-.12,1,0,.51,0,.66a1.9,1.9,0,0,0,.24,1.11,2.86,2.86,0,0,0,.5.53,5.75,5.75,0,0,1,.75.7,1.32,1.32,0,0,1,.3.92,1.31,1.31,0,0,1-.31.84,3.14,3.14,0,0,1-.79.69,4.91,4.91,0,0,1-1,.47,3.22,3.22,0,0,1-1,.18,2.77,2.77,0,0,1-1.46-.39,3.85,3.85,0,0,1-1.12-1.05,4.63,4.63,0,0,1-.72-1.48,5.8,5.8,0,0,1-.25-1.71,26.23,26.23,0,0,1,.23-3.26,32.74,32.74,0,0,1,.65-3.57c.12-.52.25-1.1.39-1.73s.27-1.22.39-1.79.23-1.08.32-1.52l.18-.89c-.32,0-.77.06-1.36.14a18,18,0,0,1-2.1.11,10.3,10.3,0,0,1-1.71-.12,2.82,2.82,0,0,1-1.14-.46,2,2,0,0,1-.66-.92,4.93,4.93,0,0,1-.2-1.53,1.11,1.11,0,0,1,.38-.87,2.67,2.67,0,0,1,.95-.49,6.22,6.22,0,0,1,1.17-.23c.4,0,.76-.05,1.07-.05.15,0,.42,0,.79-.06l1.22-.11,1.28-.11c.42,0,.73-.06,1-.06.07,0,.17-.14.28-.42a11.59,11.59,0,0,0,.35-1.11c.12-.44.24-.94.37-1.49s.25-1.08.37-1.62.23-1,.32-1.47.18-.8.24-1.05a20.18,20.18,0,0,0,.42-2.11,13.84,13.84,0,0,1,.5-2.22,4.92,4.92,0,0,1,1-1.75,2.22,2.22,0,0,1,1.76-.71,2.63,2.63,0,0,1,1.8.53,2.24,2.24,0,0,1,.58,1.74,9.83,9.83,0,0,1-.1,1.33,8.15,8.15,0,0,1-.35,1.52c-.36,1.16-.66,2.24-.92,3.24s-.46,1.88-.62,2.62-.3,1.53-.44,2.37l1.77,0c.56,0,1.13,0,1.72,0s1.19-.06,1.83-.1,1.33-.11,2.07-.2,1.61-.21,2.21-.32l1.58-.29c.46-.09.87-.17,1.25-.22a7.27,7.27,0,0,1,1.16-.09,1.17,1.17,0,0,1,.6.16C577.82,177.1,577.91,177.36,577.91,177.78Z" transform="translate(-34.62 -41.7)" style="fill:#403e56"/><path d="M326.4,207.41a271.32,271.32,0,0,1,27.25-3.19c4.56-.34,9.13-.55,13.71-.72,2.28-.11,4.57-.12,6.86-.15s4.58-.09,6.86-.06q13.74.06,27.44,1.32a210,210,0,0,1,27.11,4.28c-9.12-.79-18.18-1.53-27.28-1.94-1.13-.07-2.27-.1-3.41-.13l-3.41-.13c-2.27-.09-4.54-.19-6.82-.2l-6.82-.16-6.82,0c-2.27,0-4.55,0-6.83,0s-4.55,0-6.82.05c-4.55,0-9.1.16-13.66.22Q340.1,206.88,326.4,207.41Z" transform="translate(-34.62 -41.7)" style="fill:#403e56"/><path d="M140.29,238.88c-2.94,4.84-6.71,10.87-12.74,10.12-3,0-3-4.53-3.77-6.79-3.77,4.53-5.28,13.57-12.06,10.56-7.54-2.27.75-12.82,4.52-18.09,2.26-2.27,6.78-3,8.29.75,1.51-3,0-7.54,3-10.55,5.27,5.27-3,15.83.75,19.59,3,2.27,6.78-5.27,11.81-6.49A1.52,1.52,0,0,1,140.29,238.88Zm-19.63,3.5c1.68-1.27.91-3.77.9-5.36s-1.52-.88-2.27-.9c-3,4-6.67,8.31-6.56,14.34,2.94-1.85,5.16-3.59,6.88-6.72C120,243.17,120.39,242.72,120.66,242.38Z" transform="translate(-34.62 -41.7)" style="fill:#403e56"/><path d="M161.32,241.12A22,22,0,0,1,150,250.6c-4.39,1.41-8.92.66-11.93-3.86-2.26-3-1.7-7.17.28-10.18s5.37-4.9,8.77-3.39c7.55,3.76-2.27,8.29-5.28,12.81,3.39,2.64,6.41,1.7,9.46,0s6.2-4.38,9.85-5.2A.81.81,0,0,1,161.32,241.12Zm-14.75-4.74c-5.59-2.74-2.46,4.92-5.61,5.05,1.57-1.26,3.94-1.53,5.1-3.49A2.79,2.79,0,0,0,146.57,236.38Z" transform="translate(-34.62 -41.7)" style="fill:#403e56"/><path d="M187.46,238.94c-.36,7-.36,14.58-4.89,20.61a8,8,0,0,1-14.32-3.77c3,0,5.28,3,8.29,3,6.79-.76,5.28-8.3,6.79-12.82-3.77,2.26-8.29,8.29-10.56,3.77-3.77-6.78,4.53-15.83,12.82-14.32.75,0,3,0,1.87,3.5Zm-3.93,3.14a20.05,20.05,0,0,0,.27-5c-5.05,2.54-6.69,5.77-7.48,10.42,2.56-1.25,5.13-1.84,7-4.65A2,2,0,0,0,183.53,242.08Z" transform="translate(-34.62 -41.7)" style="fill:#403e56"/><path d="M212.68,238.87c-4.48,6.36-14.28,16.91-21.06,8.62-3-5.28.75-10.55,4.52-14.32,2.26-1.51,4.52-1.51,6,0,3,5.27-4.52,9-7.54,12.81,8.3,3,11.31-6,17.92-7.48A.72.72,0,0,1,212.68,238.87Zm-13.05-2.64a6.86,6.86,0,0,0,.05-1.16c-3.32.11-4,4.51-4.76,6.89,1.65-1.17,2.43-2.81,4.31-4.21A3,3,0,0,0,199.63,236.23Z" transform="translate(-34.62 -41.7)" style="fill:#403e56"/><path d="M246.06,239.14c-1.5,4.27-5.44,9.05-9.39,9.13-4.71.88-5.51-5.07-4.75-9-3.11,2.74-3.87,12-9.3,8.7-2.31-2.13,0-6-1.55-8.93-2.29,3.84-4.57,12.16-8.35,9.91-5.27-2.26-1.5-9.8,0-14.32H215c1.51,3,0,6.78-.76,9.79,3-3,3.78-11.31,9.9-7.85,3.1,1.9,1.57,5.08.8,7.42,3.1-2.62,3.82-10.92,9.31-8.11,2.37,1.76,0,7.47,2.42,8.51,3.16.85,5.51-3.49,8.87-6.08C245.87,238.37,246.05,238.63,246.06,239.14Z" transform="translate(-34.62 -41.7)" style="fill:#403e56"/><path d="M261.26,240.75c-2.45,4.58-7.22,11.35-11.95,10.89-6.33-.08-5.55-8.8-4.8-14.23,0-.74,2.34-2.77,3.14-2.23,3.21,2.9-3.08,12.08,3.25,12.09,3.17,0,6.32-6.23,10.18-7.26A2,2,0,0,1,261.26,240.75Zm-10.44-13.3c.35,3.46-3.42,3.46-4.93,1.19-.75-3,2.26-3,4.71-1.89A1.45,1.45,0,0,1,250.82,227.45Z" transform="translate(-34.62 -41.7)" style="fill:#403e56"/><path d="M285.06,240.68c-2,3.85-4.35,7.89-8.2,10.43-4.58,1.64-6.85-3.62-6.09-7.4-3,4.53-7.54,12.82-12.06,7.55-2.64-2.64-2.27-7-.19-10.65s5.84-6.69,10-6.69c1.51,0,2.27,1.51,2.27,3,.75-3,0-9.05,2.26-9.05,6,2.26-3,10.55.75,16.58,4.52,5.28,6.79-3,11.1-4.71A1.7,1.7,0,0,1,285.06,240.68Zm-17.17,2.51c.32-2.19,1.07-6.14-.49-5.84-4.69.91-5.45,6.47-6.25,11.46a7.72,7.72,0,0,0,5.84-4.53Z" transform="translate(-34.62 -41.7)" style="fill:#403e56"/><path d="M309.93,240a17.18,17.18,0,0,1-5,7.66c-2.35,2.08-5.18,3.22-7.82,2.09-1.51-1.51-1.51-4.52-1.51-6.78-3.77,3.77-7.54,12.81-12.06,10.55-7.54-4.52.75-19.6,9.05-19.6,1.5-.75,2.26,1.51,3,3,.75-3.77-1.51-8.3,1.51-11.31.75-.75,2.26,0,3,.75,1.13,3.4-.56,7.54-1.5,11.12s-1.13,6.6,3,7.73c2.27.74,4.54-5.32,8.09-6.17A1.9,1.9,0,0,1,309.93,240Zm-17.72,3.15c1-2.36,1.82-4.77-.55-6.63-2.35,4.15-8.61,6.49-5.51,13.78,1.57-1.75,3.93-3.63,5.08-5.9Z" transform="translate(-34.62 -41.7)" style="fill:#403e56"/><path d="M328.59,241c-3.55,5.73-8.07,13.26-15.61,11.76-9.8-1.51-7.54-13.57-2.26-18.85,2.26-1.51,6.78-2.26,7.53,1.51.76,5.28-4.52,8.29-7.53,11.31,6.78,5.27,12.81-3,17.75-6.18A1.08,1.08,0,0,1,328.59,241Zm-13.15-4.13c-5.45-1.54-3.16,4.41-4.68,6,1.52-1.54,3-3.08,4.27-4.22A3.86,3.86,0,0,0,315.44,236.88Z" transform="translate(-34.62 -41.7)" style="fill:#403e56"/><path d="M342.67,244c-1.05,4.2-4.06,9.48-9.34,10.23a7.35,7.35,0,0,1-7.54-6c-1.51-7.53.76-15.07,3.77-21.86h2.26c2.26,7.54-6,14.33-.75,21.86,3.77,5.28,6.78-3.77,11.44-4.85A1.12,1.12,0,0,1,342.67,244Z" transform="translate(-34.62 -41.7)" style="fill:#403e56"/><path d="M367,245.62c-2.77,4.13-6.54,11.67-12.57,7.9-2.27-2.26-.76-5.28-.76-7.54-3,4.52-9,14.32-13.57,7.54-3.76-5.28.76-12.06,6-15.83a5.85,5.85,0,0,1,7.54,1.51c.76-3-.75-6.79,2.26-9.8,4.53,5.28-1.5,11.31,0,17.34,2.26,6.78,6.79-1.51,10.91-2.08A2,2,0,0,1,367,245.62Zm-16.93.64c2.2-2.67.74-4.4,0-6.83-3.73,2.17-8.32,7-7,13,1.55-1.73,4.57-2.5,6-5.08Z" transform="translate(-34.62 -41.7)" style="fill:#403e56"/><path d="M384.75,249.26c-3.18,6.52-16,14.06-19.76,4.26a12.29,12.29,0,0,1,5.28-15.08c3.76-1.5,5.27,3,5.27,5.28-.75,3.77-3.77,6.78-7.54,8.29,4.53,6.79,12.06-.75,16.63-3.19A1.12,1.12,0,0,1,384.75,249.26Zm-12.5-5.85c-5.21-1.87-2.95,3.36-4.45,4.87,1.5-.75,3-.74,4-3.22A3.42,3.42,0,0,0,372.25,243.41Z" transform="translate(-34.62 -41.7)" style="fill:#403e56"/><path d="M430.88,240.59c-2.32,3.91-7.6,2.4-10.61,3.16-3.77.75-1.51,9-5.28,10.55-5.28,2.26-6-6-6.79-9.8-2.26,3.77-2.26,10.55-6,10.55-4.52-.75-9-15.07-3.76-15.07,3.76-.76.75,6.78,3.76,10.55,3-2.26,3-15.07,7.54-9.8,2.26,2.26,1.51,6.79,3.77,10.56,2.26-3.77,1.51-10.56,5.28-12.07,3.77-.75,7.54,2.27,12.07.92A1.75,1.75,0,0,1,430.88,240.59Z" transform="translate(-34.62 -41.7)" style="fill:#403e56"/><path d="M447.06,242.82c-3.26,4.82-7,9.34-12.3,10.89a9.09,9.09,0,0,1-2.63.4c-1.31.19-3.57.19-4.33-1.32-4.52-6-.75-15.83,6.19-17.34a3.25,3.25,0,0,1,1.55.34c3.73,2.8.72,7.32-2.31,10.19-.9.78-2.41,1.54-3.17,2.29-.75,1.51.76,2.26,2.63,2.37,6.58,0,8.85-6,14.26-8.21A1,1,0,0,1,447.06,242.82Zm-12.88-3a3.22,3.22,0,0,0-.08-.71.6.6,0,0,0-.24-.43c-3,1.33-3.8,4.34-4.55,6.61,3,0,3-3,4.45-3.81A3.47,3.47,0,0,0,434.18,239.79Z" transform="translate(-34.62 -41.7)" style="fill:#403e56"/><path d="M467.33,242.32c-4.69,6.07-11.47,9.84-17.5,14.36-.76-.75-2.26-.75-1.51-2.26,3-4.52,12.81-9.8,6.78-12.06-3.77-1.51-5.27,6.78-7.53,12.06a1.45,1.45,0,0,1-2.27-.75c.76-7.54-1.5-21.86,5.28-25.63,1.51,6-3,10.55-1.51,16.58a12,12,0,0,1,5.28-6.78,3.4,3.4,0,0,1,3.77,0,6.89,6.89,0,0,1,1.51,8.29c3-.76,3.77-5.28,7.51-4.66A1.68,1.68,0,0,1,467.33,242.32Z" transform="translate(-34.62 -41.7)" style="fill:#403e56"/><path d="M479.2,242.79c-4.5,5.6-8.27,14.65-15.8,14.65-.76,0-.76-1.51-.76-2.27.76-1.5,3-1.5,4.52-3,2.27-.75,0-3.77-1.5-6-.76-3.77,0-9.8,5.27-9-.75,4.53-4.52,9.8,0,11.31,2.26.75,3.77-5.28,8.25-5.8C479.19,242.7,479.2,242.77,479.2,242.79Z" transform="translate(-34.62 -41.7)" style="fill:#403e56"/><path d="M492,244.64c-2.25,4.5-6.78,12-12,9.78-4.52-2.26-5.28-12.06,0-15.83,2.26,4.52-2.26,10.55,1.51,12.06,3,1.51,6.78-4.52,9.8-7.54.75-.75.75,0,.62.81A2.11,2.11,0,0,1,492,244.64Zm-7.75-14.3a3.4,3.4,0,0,0-.53,2.22c-1.51,1.51-3.77.75-3.77-.75s2.26-4.53,4.27-2.33A2.38,2.38,0,0,1,484.28,230.34Z" transform="translate(-34.62 -41.7)" style="fill:#403e56"/><path d="M506.82,240.91c-6.49,2.2-16.29,7.48-12.52,16.53,0,.75-3,0-3.77-1.51-.75-3.77.76-7.54,1.51-11.31-1.51,2.26-3,0-4.52,0,0-.75-.76-3,.75-3,8.28,2.25,3-11.31,10.54-9.81,1.49.75-3.76,6.79-1.51,8.29,1.49,2.26,5.91.73,9.37.21C506.8,240.39,506.85,240.59,506.82,240.91Z" transform="translate(-34.62 -41.7)" style="fill:#403e56"/><path d="M523.2,244c-3.27,4.41-7,9.69-13.07,11.19-3.77.76-8.29-.75-9.05-4.52a13.23,13.23,0,0,1,8.3-14.32c2.26-.75,4.52,2.26,3.76,4.52a21.2,21.2,0,0,1-6.78,7.54c-.75.75,0,2.26.75,3,6.79,1.5,9.8-6,16-7.83A.84.84,0,0,1,523.2,244Zm-13.4-3.09c-5.13-1.58-2.33,5.19-5.17,6,1.43-1.51,3.55-2.27,4.61-4.28A3.9,3.9,0,0,0,509.8,240.89Z" transform="translate(-34.62 -41.7)" style="fill:#403e56"/><path d="M548.19,245.78c-3.49,4-5.25,10.75-10.51,11.52-1.78,0-4.71-1.52-4.71-3.78-.59-3.77-2.35-11.31,1.77-11.3,2.92,3-.6,12.81,5.26,9.79,2.94-1.51,4.7-6,8-6.94A2.11,2.11,0,0,1,548.19,245.78Zm-8.32-13.86c-.3,3.59-4.6,3.54-4.52,2-.41-2.26,3-5.25,4.48-2.89A2.14,2.14,0,0,1,539.87,231.92Z" transform="translate(-34.62 -41.7)" style="fill:#403e56"/><path d="M572.75,243.8c-1.67,5.95-6.94,10.47-12.22,10.47-3.52,0-1.17-8.29-4.69-8.29-2.93.75-4.11,6-7,6-2.93.75-2.93-4.52-2.93-7.54.59-3,3.52-5.27,4.69-3.77,2.35,1.51-1.17,5.28-1.17,8.29,2.34-3.76,7-11.3,8.79-6.78,4.69,10.55,9.39,5.28,14.51,1.22A.92.92,0,0,1,572.75,243.8Z" transform="translate(-34.62 -41.7)" style="fill:#403e56"/><path d="M609.71,253c-7.72,5.75-16.77,1.15-25.06,4.83-.76,0-1.51-1.84-.76-2.76,4.53-7.36,14.33-6.44,15.83-15.64,2.27-11-6.78-3.67-11.3-1.83,0-9.2,10.55-11,15.07-6.44,6.79,8.27-3.77,18.39-10.55,20.23,5.28,0,11.31-.92,16.63,1A1.39,1.39,0,0,1,609.71,253Z" transform="translate(-34.62 -41.7)" style="fill:#403e56"/><path d="M633.77,240.53c-.88,10.83-12.19,20-20.48,15.43-6-4.6-2.26-13.8.76-19.31,5.27-9.2,15.07-11,19.32-.11A18.44,18.44,0,0,1,633.77,240.53Zm-3.77.58c.63-5.38-3.89-9.06-7.66-7.22-5.28,2.76-11.31,15.63-4.52,18.39,3.76,1.84,9.79-4.6,11.92-9.85A3.91,3.91,0,0,0,630,241.11Z" transform="translate(-34.62 -41.7)" style="fill:#403e56"/><path d="M657.45,250.23c-3.45,3.44-7.45,4.44-11.74,5.73a3.77,3.77,0,0,0-1.61-.07c-2.81.45-6.06,3.13-6.69.07-1.5-4.6,5.28-2.76,6-4.6,2.27-4.6,1.51-11,3-16.55-3,0-7.54,6.43-8.29,1.84,0-4.6,7.54-7.36,10.55-7.36,4.52,1.84-1.51,13.79-.75,21.15,1.5-.46,3-1.38,4.48-1.81a5,5,0,0,1,1.46-.24,6.42,6.42,0,0,1,3.13,1.17A3,3,0,0,1,657.45,250.23Z" transform="translate(-34.62 -41.7)" style="fill:#403e56"/><path d="M676,234.64a3.82,3.82,0,0,1-.12.86,8.77,8.77,0,0,1-.32,1.11c-.32.95-.62,1.84-.88,2.66s-.46,1.53-.61,2.11-.39,1.63-.65,2.75c-.09.37-.18.77-.27,1.18-.35,1.91-.6,3.78-.91,5.58-.1.6-.21,1.19-.34,1.77a25.45,25.45,0,0,1-1.52,3.73c-.31.63-.65,1.24-1,1.84A14.67,14.67,0,0,1,668,260a13.43,13.43,0,0,1-1.59,1.44C662,265.67,656,263.67,655,258.67c6-1,12-1,13-8.5.13-.37.25-.75.37-1.12.37-1.12.71-2.24,1-3.36.14-.52.25-.95.32-1.3-.36.27-.73.52-1.13.77s-.79.47-1.18.68c-.37.83-1.37.83-2,.87a15.47,15.47,0,0,1-1.62.29c-1.71-.33-3.71-.33-4.39-1.19a5.48,5.48,0,0,1-.85-1.63c-1.05-3.07-.3-7.71,2.49-9.54q1.14-1.21,3.17-3a3.14,3.14,0,0,1,.61-.38c.28-.15.61-.3,1-.46s.78-.31,1.2-.45.86-.28,1.27-.39.82-.22,1.19-.29a4.63,4.63,0,0,1,1-.12,4.32,4.32,0,0,1,1.26.17,3.82,3.82,0,0,1,1,.46,4.83,4.83,0,0,1,.86.73c.28.28.58.6.89,1l.15.17.14.16a7.52,7.52,0,0,1,1,1,4,4,0,0,1,.21.5,7.14,7.14,0,0,1,.22.84Zm-4.18.44a1.52,1.52,0,0,0-.39-.57,1.94,1.94,0,0,0-.52-.34,2.43,2.43,0,0,0-.6-.17c-.2,0-.4,0-.59,0a9.86,9.86,0,0,0-1.28.08,4.34,4.34,0,0,0-1.1.28,6.62,6.62,0,0,0-1.09.6,10.81,10.81,0,0,0-1.23,1,12.06,12.06,0,0,0-.94,1,10.44,10.44,0,0,0-1,1.32,9.33,9.33,0,0,0-.8,1.44,3.39,3.39,0,0,0-.32,1.34,2.68,2.68,0,0,0,.51,1.69,1.59,1.59,0,0,0,1.32.66,4,4,0,0,0,1.21-.24,11.42,11.42,0,0,0,1.52-.67,13.9,13.9,0,0,0,1.6-.94,14.21,14.21,0,0,0,1.44-1.08,6.88,6.88,0,0,0,.71-.68,3.17,3.17,0,0,0,.38-.54,2.73,2.73,0,0,0,.2-.48c0-.16.1-.35.15-.55Z" transform="translate(-34.62 -41.7)" style="fill:#403e56"/><path d="M593.24,192.76a3.61,3.61,0,0,1,0,.6l-.15.88a2.31,2.31,0,0,1-.45.84,7.92,7.92,0,0,1-1,1.08,8.9,8.9,0,0,1-1.17.92,2,2,0,0,1-1.08.39,4.45,4.45,0,0,1-1.57-.23,1.8,1.8,0,0,1-.89-.73,3.07,3.07,0,0,1-.39-1.23,14.19,14.19,0,0,1-.09-1.72c0-.29,0-.55,0-.77a1.8,1.8,0,0,1,.59-1.18,4.8,4.8,0,0,1,.75-.58,3.19,3.19,0,0,1,1.75-.66,6.23,6.23,0,0,1,1.26.14,4.22,4.22,0,0,1,1.19.43,2.8,2.8,0,0,1,.89.74A1.72,1.72,0,0,1,593.24,192.76Zm.54-14.67a2.55,2.55,0,0,1-.3,1.14,3.27,3.27,0,0,1-.88,1.1,4.77,4.77,0,0,1-1.35.82,4.59,4.59,0,0,1-1.78.33,2.34,2.34,0,0,1-1.89-1.37v0a4.06,4.06,0,0,1-.74-2,1.86,1.86,0,0,1,.17-.63,6.23,6.23,0,0,1,.44-.84,8,8,0,0,1,.58-.82,3.52,3.52,0,0,1,.59-.58l0,0a3.2,3.2,0,0,1,1.93-.49,1.17,1.17,0,0,1,.47.11c.18.07.36.16.54.25l.48.25.26.15c.37.27.66.49.86.66a2.4,2.4,0,0,1,.45.48.9.9,0,0,1,.17.48c0,.18,0,.42,0,.72Z" transform="translate(-34.62 -41.7)" style="fill:#403e56"/></svg>