<?xml version="1.0" encoding="utf-8"?>
<!-- Generator: Adobe Illustrator 23.0.1, SVG Export Plug-In . SVG Version: 6.00 Build 0)  -->
<svg version="1.1" id="Layer_1" xmlns="http://www.w3.org/2000/svg" xmlns:xlink="http://www.w3.org/1999/xlink" x="0px" y="0px"
	 viewBox="0 0 1388 1110.7" style="enable-background:new 0 0 1388 1110.7;" xml:space="preserve">
<style type="text/css">
	.st0{opacity:0.3;}
	.st1{clip-path:url(#SVGID_2_);}
	.st2{fill:none;stroke:#DDDDFF;stroke-miterlimit:10;}
</style>
<title>lines</title>
<g>
	<g id="Layer_1-2">
		<g class="st0">
			<g>
				<defs>
					<rect id="SVGID_1_" width="1388" height="1021.4"/>
				</defs>
				<clipPath id="SVGID_2_">
					<use xlink:href="#SVGID_1_"  style="overflow:visible;"/>
				</clipPath>
				<g class="st1">
					<g>
						<path class="st2" d="M843.5-460.5l41.5,36.3c18.8,18,37.7,35.9,56.5,53.8c18.8,17.8,37.7,35.6,56.7,53.2
							c15.7,11.6,30.7,24.4,46.7,35.8c85,52.2,172,84.1,249,160.5c68,66.2,112,149,174,221.6c15,17.8,31,31.8,47.3,47.9
							c21,18.6,42.4,36.8,64,54.8c108,90,221.3,175.4,328.6,266.7c19.1,16.6,37.8,32.8,55.9,48.7l310.7,271.7"/>
						<path class="st2" d="M823.2-442.7l41.5,36.3c11.8,7.4,21.1,19.5,30.4,29c16.8,15.3,32.9,30.7,48.7,46.2s31.3,30.9,47.5,45.6
							c10.7,9.3,21.7,16.9,32.7,24.5c74,49.7,152,68.8,225,126.1c86,70,133,175.8,204,263.6c28,33.1,57,61.1,88.8,88
							c20.4,17.9,41.2,35.6,62.4,53c21.2,17.4,43,34.6,65.5,51.5c94.3,71.6,187.1,139.2,273.7,215.2l52.7,46.1l258,225.6"/>
						<path class="st2" d="M802.9-424.9c0,0,27.6,24.1,71.3,65.9c15.3,14.3,29.6,29.2,43.6,44.4s27.5,30.6,41.7,45.6
							c22.5,20.8,46.5,38.6,73.5,50.1c116,49.7,233,91.7,309,230.5c41,72.6,76,140.1,127.6,193c19.7,18.8,40.3,36.6,61.5,54
							c84.5,69.5,175.7,134.4,271.6,199.3c43.3,31.1,80.4,63.5,120.4,96.5l52.8,46.1l258,225.6"/>
						<path class="st2" d="M782.5-407.1c0,0,27.3,24.1,68.3,66c11.5,11.7,22.5,23.7,33.1,35.9s21,24.4,31.2,36.8
							c29.9,36.7,65.9,66,106.9,81.3c109,40.8,223,66.2,293,197.4c56,103.2,95,212.7,179.8,273.7c20.3,17,41.5,33.5,63.6,49.5
							c117.5,83.8,238.1,151.4,344.3,238.9c18.2,15.5,35.8,30.9,52.8,45.8l258,225.6"/>
						<path class="st2" d="M762.1-389.4c24.7,21.4,44.8,45.7,68,70c12.8,14.9,24.5,29.8,35.7,44.7s22.1,29.7,33.2,44.2
							c21,27.9,47,48.3,76,59.7c126,47.1,270,70.1,337,234.4c39,96.8,78,196.1,153.8,252.1c12.4,10.3,25.1,20.3,38.1,30.3
							s26.3,19.7,39.9,29.3c27.3,19.1,55.8,37.6,85.7,55.4c88.1,51.4,170.1,94.6,244.3,153.7c31.1,25.1,60.6,50.8,88.3,75l231.1,202
							"/>
						<path class="st2" d="M740.8-371.4c15,13.9,28.9,29.1,41.4,45.3c18.5,24.3,34.8,48,51.1,70.9s32.8,45.2,52.3,66.1
							c22.4,22.2,46.4,38.8,72.4,49c113,48.4,246,52.2,317,197.4c51,103.2,76,225.4,159.1,289.5c12.3,10.6,24.8,20.9,37.7,30.9
							c79.1,62.4,166.6,113.5,259.8,151.6c46.4,18.9,83.5,47.3,121.6,75.1c31.3,23.2,60.9,48.5,88.5,72.7l231.1,202"/>
						<path class="st2" d="M717.8-353.2c42.5,41.6,68.8,90.8,97.5,140.7c9.6,16.6,19.4,33.4,30.3,49.8C872-127.4,908-113.4,943-99.3
							c81,33.1,164,34.4,239,96.8c79,67.5,95,180.8,136,278.9c16,36.9,34,68.8,57.9,96.4c11.7,11,24,21.5,36.8,31.6
							c12.8,10.1,26,19.8,39.7,29.1c28.2,19.1,58,35.8,89,50c136.1,60.8,276.8,113.5,380,211.6c27.7,24.2,53.5,46.8,77.2,67.4
							L2152.5,897"/>
						<path class="st2" d="M692.4-334.4c11,11,18.7,23.2,26.5,35.3c23.2,33.8,39.4,69.3,56.8,103.7c8.7,17.2,17.6,34.2,27.9,50.6
							C834-91.6,884-66.2,933-49.6c109,38.2,242,47.1,295,194.9c34,94.3,51,205,118.2,272c13.5,12.3,27.6,24.2,42.1,35.4
							c44.3,34.5,93.2,62.6,145.3,83.5c129.9,50,267.5,86.5,367.4,176.6c27.7,24.2,53.5,46.8,77.2,67.4l154,134.6"/>
						<path class="st2" d="M664.2-315c16,21.3,29.9,44.3,37.6,68.6c14.7,44.6,33.6,86.5,58.2,125.1c12.3,19.3,25.9,37.8,41.6,54.6
							C835-30.6,876-12.7,917,3.8c74,31.8,154,35.7,219,100.6c67,68.8,80,175.8,119,267.5c18,39.5,41,73.9,71.8,96.9
							c12.8,11.2,26.1,21.9,39.9,32.1c82.4,61.5,181,106.2,296.9,124.4c83.5,13.5,156.2,54.1,217.1,105.5
							c27.7,23.9,53.6,46.5,77.2,67.1l154,134.6"/>
						<path class="st2" d="M632.8-294.6c7.3,12.1,13.8,24.6,19.6,37.4c24.7,64.9,24.7,136.5,75.8,190.5
							c19.7,20.5,40.5,39.8,62.5,57.8C861,54.8,943,79,1024,114.6c105,44.6,141,179.6,190,292.9c14,30.6,31.1,57.3,51.2,80.3
							c14.5,15.7,30,30.4,46.5,44c49.1,40.8,105,73.7,169.3,93.4c128.3,37.8,273.7,41.9,379.1,124.3c27.9,23,53.7,45.5,77.4,66.2
							l154,134.6"/>
						<path class="st2" d="M597.6-273c25.4,57.8,20.8,118.6,39.3,179.4c7.7,20.3,17,40.5,35.6,55.4c13.1,11.5,26.2,22.9,39.1,34.3
							c12.9,11.4,25.7,22.8,38.3,34.4C826,103.2,913,147.7,999,202.5c37,22.9,67,56,92,99.3c50,86.6,93,169.4,157.9,231.6
							c19.3,18.6,39,36.6,59.6,54.4s41.9,35.1,64.3,52.4c66.5,51.4,154.6,41.9,238.1,51.4s162.3,33.8,228.5,77.7
							c28.1,21.5,54,43.6,77.7,64.3l154,134.6"/>
						<path class="st2" d="M558.1-249.9c15.4,54.9,4.6,113,10.7,169.8c3.1,21.6,10.8,41.9,29.4,56.8C626,1,655.8,22.3,684.6,44.1
							c18.8,14.9,38.9,27.1,54.4,44.6c73,85.8,159,138,242,214.4c16,15.3,29,29.3,44,45.8c57,67.5,109,127.4,174,188.5
							c15,14,27,28,39.9,44.3c17.1,19.1,33.8,38.9,50.4,59.8c40.2,50,92.8,90.6,160.8,87.8c159.3-4.1,338.6,6.8,446.7,121.9l64,55.9
							l90,78.7"/>
						<path class="st2" d="M513.7-224.9c2.6,11,2.6,20.5-0.5,31.3c-13.9,79.7-38.6,168.9,49.5,227c18.5,12.2,36.7,24.1,54.5,36
							c20,11.7,39.3,24.7,57.7,38.9c17.8,13.7,34.8,28.4,51,44C796,216.5,848,301.9,922,364.3c93,80.2,186,138.8,269.4,225.4
							c14.1,14.4,27.5,29.5,40.3,45.2c21.5,24.6,42.5,50.2,63.8,76.9c29.4,37.8,74.2,64.9,125.2,63.5
							c157.7-8.1,340.2-20.3,455.7,93.8l64,55.9l90,78.7"/>
						<path class="st2" d="M463.4-197.5c-1.3,49.9-27.5,94.4-36.8,144.4c-6.2,32.4,3.1,63.5,29.4,85.1
							c22.4,16.9,46.1,31.7,70.2,45.5c47.4,19.4,91.6,45.8,131,78.5c18.8,15.6,36.5,32.4,53,50.3C761,258.6,797,324.8,837,396.1
							c3.8,7.5,9.7,13.7,17,17.8c113,54.8,224,113.4,318.6,209.4c16.6,17.2,31.8,35.5,45.6,55c24.5,29.8,48.4,60.8,72.7,92.9
							c26.3,35.1,71.1,52.7,117.5,48.7c153.1-13.5,332.4-41.9,447.7,67.1c23.7,20.5,45.1,39.2,64,55.7l90,78.7"/>
						<path class="st2" d="M406.5-167.4c-10.8,46.7-30.9,89.9-52.5,133.2c-24.7,47.3-6.2,102.7,55.7,117.6c27,6.4,53.4,14,78.9,22.7
							c115,29.7,170.8,108.4,221,195c10,17.3,19.9,34.9,29.9,52.5C775,411.4,805,482.7,868,498c91,22.9,180,36.9,250.7,113.3
							c12.5,12,24.3,24.6,35.5,37.8c22.3,26.3,41.9,54.4,59.4,82.6c16.6,24.9,33.2,50,50.9,74.8c34,47.3,94.3,62.2,154.6,52.7
							c142.3-21.6,304.6-47.3,416.4,46.5c23.8,19.7,45.3,38.4,64.1,54.9l90,78.7"/>
						<path class="st2" d="M342.7-134.2c-21.3,74.3-154.2,198.6-24.3,236.5c30.5,8.8,61.8,16.6,92.8,24.9s61.6,16.9,90.2,27.8
							c161.8,52.7,174.2,220.3,234.5,341.9c9.3,17.6,30.9,25.7,51,29.7c15.5,2.9,30.8,5.3,46.1,7.3c91,11.1,188,18.7,262.5,94.8
							c14,13.1,27.1,27.2,39.2,42.2c23.9,29.4,43.9,61.3,62.9,94c14.8,25.2,29.6,50.5,45.4,75.3c27.8,41.9,77.3,68.9,133,59.5
							c179.4-29.7,381.9-63.5,503.5,78.7l48.5,42.4l41.5,36.3"/>
						<path class="st2" d="M272.5-97.8c-26.9,64.9-102.6,117.6-88.7,192c6.2,25.7,37.1,33.8,63.4,37.8c26.8,4.1,53.8,8.2,80.7,12.8
							s53.6,9.8,79.8,15.8c193.5,26.8,243,207.9,241.5,356.5c0,31.1,49.5,47.3,85,45.9c20.7-0.7,41.6-0.7,62.6,0.2s42,2.5,62.7,5.1
							c59.4,8.5,118.4,21.3,173.8,51.8c17,9.1,33.1,19.8,48.2,31.8c29.8,24,54.8,53.6,72.8,89.8c14.5,22.7,27.7,46.3,40.9,69.7
							s26.3,46.7,39.9,69.2c26.3,43.3,81.9,62.2,139.2,52.7c168.5-29.7,366.4-73,484.7,62.7l48.5,42.4l41.5,36.3"/>
						<path class="st2" d="M196.8-57.6c-33,54.5-79.4,103.1-91.8,165.3c-6.2,32.4,34,50,64.9,52.7c27.8,3.2,56.3,5.7,84.8,8.4
							s57.3,5.5,85.7,9.1c75.3,8.1,155.7,25.7,206.7,81.1c71.1,77,57.2,175.7,32.5,266.2c-20.1,73,74.2,93.3,139.2,78.4
							c179.4-37.8,374.2,27,436.8,182c11.9,23.3,22.4,47.1,31.7,70.8c24.7,62.2,75.8,124.3,160.8,112.2
							c167-24.3,364.9-87.8,490.6,45.3c18.9,16.4,35.2,30.7,48.5,42.3l41.5,36.3"/>
						<path class="st2" d="M863.9-478.3l41.5,36.3c13.3,11.6,29.6,25.9,48.4,42.4c17.2,16.1,34.4,32.2,51.7,48.2
							C1079-281.5,1166-249.6,1247-188.5c38,29.3,71,59.9,103,98.1c61,73.9,116,149,184.2,208.9c13.2,11.9,26.4,23.7,39.7,35.5
							c39.9,35.5,80.3,71,122.1,106.5c78.8,64.9,157.7,125.7,232.3,191.7c19.1,16.7,37.7,32.9,55.8,48.8l310.8,271.6"/>
						<path class="st2" d="M118.4-14.2C88,40.1,16.9,94.2,41.6,157.7c12.4,31.1,58.8,31.1,92.8,32.4c27.3,0.7,55.5,1.1,84,1.9
							s57.4,1.9,86.1,4.1c88.1,6.3,191.7,25.2,231.9,102.2c44.8,83.8,10.8,174.3-18.5,256.8c-12.4,31.1,9.3,62.2,40.2,74.3
							c86.6,33.8,180.9,1.3,270.6-4.1c131.4-9.5,255.1,59.5,306.9,163.7c15.1,26.3,28.4,53.7,41.2,81s24.8,54.6,36.9,81
							c17,37.8,64.9,56.8,111.3,51.4c165.4-16.2,360.3-97.3,493.3,29.7c19,16.1,35.3,30.3,48.6,42l41.5,36.3"/>
					</g>
				</g>
			</g>
		</g>
	</g>
</g>
</svg>