<svg xmlns="http://www.w3.org/2000/svg" viewBox="0 0 144.96 38.23">
  <title>logo</title>
  <g id="Layer_2" data-name="Layer 2">
    <g id="Layer_1-2" data-name="Layer 1">
      <g>
        <polygon points="4.97 0.12 0 0.12 0 26.5 18.54 26.5 18.54 21.9 4.97 21.9 4.97 0.12"/>
        <polygon points="20.96 26.5 25.55 26.5 25.55 7.79 20.96 9.99 20.96 26.5"/>
        <path d="M20.54,2.69c0,3.57,5.43,3.57,5.43,0S20.54-.9,20.54,2.69Z"/>
        <path d="M135.49,7.36c-6,0-9.87,4.07-9.87,9.72,0,6,3.8,9.91,10.21,9.91a13.37,13.37,0,0,0,3.23-.41,10.15,10.15,0,0,0,4.75-2.6l-4.21-2c-.17.08-.35.16-.54.23a9,9,0,0,1-3.16.61c-3.24,0-5.23-1.65-5.53-3.95h14.5C145.59,11.2,141.71,7.36,135.49,7.36ZM130.44,15a5,5,0,0,1,5.2-3.61c2.64,0,4.52,1.2,4.82,3.61Z"/>
        <path d="M98.93,10.48l-.08-.12A6.85,6.85,0,0,0,93,7.47c-5.43,0-9.68,3.31-9.68,9.72s4.07,9.91,9.57,9.87c2,0,4.84-1,5.95-3.13l.08-.15L99,25l4.45,2.15V9.7L99.07,7.58ZM93.42,22.84a5.33,5.33,0,0,1-5.5-5.65,5.47,5.47,0,1,1,10.93,0A5.32,5.32,0,0,1,93.42,22.84Z"/>
        <path d="M74.62,7.51l-.43-.07-.75-.09h0l-.43,0h-.37a9.42,9.42,0,0,0-9.37,9.42V34.26h4.6V25a.07.07,0,0,1,.11-.06,9.31,9.31,0,0,0,4.72,1.27A9.43,9.43,0,0,0,81.55,20v0A9.42,9.42,0,0,0,74.62,7.51Zm1.77,12.55a5,5,0,0,1-1.92,1.49l-.34.12a4.51,4.51,0,0,1-1.43.23h-.07a5,5,0,0,1-4.74-5.16,5,5,0,0,1,4.25-5.13,5.25,5.25,0,0,1,.56,0,5,5,0,0,1,4.81,5.16A5.4,5.4,0,0,1,76.39,20.06Z"/>
        <path d="M124.34,16.89a9.82,9.82,0,0,0-1.72-5.9,7.88,7.88,0,0,0-3.35-2.63,9.05,9.05,0,0,0-1.14-.4,8.68,8.68,0,0,0-3.23-.51c-.29,0-.58,0-.86,0a9.5,9.5,0,0,0-5.31,2.07,9.18,9.18,0,0,0-3.25,7.32,9.82,9.82,0,0,0,1.73,5.9,7.87,7.87,0,0,0,3.34,2.63,8.67,8.67,0,0,0,1.15.4,8.63,8.63,0,0,0,3.22.51,8.31,8.31,0,0,0,.87,0c2,.27,3.82,1.44,3.82,3.67,0,2.57-2.07,4-4.71,4-2.38,0-4.43-1.3-4.8-3.32,0-.12,0-.23,0-.35l-4.58-2.19v1.86h0v.12A7.8,7.8,0,0,0,110,37.19l.06,0a11,11,0,0,0,4.8,1c5.39,0,9.31-3.16,9.31-8.29a6.14,6.14,0,0,0-3.12-5.74A9.15,9.15,0,0,0,124.34,16.89ZM114.9,22a4.85,4.85,0,0,1-3.24-1.18l0,0a5.35,5.35,0,0,1-1.54-3.94,4.89,4.89,0,0,1,8.07-4l0,0a5.39,5.39,0,0,1,1.54,3.94A4.81,4.81,0,0,1,114.9,22Z"/>
        <path d="M38.89,22.46a4.15,4.15,0,0,1-1,.12c-1.42,0-2.4-.87-2.4-2.64v-8H40a10.92,10.92,0,0,1,2.74-4h-7.2V2.69L31,4.89V8H27.49v4H31v8c0,4.64,2.63,6.93,6.66,6.79a10.44,10.44,0,0,0,3.31-.61h0s.47-.16,1.13-.43a11.17,11.17,0,0,1-2.16-3.56C39.56,22.26,39.22,22.37,38.89,22.46Z"/>
        <path d="M51.36,7.36c-6,0-9.88,4.07-9.88,9.72,0,6,3.81,9.91,10.22,9.91a13.43,13.43,0,0,0,3.23-.41A10.2,10.2,0,0,0,59.68,24l-4.21-2-.54.23a9,9,0,0,1-3.16.61c-3.24,0-5.24-1.65-5.54-3.95H60.74C61.45,11.2,57.57,7.36,51.36,7.36Zm-5,7.68a5,5,0,0,1,5.2-3.61c2.63,0,4.52,1.2,4.82,3.61Z"/>
      </g>
    </g>
  </g>
</svg>
