<svg xmlns="http://www.w3.org/2000/svg" xmlns:xlink="http://www.w3.org/1999/xlink" viewBox="0 0 642.82 169.89"><defs><linearGradient id="linear-gradient" x1="11.27" y1="39.58" x2="130.52" y2="108.44" gradientUnits="userSpaceOnUse"><stop offset="0" stop-color="#337aff"/><stop offset="0.99" stop-color="#33f"/></linearGradient></defs><title>logo-mono</title><g id="Layer_2" data-name="Layer 2"><g id="Layer_1-2" data-name="Layer 1"><path d="M94.59,47.55c-.09-.48-.19-.94-.3-1.4S94,45,93.79,44.41a19.79,19.79,0,0,0-11.36-12.3,28.22,28.22,0,0,0-4.33-1.49l-.33-.07C49,25.46,26.48,36.24,12.89,45.9c-2.53,1.79-4.76,3.55-6.65,5.16-7,6-6.73,10.85-5.67,14.42A11.23,11.23,0,0,0,5.2,71.36a11.89,11.89,0,0,0,5.36,2l1.54.16,2,.2c19.21,2,34.24,2.91,45.89,2.91h.13a67.1,67.1,0,0,0,19.48-3.16c-.22.58-.44,1.15-.68,1.72a1.47,1.47,0,0,1-.06.14c-.48,1.12-1,2.25-1.53,3.41l0,.08c-.37.75-.82,1.69-1.32,2.78q-3.49,7.08-8.27,15.09a346.75,346.75,0,0,1-22.92,33.34l-.14.18L37.45,145l7.4-6.41a200.54,200.54,0,0,0,21.21-21.88,121,121,0,0,0,10.47-14.6q4.66-7.78,8.18-14.82a117.76,117.76,0,0,0,8.37-21c.48-.39,1-.8,1.42-1.21a37.69,37.69,0,0,0,3.68-3.8c11.37-13.5,9.65-30.86,9.35-33.24,0-.25,0-.77,0-1.48a22.7,22.7,0,0,1,1-5.7A15.36,15.36,0,0,1,111,16.1a12.42,12.42,0,0,1,1.83-2c4.81-3.73,9.29-4.71,13.71-3A15.86,15.86,0,0,1,132,14.94l.08.09.23.3c.17.21.33.41.51.6s.3.35.46.51.56.56.89.86c.18.17.38.34.58.51s.24.2.36.3c.38.3.78.61,1.22.92l-.34.3c-.27.24-.54.49-.8.75a14.48,14.48,0,0,0-2.29,3.14,21.21,21.21,0,0,0-2.33,10.16,27.47,27.47,0,0,0,.6,6.29,16.34,16.34,0,0,0,.69,2.29l.28.69a6.09,6.09,0,0,1,.36,1c.22.82.47,1.8.66,2.82a28.54,28.54,0,0,1,.49,5.71,30.44,30.44,0,0,1-.25,3.44c-1.33,10.2-7.72,19.64-19,28.09l0,0-.2.14c-.49.38-1,.75-1.52,1.11l-.07.06c-.75.53-1.52,1.06-2.31,1.58-1.17.77-2.33,1.57-3.49,2.4h0a3.16,3.16,0,0,0-.43.3l0,0c-1.75,1.25-3.48,2.56-5.2,3.91-3.36,2.64-6.65,5.44-9.87,8.33L90,102.74c-1.26,1.14-2.5,2.3-3.73,3.46-7.41,7-14.32,14.25-20.48,20.72-2.18,2.3-4.26,4.48-6.22,6.5-14,14.5-19.88,24.78-20.12,25.21l-.2.34-1.3,10.92,4.34-5.28a511.79,511.79,0,0,1,42.47-44.36c2.74-2.52,5.54-5,8.39-7.47l.3-.26c.83-.72,1.67-1.43,2.51-2.13h0a6,6,0,0,0,1.48-1.24q2.08-1.74,4.2-3.42c4.76-3.8,9.58-7.36,14.36-10.53,9-6,16-12.66,20.67-19.88a44,44,0,0,0,7.05-18.81A39.7,39.7,0,0,0,143.9,49a38.06,38.06,0,0,0-.88-6,28.54,28.54,0,0,0-.83-3c-.11-.31-.23-.63-.35-.94-.21-.59-.42-1.14-.56-1.68a12.9,12.9,0,0,1-.37-3.11,18.43,18.43,0,0,1,.16-3.22,9,9,0,0,1,2.27-4.73,8.62,8.62,0,0,1,1-1,13.84,13.84,0,0,1,5-2.49,17.25,17.25,0,0,1,2.5-.54,16.56,16.56,0,0,1,1.79-.21h.08a39.36,39.36,0,0,1,6.52.13,81.69,81.69,0,0,1,9.38,1.5l.93.21.48.1h.08l.07,0c.36.08.72.18,1.09.24a16.77,16.77,0,0,0,3.46.33c.28,0,.55,0,.83,0a8.71,8.71,0,0,0,1.68-.23,2.64,2.64,0,0,0,1-.41.9.9,0,0,0,.34-.57,1.09,1.09,0,0,0-.15-.66,3.5,3.5,0,0,0-.53-.73,8.39,8.39,0,0,0-.82-.76c-.31-.26-.63-.5-1-.74s-.7-.48-1.06-.71a10.46,10.46,0,0,0-1.64-.9c-.63-.27-1.28-.51-1.93-.73-1.28-.44-2.58-.82-3.88-1.2l-3.8-1.09c-2.88-.82-5.77-1.6-8.7-2.17-1.45-.28-2.9-.52-4.36-.73s-2.7-.26-4-.47l-.83-.13a10.94,10.94,0,0,1-4.52-1.77l0,0a9.32,9.32,0,0,1-1.36-1.12,6.35,6.35,0,0,1-.6-.68l-.2-.26a25.83,25.83,0,0,0-9.56-6.88C125.49-.4,117.8-1.48,109,4.21c-.86.55-1.73,1.16-2.61,1.85l-.13.11a23.24,23.24,0,0,0-2.59,2.56h0a22.65,22.65,0,0,0-1.56,2h0a27,27,0,0,0-3.58,7.75,32,32,0,0,0-1.23,10.36l0,.29a37,37,0,0,1-.13,8.66l-.06.49h0a35,35,0,0,1-2.49,9.19M84,59.72c0,.13,0,.25-.07.38A44,44,0,0,1,78.68,63a55.72,55.72,0,0,1-21.05,5.12c-12.57,0-30.15-.28-43.52-1.6L13,66.36h-.11a13.86,13.86,0,0,1-6.31-1.74A2.78,2.78,0,0,1,5.41,62.4a4.54,4.54,0,0,1,1.74-3.86l0,0a62.92,62.92,0,0,1,5.9-4.07C25.88,46.3,45.33,39.77,65,39.77a63,63,0,0,1,10.73.91h0l.08,0a17.17,17.17,0,0,1,3.48,1.39A9.57,9.57,0,0,1,84,47.67C85,50.72,85,54.77,84,59.72Z" style="fill:url(#linear-gradient)"/><polygon points="197 41.96 181.16 41.96 181.16 125.96 240.2 125.96 240.2 111.33 197 111.33 197 41.96"/><polygon points="247.9 125.96 262.54 125.96 262.54 66.38 247.9 73.4 247.9 125.96"/><path d="M246.58,50.13c0,11.39,17.28,11.39,17.28,0S246.58,38.72,246.58,50.13Z"/><path d="M612.67,65c-19.2,0-31.44,13-31.44,31,0,19,12.12,31.56,32.52,31.56A41.66,41.66,0,0,0,624,126.21c5.75-1.48,11.22-4.21,15.13-8.27l-13.41-6.44c-.55.27-1.12.52-1.72.75a28.77,28.77,0,0,1-10,2c-10.32,0-16.68-5.28-17.64-12.6h46.2C644.83,77.24,632.47,65,612.67,65ZM596.59,89.48C598.75,81.8,605.23,78,613.15,78c8.4,0,14.4,3.84,15.36,11.52Z"/><path d="M496.22,75c-.08-.13-.15-.26-.24-.39-3.45-5.66-10.86-9.21-18.59-9.21-17.29-.12-30.84,10.56-30.84,31,0,20.76,13,31.56,30.47,31.44,6.45-.12,15.43-3.33,19-10l.24-.47.32,3.78,14.2,6.83V72.45L496.67,65.7ZM478.7,114.32c-9.71,0-17.52-6.72-17.52-18S469,78.44,478.7,78.44c11.52,0,17.28,9,17.28,17.94S490.22,114.32,478.7,114.32Z"/><path d="M418.8,65.5c-.44-.09-.9-.17-1.36-.24-.78-.13-1.58-.21-2.37-.27h0l-1.36-.08q-.49,0-1,0h-.19a30,30,0,0,0-29.83,30v55.8h14.64V121a.23.23,0,0,1,.34-.2,30,30,0,0,0,43.22-15.56.16.16,0,0,0,0-.09A30,30,0,0,0,418.8,65.5Zm5.65,40a15.58,15.58,0,0,1-6.13,4.74c-.35.13-.69.28-1.06.39a14.33,14.33,0,0,1-4.56.74h-.21c-8.36-.11-15.11-7.43-15.11-16.43,0-8.43,5.9-15.38,13.53-16.33a15.22,15.22,0,0,1,1.79-.11c8.48,0,15.33,7.36,15.33,16.44A17.06,17.06,0,0,1,424.45,105.45Z"/><path d="M577.17,95.36c0-7.56-1.93-13.91-5.48-18.78A25,25,0,0,0,561,68.2a28.59,28.59,0,0,0-3.65-1.28A27.81,27.81,0,0,0,547.1,65.3c-.92,0-1.84,0-2.75.11A30.13,30.13,0,0,0,527.46,72c-6.34,5.19-10.36,13.21-10.36,23.3,0,7.56,1.94,13.91,5.49,18.78a25,25,0,0,0,10.66,8.38,28.73,28.73,0,0,0,3.66,1.28,27.76,27.76,0,0,0,10.26,1.62c.93,0,1.85,0,2.76-.11,6.34.84,12.17,4.58,12.17,11.69,0,8.16-6.59,12.72-15,12.72-7.58,0-14.11-4.12-15.29-10.58-.06-.36-.11-.72-.14-1.1l-14.56-7v5.95h0c0,.12,0,.25,0,.37A24.79,24.79,0,0,0,531.62,160l.19.09a35.44,35.44,0,0,0,15.29,3.25c17.17,0,29.65-10.08,29.65-26.4,0-6.93-2-13.45-9.94-18.28C573.16,113.47,577.17,105.45,577.17,95.36ZM547.1,111.74A15.35,15.35,0,0,1,536.77,108l-.06-.06a17,17,0,0,1-4.9-12.54c0-10.2,7-16.44,15.36-16.44a15.36,15.36,0,0,1,10.34,3.78l0,.06a17,17,0,0,1,4.91,12.54C562.47,105.5,555.51,111.74,547.1,111.74Z"/><path d="M305,113.11a13.86,13.86,0,0,1-3.07.38c-4.55,0-7.67-2.77-7.67-8.41V79.52h14.3a35,35,0,0,1,8.73-12.59H294.39V50.13l-14.64,7v9.78h-11V79.52h11v25.56c0,14.76,8.39,22.08,21.23,21.61a32.48,32.48,0,0,0,10.54-1.93h0s1.5-.5,3.61-1.38a34.79,34.79,0,0,1-6.9-11.35A31.22,31.22,0,0,1,305,113.11Z"/><path d="M344.72,65c-19.2,0-31.44,13-31.44,31,0,19,12.12,31.56,32.52,31.56a41.66,41.66,0,0,0,10.29-1.31c5.75-1.48,11.22-4.21,15.13-8.27l-13.41-6.44c-.55.27-1.12.52-1.72.75a28.77,28.77,0,0,1-10,2c-10.32,0-16.68-5.28-17.64-12.6h46.2C376.88,77.24,364.52,65,344.72,65ZM328.64,89.48C330.8,81.8,337.28,78,345.2,78c8.4,0,14.4,3.84,15.36,11.52Z"/></g></g></svg>