<svg xmlns="http://www.w3.org/2000/svg" xmlns:xlink="http://www.w3.org/1999/xlink" viewBox="0 0 513.8 161.88"><defs><linearGradient id="linear-gradient" y1="113.68" x2="73.93" y2="113.68" gradientUnits="userSpaceOnUse"><stop offset="0" stop-color="#3535d9"/><stop offset="1" stop-color="#0000d9"/></linearGradient><linearGradient id="linear-gradient-2" y1="63.85" x2="73.93" y2="63.85" gradientUnits="userSpaceOnUse"><stop offset="0" stop-color="#3e81ff"/><stop offset="1" stop-color="#0059ff"/></linearGradient><linearGradient id="linear-gradient-3" x1="-67.62" y1="28.92" x2="-67.12" y2="28.92" gradientUnits="userSpaceOnUse"><stop offset="0" stop-color="#3ea5ff"/><stop offset="1" stop-color="#1994ff"/></linearGradient></defs><title>logo</title><g id="Layer_2" data-name="Layer 2"><g id="Layer_1-2" data-name="Layer 1"><path d="M118.92,141.58H114v12.21h4.9a6,6,0,0,0,4.42-1.69,6.3,6.3,0,0,0,1.69-4.52A5.8,5.8,0,0,0,118.92,141.58Zm0,9.17h-1.8v-6.17h1.8a2.85,2.85,0,0,1,3,3,3.18,3.18,0,0,1-.81,2.36A2.94,2.94,0,0,1,118.92,150.75Z"/><rect x="141.21" y="141.58" width="3.1" height="12.2"/><path d="M166,149.19h2.86v1.24a3.16,3.16,0,0,1-2,.64,3.07,3.07,0,0,1-3.36-3.24,3.32,3.32,0,0,1,3.36-3.63,3.76,3.76,0,0,1,2.5,1l.36.34,2-2.05-.36-.35a6.36,6.36,0,0,0-4.51-1.86c-4.41,0-6.42,3.41-6.42,6.57,0,2.86,1.68,6.21,6.42,6.21a6.07,6.07,0,0,0,4.84-2.19l.13-.14V146.3H166Z"/><rect x="188.17" y="141.58" width="3.1" height="12.2"/><polygon points="207.7 144.5 211.26 144.5 211.26 153.78 214.37 153.78 214.37 144.5 217.92 144.5 217.92 141.58 207.7 141.58 207.7 144.5"/><path d="M237.85,141.58l-5.48,12.21h3.39l1-2.12h5.21l.94,2.12h3.41l-5.48-12.21Zm2.79,7.12H238l1.31-3Z"/><polygon points="264.83 141.58 261.72 141.58 261.72 153.78 270.59 153.78 270.59 150.83 264.83 150.83 264.83 141.58"/><polygon points="311.96 146.06 308.71 141.6 305.53 141.6 305.53 153.8 308.64 153.8 308.64 146.69 311.45 150.54 312.37 150.54 315.27 146.67 315.27 153.8 318.39 153.8 318.39 141.6 315.21 141.6 311.96 146.06"/><polygon points="334.93 153.78 344.32 153.78 344.32 150.7 338.03 150.7 338.03 149.18 344.1 149.18 344.1 146.21 338.03 146.21 338.03 144.63 344.32 144.63 344.32 141.58 334.93 141.58 334.93 153.78"/><path d="M365.31,141.58h-4.9v12.21h4.9a6.06,6.06,0,0,0,4.42-1.69,6.3,6.3,0,0,0,1.68-4.52A5.8,5.8,0,0,0,365.31,141.58Zm0,9.17H363.5v-6.17h1.81a2.84,2.84,0,0,1,3,3,3.18,3.18,0,0,1-.81,2.36A2.91,2.91,0,0,1,365.31,150.75Z"/><rect x="387.59" y="141.58" width="3.1" height="12.2"/><path d="M414.27,141.58h-2.95l-5.48,12.21h3.39l1-2.12h5.21l.94,2.12h3.41Zm-.16,7.12h-2.63l1.32-3Z"/><path d="M128.58,42.41H115a1,1,0,0,0-1,1v80.68a1,1,0,0,0,1,1H171.1a1,1,0,0,0,1-1V111.68a1,1,0,0,0-1-1H130.58a1,1,0,0,1-1-1V43.41A1,1,0,0,0,128.58,42.41Z"/><path d="M273.19,65c-19,0-31.08,12.81-31.08,30.6,0,18.75,12,31.2,32.15,31.2a41.16,41.16,0,0,0,10.17-1.29,32.65,32.65,0,0,0,13.9-7.15,1,1,0,0,0-.23-1.65l-11.54-5.54a1,1,0,0,0-.85,0c-.41.19-.84.37-1.28.54a28.53,28.53,0,0,1-9.93,1.92c-9.62,0-15.76-4.63-17.23-11.22a1,1,0,0,1,1-1.23h43.56a1,1,0,0,0,1-.93C304.67,76.75,292.51,65,273.19,65Zm-14.51,24.2a1,1,0,0,1-.94-1.36c2.48-6.69,8.58-10,15.93-10,7.84,0,13.57,3.39,15,10.17a1,1,0,0,1-1,1.22Z"/><path d="M180.13,125.09H192.6a1,1,0,0,0,1-1V67.78a1,1,0,0,0-1.43-.9l-12.48,6a1,1,0,0,0-.56.9v50.33A1,1,0,0,0,180.13,125.09Z"/><path d="M177.82,50.13c0,11.26,17.08,11.26,17.08,0S177.82,38.85,177.82,50.13Z"/><path d="M235.58,112.4a14.09,14.09,0,0,1-3,.37c-4.5,0-7.58-2.74-7.58-8.32V80.18a1,1,0,0,1,1-1h12.48a1,1,0,0,0,.91-.6A34.93,34.93,0,0,1,246,68.42a1,1,0,0,0-.72-1.68H226.08a1,1,0,0,1-1-1v-14a1,1,0,0,0-1.43-.9l-12.47,6a1,1,0,0,0-.57.9v8a1,1,0,0,1-1,1H200.7a1,1,0,0,0-1,1V78.18a1,1,0,0,0,1,1h8.91a1,1,0,0,1,1,1v24.27c0,14.59,8.3,21.83,21,21.36a31.84,31.84,0,0,0,10.42-1.9h0s.88-.3,2.24-.83a1,1,0,0,0,.39-1.59,34.52,34.52,0,0,1-5.53-9.25,1,1,0,0,0-1.27-.57C237.09,111.94,236.33,112.19,235.58,112.4Z"/><path d="M511.52,106a32.32,32.32,0,0,0,1.93-11.29,35.36,35.36,0,0,0-1.55-10.76,26.45,26.45,0,0,0-3.18-6.81,1,1,0,0,1,0-1.17l4.82-6.14a1,1,0,0,0-.18-1.42l-9-6.83a1,1,0,0,0-1.39.18L498,68l-.5-.22c-.47-.2-.93-.38-1.41-.55-.7-.26-1.43-.5-2.18-.71h0A25.2,25.2,0,0,0,485.31,65h0c-.52,0-1,0-1.55,0-.9,0-1.81,0-2.71.1a29.82,29.82,0,0,0-16.7,6.52c-6.27,5.13-10.24,13.06-10.24,23,0,7.48,1.92,13.75,5.42,18.57A24.69,24.69,0,0,0,470,121.46a28.19,28.19,0,0,0,3.59,1.26l.06,0a27.57,27.57,0,0,0,10.11,1.59c.89,0,1.76,0,2.63-.1a1.47,1.47,0,0,1,.21,0c6.23.86,11.92,4.56,11.92,11.55a11.53,11.53,0,0,1-6.37,10.66h0a18.17,18.17,0,0,1-8.44,1.9c-7.49,0-13.94-4.07-15.11-10.46-.06-.35-.11-.71-.14-1.08l-2.74-1.32-10.22-4.91a1,1,0,0,0-1.43.9v4.3h0c0,.12,0,.24,0,.36a24.5,24.5,0,0,0,14.34,22.43l.19.09a35,35,0,0,0,15.11,3.22,33.66,33.66,0,0,0,17.38-4.39l.58-.34c7-4.45,11.36-11.83,11.36-21.37,0-6.85-2-13.3-9.83-18.07a4.59,4.59,0,0,0,.41-.36A27,27,0,0,0,511.52,106Zm-23.31,4.27a.28.28,0,0,1-.13,0,15.62,15.62,0,0,1-4.36.6,15.19,15.19,0,0,1-10.21-3.73l-.06-.06a16.88,16.88,0,0,1-4.84-12.4c0-7.14,3.45-12.31,8.4-14.72a15.83,15.83,0,0,1,17,2.21l.05.06a16.81,16.81,0,0,1,4.85,12.39C498.92,102.81,494.38,108.41,488.21,110.23Z"/><path d="M373.72,125.17h12.47a1,1,0,0,0,1-1V67.86a1,1,0,0,0-1.43-.9l-12.47,6a1,1,0,0,0-.57.9v50.33A1,1,0,0,0,373.72,125.17Z"/><path d="M371.41,50.21c0,11.26,17.09,11.26,17.09,0S371.41,38.93,371.41,50.21Z"/><path d="M341.91,65.91c-6.62,0-12.07,2.41-17.42,7.15a1,1,0,0,1-1.67-.74v-6l-1,.47-12.67,6.07-.22.11v51.17a1,1,0,0,0,1,1h12.3a1,1,0,0,0,1-1v-40a1,1,0,0,1,.55-.9c18.46-9.54,28.39-1.22,28.39,11.46v29.47a1,1,0,0,0,1,1H365.6a1,1,0,0,0,1-1V94.5C366.6,76.2,355.62,65.91,341.91,65.91Z"/><path d="M426.27,65.91c-6.62,0-12.08,2.41-17.43,7.15a1,1,0,0,1-1.66-.74v-6l-1,.47-12.66,6.07-.22.11v51.17a1,1,0,0,0,1,1h12.3a1,1,0,0,0,1-1v-40a1,1,0,0,1,.54-.9c18.47-9.54,28.39-1.22,28.39,11.46v29.47a1,1,0,0,0,1,1H450a1,1,0,0,0,1-1V94.5C451,76.2,440,65.91,426.27,65.91Z"/><path d="M3.23,156.63l69.93-54.7a2,2,0,0,0,.77-1.57v-28a2,2,0,0,0-3.23-1.58L.77,125.43A2,2,0,0,0,0,127v28.05A2,2,0,0,0,3.23,156.63Z" style="fill:url(#linear-gradient)"/><path d="M3.23,106.8,73.16,52.1a2,2,0,0,0,.77-1.57v-28A2,2,0,0,0,70.7,20.9L.77,75.6A2,2,0,0,0,0,77.17v28.05A2,2,0,0,0,3.23,106.8Z" style="fill:url(#linear-gradient-2)"/><path d="M3.23,57.41l33-25.78A2,2,0,0,0,37,30.05V2A2,2,0,0,0,33.73.43L.77,26.21A2,2,0,0,0,0,27.79v28A2,2,0,0,0,3.23,57.41Z" style="fill:url(#linear-gradient-3)"/></g></g></svg>