<svg xmlns="http://www.w3.org/2000/svg" viewBox="0 0 404.85 121.59"><title>logo-wordmark</title><g id="Layer_2" data-name="Layer 2"><g id="Layer_1-2" data-name="Layer 1"><polygon points="15.77 0.75 0 0.75 0 84.39 58.79 84.39 58.79 69.81 15.77 69.81 15.77 0.75"/><path d="M161,23.56c-19.2,0-31.44,13-31.44,31,0,19,12.12,31.56,32.52,31.56a41.66,41.66,0,0,0,10.29-1.31c5.75-1.48,11.22-4.21,15.13-8.27l-13.41-6.44c-.55.27-1.12.52-1.72.75a28.77,28.77,0,0,1-10,2c-10.32,0-16.68-5.28-17.64-12.6h46.2C193.2,35.8,180.84,23.56,161,23.56ZM145,48c2.16-7.68,8.64-11.52,16.56-11.52,8.4,0,14.4,3.84,15.36,11.52Z"/><polygon points="65.89 84.39 80.53 84.39 80.53 24.81 65.89 31.83 65.89 84.39"/><path d="M64.57,8.56c0,11.39,17.28,11.39,17.28,0S64.57-2.85,64.57,8.56Z"/><path d="M123,71.54a13.77,13.77,0,0,1-3.06.38c-4.55,0-7.67-2.77-7.67-8.41V38h14.3a35,35,0,0,1,8.72-12.59h-22.9V8.56l-14.64,7v9.78h-11V38h11V63.51c0,14.76,8.39,22.08,21.23,21.61a32.58,32.58,0,0,0,10.54-1.93h0s1.5-.5,3.61-1.38a34.79,34.79,0,0,1-6.9-11.35A31.38,31.38,0,0,1,123,71.54Z"/><path d="M402.13,65a32.79,32.79,0,0,0,1.95-11.42,35.85,35.85,0,0,0-1.57-10.89,26.58,26.58,0,0,0-3.63-7.49l6-7.6L394.1,19.5l-5.66,7.17-.51-.22c-.47-.2-.94-.39-1.42-.56-.72-.27-1.47-.51-2.23-.72a25.68,25.68,0,0,0-8.67-1.59h0q-.78,0-1.56,0c-.92,0-1.84,0-2.75.11a30.13,30.13,0,0,0-16.89,6.59C348,35.44,344,43.46,344,53.55c0,7.56,1.94,13.91,5.49,18.78a25,25,0,0,0,10.66,8.38A28.73,28.73,0,0,0,363.82,82a27.76,27.76,0,0,0,10.26,1.62c.93,0,1.85,0,2.76-.11,6.34.84,12.17,4.58,12.17,11.69A11.67,11.67,0,0,1,382.56,106h0a18.4,18.4,0,0,1-8.53,1.92c-7.58,0-14.11-4.12-15.29-10.58-.06-.36-.11-.72-.14-1.1l-2.77-1.33L344,89.24v6h0c0,.12,0,.25,0,.37a24.79,24.79,0,0,0,14.51,22.69l.19.09A35.44,35.44,0,0,0,374,121.59a34,34,0,0,0,17.58-4.44l.58-.34c7.12-4.5,11.49-12,11.49-21.62,0-6.93-2-13.45-9.94-18.28q.21-.16.42-.36A27.31,27.31,0,0,0,402.13,65Zm-23.58,4.32a.28.28,0,0,1-.13,0A16,16,0,0,1,374,70a15.35,15.35,0,0,1-10.33-3.78l-.06-.06a17,17,0,0,1-4.9-12.54c0-7.22,3.49-12.45,8.5-14.89A16,16,0,0,1,384.42,41l.05.06a17,17,0,0,1,4.91,12.54C389.38,61.84,384.79,67.51,378.55,69.35Z"/><polygon points="261.72 84.47 276.36 84.47 276.36 24.89 261.72 31.91 261.72 84.47"/><path d="M260.4,8.64c0,11.39,17.28,11.39,17.28,0S260.4-2.77,260.4,8.64Z"/><path d="M230.56,24.52c-7.39,0-13.35,3-19.31,8.79V24.88l-1,.48L197.44,31.5l-.22.11V84.38h14.46V54.27c0-9,6.09-16.48,15-16.48,9.32,0,14.22,6.81,14.22,15.77V84.38h14.58V53.44C255.53,34.92,244.42,24.52,230.56,24.52Z"/><path d="M315.89,24.52c-7.39,0-13.35,3-19.31,8.79V24.88l-1,.48L282.77,31.5l-.22.11V84.38H297V54.27c0-9,6.09-16.48,15.05-16.48,9.32,0,14.22,6.81,14.22,15.77V84.38h14.58V53.44C340.86,34.92,329.75,24.52,315.89,24.52Z"/></g></g></svg>