<svg xmlns="http://www.w3.org/2000/svg" xmlns:xlink="http://www.w3.org/1999/xlink" viewBox="0 0 642.82 169.89"><defs><linearGradient id="linear-gradient" x1="77.07" y1="77.23" x2="79.14" y2="76.87" gradientUnits="userSpaceOnUse"><stop offset="0" stop-color="#337aff"/><stop offset="0.99" stop-color="#33f"/></linearGradient><linearGradient id="linear-gradient-2" x1="5.08" y1="73.07" x2="83.8" y2="59.19" xlink:href="#linear-gradient"/><linearGradient id="linear-gradient-3" x1="89.9" y1="48.22" x2="110.73" y2="44.55" xlink:href="#linear-gradient"/><linearGradient id="linear-gradient-4" x1="69.99" y1="115.63" x2="43.45" y2="110.95" xlink:href="#linear-gradient"/><linearGradient id="linear-gradient-5" x1="114.21" y1="-0.52" x2="130.18" y2="18.51" xlink:href="#linear-gradient"/><linearGradient id="linear-gradient-6" x1="114.58" y1="7.51" x2="114.58" y2="37.86" xlink:href="#linear-gradient"/><linearGradient id="linear-gradient-7" x1="124.64" y1="18.11" x2="124.64" y2="109.14" xlink:href="#linear-gradient"/><linearGradient id="linear-gradient-8" x1="144.17" y1="7.89" x2="138.32" y2="23.98" xlink:href="#linear-gradient"/><linearGradient id="linear-gradient-9" x1="140.92" y1="9.18" x2="140.92" y2="10.61" xlink:href="#linear-gradient"/><linearGradient id="linear-gradient-10" x1="100.53" y1="32.08" x2="102.19" y2="31.54" xlink:href="#linear-gradient"/><linearGradient id="linear-gradient-11" x1="59.72" y1="80.67" x2="96.64" y2="74.16" xlink:href="#linear-gradient"/><linearGradient id="linear-gradient-12" x1="47.52" y1="29.24" x2="47.52" y2="71.36" xlink:href="#linear-gradient"/><linearGradient id="linear-gradient-13" x1="75.98" y1="80.23" x2="77.3" y2="80.23" xlink:href="#linear-gradient"/><linearGradient id="linear-gradient-14" x1="78.93" y1="74.34" x2="79.67" y2="74.34" xlink:href="#linear-gradient"/><linearGradient id="linear-gradient-15" x1="72.13" y1="89.33" x2="72.13" y2="169.89" xlink:href="#linear-gradient"/><linearGradient id="linear-gradient-16" x1="95.84" y1="110.03" x2="97.54" y2="109.48" xlink:href="#linear-gradient"/><linearGradient id="linear-gradient-17" x1="102.05" y1="30.57" x2="102.98" y2="30.57" xlink:href="#linear-gradient"/></defs><title>logo-alt</title><g id="Layer_2" data-name="Layer 2"><g id="Layer_1-2" data-name="Layer 1"><path d="M78.87,75.35c-.48,1.12-1,2.25-1.53,3.41C77.86,77.71,78.38,76.56,78.87,75.35Z" style="fill:url(#linear-gradient)"/><path d="M57.63,68.08c-12.57,0-30.15-.28-43.52-1.6L13,66.36h-.11a13.86,13.86,0,0,1-6.31-1.74A2.78,2.78,0,0,1,5.41,62.4a4.54,4.54,0,0,1,1.74-3.86c-.48.34-5.49,4.16-1.95,12.82a11.89,11.89,0,0,0,5.36,2l1.54.16,2,.2c19.21,2,34.24,2.91,45.89,2.91h.13a67.1,67.1,0,0,0,19.48-3.16C82.07,67.09,84,60.1,84,60.1A44,44,0,0,1,78.68,63,55.72,55.72,0,0,1,57.63,68.08Z" style="fill:url(#linear-gradient-2)"/><path d="M98.18,61.24A37.69,37.69,0,0,1,94.5,65c-.46.41-.94.82-1.42,1.21,0,0,3.06-10.72,1.51-18.7a35,35,0,0,0,2.49-9.19h0l.06-.49a30.22,30.22,0,0,1,3.46-5.21l.07-.09c.44-.52.88-1,1.35-1.5l0,0q.45-.48.93-.93s0,0,0,0a30.93,30.93,0,0,1,4.53-3.55c0,.71,0,1.23,0,1.48C107.83,30.38,109.55,47.74,98.18,61.24Z" style="fill:url(#linear-gradient-3)"/><path d="M66.06,116.67a200.54,200.54,0,0,1-21.21,21.88L37.45,145l7.2-14.73.14-.18A346.75,346.75,0,0,0,67.71,96.71q4.77-8,8.27-15.09C72.24,89.78,65.59,106.43,66.06,116.67Z" style="fill:url(#linear-gradient-4)"/><path d="M140.93,9.49l-1.38-.31a44.68,44.68,0,0,0-24.2-3.93,38.83,38.83,0,0,0-11.71,3.48,23.24,23.24,0,0,1,2.59-2.56l.13-.11c.88-.69,1.75-1.3,2.61-1.85,8.83-5.69,16.52-4.61,21.6-2.54a25.83,25.83,0,0,1,9.56,6.88l.2.26A6.35,6.35,0,0,0,140.93,9.49Z" style="fill:url(#linear-gradient-5)"/><path d="M132,14.94a15.86,15.86,0,0,0-5.52-3.77c-4.42-1.73-8.9-.75-13.71,3a12.42,12.42,0,0,0-1.83,2,15.36,15.36,0,0,0-2.39,4.72,22.7,22.7,0,0,0-1,5.7A30.93,30.93,0,0,0,103,30.07s0,0,0,0q-.48.45-.93.93l0,0a13.43,13.43,0,0,0-1.35,1.5l-.07.09a30.22,30.22,0,0,0-3.46,5.21,37,37,0,0,0,.13-8.66l0-.29a32,32,0,0,1,1.23-10.36,27,27,0,0,1,3.58-7.75h0C102.73,10.46,121.11,1.38,132,14.94Z" style="fill:url(#linear-gradient-6)"/><path d="M151.85,22.34a17.25,17.25,0,0,0-2.5.54,13.84,13.84,0,0,0-5,2.49,8.62,8.62,0,0,0-1,1,9,9,0,0,0-2.27,4.73,18.43,18.43,0,0,0-.16,3.22,12.9,12.9,0,0,0,.37,3.11c.14.54.35,1.09.56,1.68.12.31.24.63.35.94a28.54,28.54,0,0,1,.83,3,38.06,38.06,0,0,1,.88,6,39.7,39.7,0,0,1-.19,7.47,44,44,0,0,1-7.05,18.81C132,82.53,125,89.22,116,95.19c-4.78,3.17-9.6,6.73-14.36,10.53q-2.11,1.68-4.2,3.42c1.27-1.4,3-4.18,4.14-9.46v0c.05-.21.09-.42.14-.63v0a1.33,1.33,0,0,1,.05-.19c1.43-6.24,3.62-8.69,4.57-9.49l0,0a3.16,3.16,0,0,1,.43-.3h0c1.16-.83,2.32-1.63,3.49-2.4.79-.52,1.56-1,2.31-1.58l.07-.06c.52-.36,1-.73,1.52-1.11l.2-.14,0,0c11.27-8.45,17.66-17.89,19-28.09a30.44,30.44,0,0,0,.25-3.44,28.54,28.54,0,0,0-.49-5.71c-.19-1-.44-2-.66-2.82a6.09,6.09,0,0,0-.36-1l-.28-.69a16.34,16.34,0,0,1-.69-2.29,27.47,27.47,0,0,1-.6-6.29,21.21,21.21,0,0,1,2.33-10.16,14.48,14.48,0,0,1,2.29-3.14c.26-.26.53-.51.8-.75l.34-.3c-.44-.31-.84-.62-1.22-.92C140.81,22.55,148.39,22.59,151.85,22.34Z" style="fill:url(#linear-gradient-7)"/><path d="M179.54,23.42a.9.9,0,0,1-.34.57,2.64,2.64,0,0,1-1,.41,8.71,8.71,0,0,1-1.68.23c-.28,0-.55,0-.83,0a16.77,16.77,0,0,1-3.46-.33c-.37-.06-.73-.16-1.09-.24l-.07,0H171l-.48-.1-.93-.21a81.69,81.69,0,0,0-9.38-1.5,39.36,39.36,0,0,0-6.52-.13h-.08a16.56,16.56,0,0,0-1.79.21c-3.46.25-11,.21-16.73-4.23-.12-.1-.24-.19-.36-.3s-.4-.34-.58-.51c-.33-.3-.62-.59-.89-.86s-.31-.33-.46-.51-.34-.39-.51-.6l-.23-.3-.08-.09c-10.9-13.56-29.28-4.48-29.94-4.15a22.65,22.65,0,0,1,1.56-2h0a38.83,38.83,0,0,1,11.71-3.48,44.68,44.68,0,0,1,24.2,3.93c1.61.76,2.57,1.33,2.74,1.43l0,0a10.94,10.94,0,0,0,4.52,1.77l.83.13c1.33.21,2.69.27,4,.47s2.91.45,4.36.73c2.93.57,5.82,1.35,8.7,2.17l3.8,1.09c1.3.38,2.6.76,3.88,1.2.65.22,1.3.46,1.93.73a10.46,10.46,0,0,1,1.64.9c.36.23.71.47,1.06.71s.66.48,1,.74a8.39,8.39,0,0,1,.82.76,3.5,3.5,0,0,1,.53.73A1.09,1.09,0,0,1,179.54,23.42Z" style="fill:url(#linear-gradient-8)"/><path d="M142.29,10.61c-.17-.1-1.13-.67-2.74-1.43l1.38.31A9.32,9.32,0,0,0,142.29,10.61Z" style="fill:url(#linear-gradient-9)"/><path d="M102,31.06c-.47.48-.91,1-1.35,1.5A13.43,13.43,0,0,1,102,31.06Z" style="fill:url(#linear-gradient-10)"/><path d="M94.28,60.78c-.3,1.74-.63,3.2-.86,4.17s-.34,1.3-.34,1.3a117.76,117.76,0,0,1-8.37,21q-3.51,7-8.18,14.82a121,121,0,0,1-10.47,14.6c-.47-10.24,6.18-26.89,9.92-35,.46-.94.9-1.87,1.32-2.78l0-.08c.52-1.05,1-2.2,1.53-3.41a1.47,1.47,0,0,0,.06-.14c.26-.59.5-1.17.74-1.74l-.06,0C82.07,67.09,84,60.1,84,60.1s.05-.25.07-.38c1-4.95,1-9,0-12a9.57,9.57,0,0,0-4.62-5.57,17.17,17.17,0,0,0-3.48-1.39c1.08.19,8.43,1.81,12.82,10.38,4.74,9.26,5.56,9.68,5.56,9.68Z" style="fill:url(#linear-gradient-11)"/><path d="M94.28,60.78h0s-.82-.42-5.56-9.68C84.32,42.52,77,40.9,75.89,40.71l-.08,0h0A63,63,0,0,0,65,39.77c-19.7,0-39.15,6.53-51.94,14.67a62.92,62.92,0,0,0-5.9,4.07l0,0c-.48.34-5.49,4.16-1.95,12.82A11.23,11.23,0,0,1,.57,65.48C-.49,61.91-.8,57.05,6.24,51.06c1.89-1.61,4.12-3.37,6.65-5.16C26.48,36.24,49,25.46,77.77,30.55l.33.07a28.22,28.22,0,0,1,4.33,1.49,19.79,19.79,0,0,1,11.36,12.3c.19.56.35,1.14.5,1.74s.21.92.3,1.4C95.43,51.87,94.92,57,94.28,60.78Z" style="fill:url(#linear-gradient-12)"/><path d="M77.3,78.84c-.42.91-.86,1.84-1.32,2.78C76.48,80.53,76.93,79.59,77.3,78.84Z" style="fill:url(#linear-gradient-13)"/><path d="M79.67,73.47c-.24.57-.48,1.15-.74,1.74.24-.57.46-1.14.68-1.72Z" style="fill:url(#linear-gradient-14)"/><path d="M106.33,89.33c-1,.8-3.14,3.25-4.57,9.49a1.33,1.33,0,0,0-.05.19v0c0,.21-.09.42-.14.63v0c-1.09,5.28-2.87,8.06-4.14,9.46L96,110.38h0c-.84.7-1.68,1.41-2.51,2.13l-.3.26c-2.85,2.45-5.65,5-8.39,7.47a511.79,511.79,0,0,0-42.47,44.36l-4.34,5.28L39.22,159l.2-.34c.24-.43,6.07-10.71,20.12-25.21,2-2,4-4.2,6.22-6.5,6.16-6.47,13.07-13.72,20.48-20.72,1.23-1.16,2.47-2.32,3.73-3.46l1.29-1.17c3.22-2.89,6.51-5.69,9.87-8.33C102.85,91.89,104.58,90.58,106.33,89.33Z" style="fill:url(#linear-gradient-15)"/><path d="M96,110.38l1.48-1.24A6,6,0,0,1,96,110.38Z" style="fill:url(#linear-gradient-16)"/><path d="M103,30.11c-.31.34-.62.64-.93.93Q102.5,30.56,103,30.11Z" style="fill:url(#linear-gradient-17)"/><polygon points="197 41.96 181.16 41.96 181.16 125.96 240.2 125.96 240.2 111.33 197 111.33 197 41.96"/><polygon points="247.9 125.96 262.54 125.96 262.54 66.38 247.9 73.4 247.9 125.96"/><path d="M246.58,50.13c0,11.39,17.28,11.39,17.28,0S246.58,38.72,246.58,50.13Z"/><path d="M612.67,65c-19.2,0-31.44,13-31.44,31,0,19,12.12,31.56,32.52,31.56A41.66,41.66,0,0,0,624,126.21c5.75-1.48,11.22-4.21,15.13-8.27l-13.41-6.44c-.55.27-1.12.52-1.72.75a28.77,28.77,0,0,1-10,2c-10.32,0-16.68-5.28-17.64-12.6h46.2C644.83,77.24,632.47,65,612.67,65ZM596.59,89.48C598.75,81.8,605.23,78,613.15,78c8.4,0,14.4,3.84,15.36,11.52Z"/><path d="M496.22,75c-.08-.13-.15-.26-.24-.39-3.45-5.66-10.86-9.21-18.59-9.21-17.29-.12-30.84,10.56-30.84,31,0,20.76,13,31.56,30.47,31.44,6.45-.12,15.43-3.33,19-10l.24-.47.32,3.78,14.2,6.83V72.45L496.67,65.7ZM478.7,114.32c-9.71,0-17.52-6.72-17.52-18S469,78.44,478.7,78.44c11.52,0,17.28,9,17.28,17.94S490.22,114.32,478.7,114.32Z"/><path d="M418.8,65.5c-.44-.09-.9-.17-1.36-.24-.78-.13-1.58-.21-2.37-.27h0l-1.36-.08q-.49,0-1,0h-.19a30,30,0,0,0-29.83,30v55.8h14.64V121a.23.23,0,0,1,.34-.2,30,30,0,0,0,43.22-15.56.16.16,0,0,0,0-.09A30,30,0,0,0,418.8,65.5Zm5.65,40a15.58,15.58,0,0,1-6.13,4.74c-.35.13-.69.28-1.06.39a14.33,14.33,0,0,1-4.56.74h-.21c-8.36-.11-15.11-7.43-15.11-16.43,0-8.43,5.9-15.38,13.53-16.33a15.22,15.22,0,0,1,1.79-.11c8.48,0,15.33,7.36,15.33,16.44A17.06,17.06,0,0,1,424.45,105.45Z"/><path d="M577.17,95.36c0-7.56-1.93-13.91-5.48-18.78A25,25,0,0,0,561,68.2a28.59,28.59,0,0,0-3.65-1.28A27.81,27.81,0,0,0,547.1,65.3c-.92,0-1.84,0-2.75.11A30.13,30.13,0,0,0,527.46,72c-6.34,5.19-10.36,13.21-10.36,23.3,0,7.56,1.94,13.91,5.49,18.78a25,25,0,0,0,10.66,8.38,28.73,28.73,0,0,0,3.66,1.28,27.76,27.76,0,0,0,10.26,1.62c.93,0,1.85,0,2.76-.11,6.34.84,12.17,4.58,12.17,11.69,0,8.16-6.59,12.72-15,12.72-7.58,0-14.11-4.12-15.29-10.58-.06-.36-.11-.72-.14-1.1l-14.56-7v5.95h0c0,.12,0,.25,0,.37A24.79,24.79,0,0,0,531.62,160l.19.09a35.44,35.44,0,0,0,15.29,3.25c17.17,0,29.65-10.08,29.65-26.4,0-6.93-2-13.45-9.94-18.28C573.16,113.47,577.17,105.45,577.17,95.36ZM547.1,111.74A15.35,15.35,0,0,1,536.77,108l-.06-.06a17,17,0,0,1-4.9-12.54c0-10.2,7-16.44,15.36-16.44a15.36,15.36,0,0,1,10.34,3.78l0,.06a17,17,0,0,1,4.91,12.54C562.47,105.5,555.51,111.74,547.1,111.74Z"/><path d="M305,113.11a13.86,13.86,0,0,1-3.07.38c-4.55,0-7.67-2.77-7.67-8.41V79.52h14.3a35,35,0,0,1,8.73-12.59H294.39V50.13l-14.64,7v9.78h-11V79.52h11v25.56c0,14.76,8.39,22.08,21.23,21.61a32.48,32.48,0,0,0,10.54-1.93h0s1.5-.5,3.61-1.38a34.79,34.79,0,0,1-6.9-11.35A31.22,31.22,0,0,1,305,113.11Z"/><path d="M344.72,65c-19.2,0-31.44,13-31.44,31,0,19,12.12,31.56,32.52,31.56a41.66,41.66,0,0,0,10.29-1.31c5.75-1.48,11.22-4.21,15.13-8.27l-13.41-6.44c-.55.27-1.12.52-1.72.75a28.77,28.77,0,0,1-10,2c-10.32,0-16.68-5.28-17.64-12.6h46.2C376.88,77.24,364.52,65,344.72,65ZM328.64,89.48C330.8,81.8,337.28,78,345.2,78c8.4,0,14.4,3.84,15.36,11.52Z"/></g></g></svg>