<svg xmlns="http://www.w3.org/2000/svg" xmlns:xlink="http://www.w3.org/1999/xlink" viewBox="0 0 84.39 84.39"><defs><linearGradient id="linear-gradient" x1="5.34" y1="15.51" x2="83.73" y2="60.77" gradientUnits="userSpaceOnUse"><stop offset="0" stop-color="#337aff"/><stop offset="0.99" stop-color="#33f"/></linearGradient><linearGradient id="linear-gradient-2" x1="11.74" y1="43.94" x2="72.65" y2="43.94" gradientUnits="userSpaceOnUse"><stop offset="0" stop-color="#fff"/><stop offset="0.99" stop-color="#e3e3ff"/></linearGradient></defs><title>favicon</title><g id="Layer_2" data-name="Layer 2"><g id="Layer_1-2" data-name="Layer 1"><path d="M50.63,0H33.75A33.85,33.85,0,0,0,0,33.75V50.63A33.85,33.85,0,0,0,33.75,84.39H50.63A33.86,33.86,0,0,0,84.39,50.63h0V8.23A8.24,8.24,0,0,0,76.15,0Z" style="fill:url(#linear-gradient)"/><path d="M43.83,31.25c0-.16-.07-.32-.1-.47s-.11-.4-.17-.59A6.67,6.67,0,0,0,39.7,26a9.74,9.74,0,0,0-1.47-.51l-.11,0a28.86,28.86,0,0,0-22,5.2c-.86.61-1.62,1.21-2.26,1.75-2.39,2-2.28,3.68-1.92,4.9a3.83,3.83,0,0,0,1.57,2,4.11,4.11,0,0,0,1.81.69l.53,0,.68.07c6.52.66,11.61,1,15.56,1h0a22.59,22.59,0,0,0,6.61-1.07l-.23.59s0,0,0,0c-.17.38-.34.77-.52,1.16l0,0-.44.94q-1.19,2.4-2.81,5.12a120.73,120.73,0,0,1-7.77,11.31l-.05.06-2.44,5L27,62.12a68.43,68.43,0,0,0,7.19-7.42,41,41,0,0,0,3.55-5c1.06-1.76,2-3.44,2.78-5a40.53,40.53,0,0,0,2.84-7.12l.48-.41a13.82,13.82,0,0,0,1.25-1.29c3.85-4.58,3.27-10.47,3.17-11.28a3.93,3.93,0,0,1,0-.5,8.1,8.1,0,0,1,.35-1.93,5,5,0,0,1,.81-1.6,4.32,4.32,0,0,1,.62-.67c1.63-1.26,3.15-1.59,4.65-1a5.41,5.41,0,0,1,1.87,1.28l0,0,.08.1a1.73,1.73,0,0,0,.17.21,1.29,1.29,0,0,0,.16.17c.09.09.18.19.3.29l.19.18.13.1.41.31-.12.1-.27.26A4.57,4.57,0,0,0,56.83,23,7.09,7.09,0,0,0,56,26.45a9.13,9.13,0,0,0,.2,2.13,6.41,6.41,0,0,0,.23.78c0,.08.07.15.1.23a2.67,2.67,0,0,1,.12.33c.07.28.16.61.22,1a9.56,9.56,0,0,1,.17,1.93A11.5,11.5,0,0,1,57,34c-.46,3.46-2.62,6.66-6.45,9.53h0l-.06,0c-.17.13-.34.26-.52.38l0,0-.79.54c-.39.26-.79.53-1.18.81h0l-.15.1v0c-.59.42-1.18.86-1.76,1.32-1.14.9-2.26,1.85-3.35,2.83l-.44.39c-.43.39-.85.78-1.26,1.18-2.52,2.37-4.86,4.83-7,7l-2.11,2.2a47.15,47.15,0,0,0-6.83,8.55l-.06.12-.44,3.7L26.08,71a174.25,174.25,0,0,1,14.4-15c.93-.85,1.88-1.7,2.85-2.53l.1-.09.85-.72h0a2.32,2.32,0,0,0,.5-.43L46.22,51c1.61-1.28,3.25-2.49,4.87-3.57a24.14,24.14,0,0,0,7-6.74,14.93,14.93,0,0,0,2.39-6.38,13.38,13.38,0,0,0,.06-2.53,12.41,12.41,0,0,0-.29-2,8.94,8.94,0,0,0-.29-1c0-.11-.07-.21-.11-.32a3.81,3.81,0,0,1-.19-.57,4.22,4.22,0,0,1-.13-1,7.33,7.33,0,0,1,.05-1.1,3.11,3.11,0,0,1,.77-1.6,3.61,3.61,0,0,1,.35-.33,4.69,4.69,0,0,1,1.69-.84,5.55,5.55,0,0,1,.85-.19,5.68,5.68,0,0,1,.61-.07h0a12.94,12.94,0,0,1,2.22,0,26.87,26.87,0,0,1,3.18.51l.31.07.17,0h0l.37.08a6.53,6.53,0,0,0,1.17.11h.28a2.7,2.7,0,0,0,.57-.08,1.06,1.06,0,0,0,.33-.14.29.29,0,0,0,.11-.19.37.37,0,0,0,0-.23,1.08,1.08,0,0,0-.18-.24,2.27,2.27,0,0,0-.28-.26,2.85,2.85,0,0,0-.33-.25l-.35-.24a3.43,3.43,0,0,0-.56-.31c-.21-.09-.43-.17-.66-.25l-1.31-.4-1.29-.37c-1-.28-2-.54-2.95-.74l-1.48-.25c-.45-.06-.92-.08-1.37-.16l-.28,0a3.62,3.62,0,0,1-1.53-.6h0a2.44,2.44,0,0,1-.46-.38,1.32,1.32,0,0,1-.21-.23L59.28,18A8.92,8.92,0,0,0,56,15.69a7.65,7.65,0,0,0-7.32.86c-.3.19-.59.4-.89.63l0,0a6.59,6.59,0,0,0-.88.87h0a7.79,7.79,0,0,0-.52.69h0a9.25,9.25,0,0,0-1.22,2.63,10.7,10.7,0,0,0-.41,3.51V25a12.66,12.66,0,0,1,0,2.94.88.88,0,0,0,0,.16h0a11.78,11.78,0,0,1-.84,3.11m-3.58,4.13,0,.13a14,14,0,0,1-1.79,1,18.89,18.89,0,0,1-7.14,1.74c-4.26,0-10.23-.1-14.76-.55l-.39,0h0A4.71,4.71,0,0,1,14,37a.94.94,0,0,1-.38-.75A1.53,1.53,0,0,1,14.17,35h0a23.09,23.09,0,0,1,2-1.38,34.44,34.44,0,0,1,17.62-5,22.08,22.08,0,0,1,3.64.31h0a6.56,6.56,0,0,1,1.19.47,3.24,3.24,0,0,1,1.56,1.89A8.18,8.18,0,0,1,40.25,35.38Z" style="fill:url(#linear-gradient-2)"/></g></g></svg>