<?xml version="1.0" standalone="no"?>
<!DOCTYPE svg PUBLIC "-//W3C//DTD SVG 20010904//EN"
 "http://www.w3.org/TR/2001/REC-SVG-20010904/DTD/svg10.dtd">
<svg version="1.0" xmlns="http://www.w3.org/2000/svg"
 width="809.000000pt" height="809.000000pt" viewBox="0 0 809.000000 809.000000"
 preserveAspectRatio="xMidYMid meet">
<metadata>
Created by potrace 1.11, written by Peter Selinger 2001-2013
</metadata>
<g transform="translate(0.000000,809.000000) scale(0.100000,-0.100000)"
fill="#000000" stroke="none">
<path d="M690 4045 l0 -4045 2549 0 2550 0 145 143 c79 78 185 182 235 231 50
49 91 92 91 97 0 5 4 9 8 9 8 0 116 106 810 790 l322 318 0 2081 c0 1583 -3
2081 -12 2081 -9 0 -203 -77 -398 -158 -19 -8 -37 -15 -40 -15 -5 0 -133 -52
-165 -67 -35 -17 -368 -151 -425 -172 -30 -11 -59 -23 -65 -27 -5 -4 -32 -16
-60 -26 -27 -9 -63 -23 -80 -31 -44 -19 -289 -118 -295 -120 -3 0 -16 -5 -30
-11 -14 -6 -42 -18 -62 -26 l-38 -16 0 -1736 0 -1736 -35 3 c-19 1 -37 -1 -41
-4 -3 -4 -16 -3 -28 1 -11 4 -32 5 -46 1 -14 -4 -32 -3 -41 1 -8 4 -21 4 -28
-1 -8 -4 -26 -4 -41 0 -15 4 -33 4 -40 0 -7 -4 -25 -4 -40 0 -15 4 -33 4 -40
0 -7 -4 -24 -4 -39 0 -14 4 -35 4 -46 0 -11 -4 -29 -4 -41 0 -11 5 -27 5 -34
0 -7 -4 -25 -4 -40 0 -15 4 -33 4 -40 0 -7 -4 -25 -4 -40 0 -15 4 -33 4 -40 0
-7 -4 -24 -4 -39 0 -14 4 -35 4 -46 0 -11 -4 -29 -4 -41 0 -11 5 -27 5 -34 0
-7 -4 -25 -4 -40 0 -15 4 -33 4 -40 0 -7 -4 -25 -4 -40 0 -15 4 -33 4 -40 0
-7 -4 -24 -4 -39 0 -14 4 -35 4 -46 0 -11 -4 -29 -4 -41 0 -11 5 -27 5 -34 0
-7 -4 -25 -4 -40 0 -15 4 -33 4 -40 0 -7 -4 -25 -4 -40 0 -15 4 -33 4 -40 0
-7 -4 -24 -4 -39 0 -14 4 -35 4 -46 0 -11 -4 -29 -4 -41 0 -11 5 -27 5 -34 0
-7 -4 -25 -4 -40 0 -15 4 -33 4 -40 0 -7 -4 -25 -4 -40 0 -15 4 -33 4 -40 0
-7 -4 -24 -4 -39 0 -14 4 -35 4 -46 0 -11 -4 -29 -4 -41 0 -11 5 -27 5 -34 0
-7 -4 -25 -4 -40 0 -15 4 -33 4 -40 0 -7 -4 -26 -4 -41 0 -16 5 -31 5 -34 0
-3 -5 -19 -5 -35 0 -37 11 -33 11 -70 0 -18 -5 -32 -5 -36 1 -3 5 -10 6 -16 3
-6 -4 -36 -6 -67 -5 -60 2 -95 2 -178 0 -28 -1 -56 2 -62 5 -5 4 -12 2 -15 -3
-4 -6 -18 -6 -36 -1 -37 11 -33 11 -70 0 -18 -5 -32 -5 -36 1 -3 5 -10 6 -16
3 -6 -4 -36 -6 -67 -5 -60 2 -95 2 -178 0 -28 -1 -56 2 -62 5 -5 4 -12 2 -15
-3 -4 -6 -18 -6 -36 -1 -37 11 -33 11 -70 0 -18 -5 -32 -5 -36 1 -3 5 -10 7
-15 4 -12 -8 -90 -12 -94 -5 -2 3 -31 3 -65 0 -33 -3 -66 -3 -72 1 -6 4 -10
24 -9 46 1 21 2 43 2 48 -2 34 -2 132 -1 140 1 6 1 15 0 20 -1 6 -2 39 -1 75
1 89 1 88 0 155 0 33 0 65 1 70 1 6 1 15 0 20 -1 6 -2 39 -1 75 1 89 1 88 0
155 0 33 0 65 1 70 1 6 1 15 0 20 -1 6 -2 39 -1 75 1 89 1 88 0 155 0 33 0 65
1 70 1 6 1 15 0 20 -5 22 -1 175 5 184 3 6 3 11 -2 11 -4 0 -8 29 -8 65 0 36
4 65 8 65 5 0 5 5 1 11 -3 6 -6 57 -5 112 1 187 1 219 -5 228 -3 5 0 9 6 9 6
0 8 5 4 11 -9 15 -9 103 0 118 4 6 4 11 -1 11 -4 0 -7 46 -6 102 4 159 3 219
-3 229 -3 5 -1 9 5 9 6 0 8 6 6 13 -9 23 -11 107 -2 107 4 0 5 5 1 11 -3 6 -6
57 -5 112 1 187 1 219 -5 228 -3 5 0 9 6 9 6 0 8 5 4 11 -9 15 -9 103 0 118 4
6 4 11 -1 11 -4 0 -7 46 -6 102 4 159 3 219 -3 229 -3 5 -1 9 5 9 6 0 8 6 6
13 -9 23 -11 107 -2 107 4 0 5 5 1 11 -3 6 -6 57 -5 112 1 187 1 219 -5 228
-3 5 0 9 6 9 6 0 8 5 4 11 -9 15 -9 103 0 118 4 6 4 11 -1 11 -4 0 -7 46 -6
102 4 159 3 219 -3 229 -3 5 -1 9 5 9 6 0 8 6 6 13 -9 23 -11 107 -2 107 4 0
5 5 1 11 -3 6 -6 57 -5 112 1 187 1 219 -5 228 -3 5 0 9 6 9 6 0 8 5 4 11 -9
15 -9 103 0 118 4 6 4 11 -1 11 -4 0 -7 46 -6 102 4 159 3 219 -3 229 -3 5 -1
9 5 9 6 0 8 6 6 13 -9 23 -11 107 -2 107 4 0 5 5 1 11 -3 6 -6 57 -5 112 1
187 1 219 -5 228 -3 5 0 9 6 9 6 0 8 5 4 11 -9 15 -9 103 0 118 4 6 4 11 -1
11 -4 0 -7 46 -6 102 4 159 3 219 -3 229 -3 5 -1 9 5 9 6 0 8 6 6 13 -9 23
-11 107 -2 107 4 0 5 5 1 11 -4 6 -7 38 -6 70 l0 59 -854 0 -854 0 0 -4045z"/>
<path d="M6455 8082 c-3 -3 -18 -7 -33 -8 -48 -4 -96 -15 -157 -36 -60 -21
-156 -65 -165 -77 -3 -3 -17 -13 -31 -21 -52 -30 -130 -104 -182 -174 -55 -73
-107 -171 -107 -199 0 -10 -5 -17 -12 -17 -6 0 -9 -3 -6 -6 3 -3 0 -29 -7 -57
-37 -144 -34 -334 8 -492 15 -58 86 -205 99 -205 4 0 8 -6 8 -14 0 -19 126
-146 185 -186 28 -19 52 -37 53 -42 2 -4 9 -8 16 -8 7 0 36 -12 66 -26 30 -14
61 -28 69 -30 9 -2 41 -11 71 -19 128 -36 328 -38 452 -4 24 6 48 12 53 14 10
2 30 10 112 43 24 9 43 20 43 25 0 4 5 7 11 7 34 0 180 126 242 209 40 55 112
197 121 241 3 14 8 36 11 50 24 103 24 315 1 414 -53 222 -173 389 -361 502
-71 43 -186 87 -255 99 -19 3 -44 8 -55 12 -25 7 -243 12 -250 5z"/>
</g>
</svg>
