<?xml version="1.0" standalone="no"?>
<!DOCTYPE svg PUBLIC "-//W3C//DTD SVG 20010904//EN"
 "http://www.w3.org/TR/2001/REC-SVG-20010904/DTD/svg10.dtd">
<svg version="1.0" xmlns="http://www.w3.org/2000/svg"
 width="4168.000000pt" height="4168.000000pt" viewBox="0 0 4168.000000 4168.000000"
 preserveAspectRatio="xMidYMid meet">
<metadata>
Created by potrace 1.11, written by Peter Selinger 2001-2013
</metadata>
<g transform="translate(0.000000,4168.000000) scale(0.100000,-0.100000)"
fill="#000000" stroke="none">
<path d="M27027 36134 c-1 -1 -74 -4 -162 -8 -88 -3 -171 -8 -185 -10 -14 -2
-56 -7 -94 -11 -38 -4 -79 -8 -90 -10 -12 -2 -38 -6 -58 -9 -21 -3 -55 -9 -75
-12 -69 -10 -316 -65 -408 -90 -518 -143 -1001 -368 -1515 -709 -408 -271
-594 -431 -923 -793 -97 -107 -344 -444 -423 -575 -16 -27 -36 -61 -45 -75
-132 -216 -299 -566 -393 -827 -26 -71 -53 -143 -59 -160 -7 -16 -12 -32 -12
-35 -1 -3 -13 -44 -28 -91 -28 -91 -95 -330 -101 -364 -2 -11 -11 -47 -19 -80
-9 -33 -19 -76 -22 -95 -3 -19 -16 -91 -30 -160 -21 -113 -28 -150 -40 -237
-2 -15 -8 -59 -14 -98 -5 -38 -13 -97 -16 -130 -3 -33 -8 -80 -10 -105 -5 -47
-13 -158 -21 -275 -6 -93 -6 -478 0 -535 9 -93 17 -166 21 -195 25 -192 26
-908 0 -1165 -2 -19 -6 -69 -10 -110 -11 -125 -12 -141 -31 -285 -2 -22 -7
-51 -9 -65 -2 -14 -7 -45 -10 -70 -3 -25 -8 -56 -10 -70 -3 -14 -7 -38 -9 -55
-5 -33 -19 -117 -21 -125 -1 -3 -5 -27 -10 -55 -5 -27 -10 -52 -10 -55 -1 -3
-5 -25 -10 -50 -5 -25 -9 -47 -10 -50 -1 -3 -7 -32 -14 -65 -44 -206 -135
-527 -206 -730 -25 -71 -47 -134 -49 -140 -3 -11 -8 -23 -67 -172 -38 -94 -59
-121 -59 -74 0 10 -12 69 -26 132 -14 63 -27 121 -29 129 -7 33 -69 240 -92
310 -290 868 -834 1558 -1606 2039 -54 34 -100 61 -102 61 -2 0 -26 13 -53 29
-274 161 -719 343 -1104 449 -141 40 -169 46 -238 57 -78 13 -96 16 -110 20
-8 2 -35 6 -60 9 -25 3 -56 8 -70 11 -13 2 -42 7 -65 10 -22 3 -51 8 -65 10
-50 8 -106 17 -135 20 -16 2 -84 11 -150 20 -167 23 -172 23 -245 31 -36 3
-72 8 -81 9 -9 2 -52 6 -95 10 -43 4 -87 9 -96 10 -9 2 -52 6 -95 10 -43 3
-94 8 -113 10 -50 6 -231 19 -405 30 -198 12 -264 15 -500 22 -398 11 -997 5
-1260 -12 -38 -2 -113 -7 -165 -10 -52 -4 -115 -8 -140 -10 -25 -1 -88 -6
-141 -9 -53 -4 -105 -8 -115 -10 -10 -2 -59 -7 -109 -10 -49 -4 -101 -9 -115
-11 -14 -2 -52 -6 -85 -10 -57 -5 -86 -9 -172 -20 -21 -2 -63 -7 -93 -10 -30
-3 -66 -7 -80 -10 -14 -2 -45 -7 -70 -10 -25 -3 -56 -8 -70 -10 -14 -2 -45 -7
-70 -10 -77 -10 -172 -25 -320 -50 -52 -9 -108 -18 -125 -21 -45 -7 -67 -11
-235 -43 -85 -17 -166 -32 -180 -35 -14 -2 -90 -19 -170 -36 -80 -18 -154 -34
-165 -36 -11 -1 -57 -12 -102 -23 -45 -11 -92 -22 -105 -25 -13 -2 -104 -25
-203 -51 -99 -25 -188 -48 -198 -50 -36 -8 -315 -87 -412 -117 -55 -17 -104
-31 -110 -32 -46 -9 -649 -210 -840 -281 -139 -51 -514 -195 -550 -211 -16 -7
-59 -25 -95 -39 -36 -14 -79 -32 -95 -40 -17 -8 -41 -18 -55 -23 -22 -9 -237
-102 -315 -137 -500 -225 -1045 -501 -1505 -763 -531 -302 -944 -565 -1544
-982 -160 -111 -458 -332 -728 -539 -107 -82 -518 -418 -607 -496 -18 -16 -57
-50 -85 -75 -96 -85 -361 -355 -437 -445 -88 -105 -220 -279 -239 -315 -7 -14
-16 -27 -20 -30 -14 -10 -124 -205 -175 -313 -100 -208 -176 -477 -192 -686
-12 -150 -7 -348 12 -463 2 -13 6 -39 9 -58 3 -19 12 -69 21 -110 9 -41 18
-82 20 -91 22 -104 78 -262 136 -385 159 -337 453 -659 821 -897 62 -41 129
-82 148 -92 211 -107 331 -158 476 -199 117 -34 262 -63 349 -71 39 -4 80 -8
92 -10 12 -2 57 -7 100 -10 43 -4 87 -9 98 -11 11 -2 56 -6 100 -10 44 -3 87
-7 95 -9 8 -3 52 -7 97 -10 46 -4 91 -8 100 -10 10 -1 54 -6 98 -10 44 -4 89
-8 100 -10 11 -1 56 -6 100 -10 44 -4 91 -8 105 -11 14 -2 59 -6 100 -10 41
-3 86 -7 100 -9 14 -2 57 -7 95 -10 39 -3 86 -8 105 -10 19 -2 64 -7 100 -10
36 -3 85 -8 110 -10 96 -11 128 -14 210 -20 47 -4 93 -9 103 -11 10 -2 59 -6
108 -9 49 -3 97 -8 107 -10 9 -1 55 -6 102 -9 47 -4 101 -9 120 -11 19 -3 69
-7 110 -10 41 -3 86 -8 100 -10 14 -3 66 -7 117 -10 50 -3 100 -7 110 -9 10
-2 59 -7 110 -10 50 -4 102 -9 115 -11 13 -2 64 -6 113 -10 50 -3 108 -8 130
-10 22 -2 74 -7 115 -10 41 -3 95 -8 120 -10 25 -2 79 -7 120 -10 41 -3 101
-8 134 -11 32 -3 81 -7 110 -9 62 -4 193 -14 261 -20 28 -3 84 -7 125 -10 184
-13 334 -24 410 -30 60 -5 145 -11 290 -20 52 -3 118 -8 145 -10 78 -6 297
-20 620 -40 50 -3 117 -7 150 -10 33 -2 116 -7 185 -10 69 -4 150 -8 180 -10
30 -2 116 -6 190 -10 74 -3 160 -7 190 -10 30 -2 123 -7 205 -10 83 -3 184 -8
225 -10 41 -3 138 -7 215 -10 246 -9 427 -15 555 -20 736 -27 1831 -27 2170 0
19 1 82 6 140 9 58 4 123 9 145 12 22 2 72 6 110 9 39 3 86 7 105 10 31 4 97
11 200 20 32 3 88 10 165 20 17 2 53 7 80 10 28 4 61 8 75 10 14 2 61 9 105
15 44 6 91 12 105 15 14 2 41 7 60 9 32 5 199 32 245 40 11 2 49 9 85 16 95
16 96 17 205 39 213 44 258 54 514 117 225 56 434 115 719 203 42 13 62 16 59
8 -3 -7 -32 -79 -65 -162 -33 -82 -72 -176 -86 -207 -14 -31 -26 -59 -26 -62
0 -2 -13 -33 -29 -68 -16 -35 -59 -130 -96 -213 -64 -142 -90 -198 -233 -495
-33 -69 -79 -168 -103 -220 -51 -109 -280 -567 -376 -750 -114 -217 -217 -412
-263 -495 -15 -27 -48 -89 -73 -136 -26 -48 -109 -200 -187 -339 -77 -138
-140 -256 -140 -261 0 -5 -4 -9 -9 -9 -5 0 -11 -8 -14 -17 -3 -10 -19 -40 -35
-68 -16 -27 -73 -126 -127 -220 -53 -93 -105 -183 -115 -200 -9 -16 -34 -59
-55 -95 -21 -36 -50 -85 -65 -110 -15 -25 -60 -101 -100 -170 -40 -69 -83
-141 -95 -160 -12 -19 -93 -152 -180 -295 -273 -448 -317 -520 -328 -534 -6
-7 -16 -22 -22 -32 -5 -11 -57 -94 -115 -186 -214 -339 -243 -383 -565 -878
-43 -66 -188 -284 -322 -485 -230 -344 -331 -493 -501 -740 -40 -58 -102 -148
-138 -200 -35 -52 -98 -142 -139 -200 -40 -58 -99 -141 -129 -185 -31 -44 -90
-127 -131 -185 -41 -58 -93 -132 -117 -165 -23 -33 -147 -206 -276 -385 -130
-179 -252 -347 -271 -375 -20 -27 -41 -57 -48 -65 -7 -8 -54 -71 -104 -140
-192 -259 -532 -712 -669 -890 -78 -102 -152 -198 -163 -213 -12 -16 -27 -34
-32 -40 -68 -79 -128 -169 -177 -270 -33 -67 -111 -225 -173 -352 -62 -126
-172 -351 -244 -498 -202 -413 -262 -536 -262 -544 -1 -5 -10 -20 -20 -35 -10
-14 -19 -28 -19 -31 0 -6 -152 -319 -512 -1055 -47 -94 -82 -172 -79 -172 3 0
35 25 71 56 36 31 89 77 119 103 30 25 59 51 65 56 13 12 291 253 326 283 14
11 34 29 46 39 85 74 159 138 228 199 45 38 182 158 306 264 124 107 230 199
236 205 6 5 35 30 64 55 29 25 58 50 64 56 6 5 38 34 71 63 94 83 170 153 390
356 126 116 114 105 320 300 485 459 1032 1006 1521 1521 175 184 175 184 314
335 52 56 111 120 130 140 46 50 74 80 144 159 33 36 80 88 105 115 25 28 93
104 151 170 58 66 110 125 116 130 6 6 109 125 229 265 120 140 230 269 244
285 14 17 44 53 66 80 22 28 43 52 46 55 3 3 59 70 124 150 65 80 132 163 150
185 92 112 287 360 413 525 78 102 147 192 154 200 7 8 56 74 108 145 106 145
101 139 133 180 21 27 181 252 312 440 67 96 336 500 410 615 89 139 338 547
368 602 7 13 24 41 37 63 14 23 30 50 37 60 27 44 289 497 321 555 14 25 36
62 49 82 12 21 23 40 23 43 0 3 11 22 23 43 27 42 241 426 342 612 37 69 80
148 95 175 15 28 47 86 70 130 23 44 62 116 85 160 291 546 635 1245 887 1805
61 135 119 263 129 286 283 629 672 1665 849 2264 56 190 91 312 95 328 9 43
26 71 69 105 25 21 51 43 58 50 7 7 45 39 83 72 121 103 175 154 370 350 171
171 252 257 356 380 50 58 83 96 94 109 129 142 506 673 620 873 6 10 42 74
81 143 104 181 120 212 189 350 190 379 333 728 459 1116 62 194 70 217 71
224 1 3 9 32 19 65 10 33 20 67 22 75 2 8 17 67 34 130 17 63 33 127 35 142 3
15 9 38 15 52 5 15 8 26 5 26 -2 0 1 15 6 33 12 39 9 21 63 297 24 124 47 245
50 270 3 25 8 54 10 66 2 12 7 45 11 75 3 30 8 61 10 69 2 8 7 40 10 70 3 30
8 66 10 80 6 33 20 155 29 260 3 25 7 74 11 110 42 449 47 1140 11 1515 -2 22
-7 76 -11 119 -4 43 -9 88 -11 100 -5 25 -4 281 1 346 2 25 6 82 10 128 3 46
8 91 9 100 2 9 7 49 11 87 4 39 9 79 11 90 2 10 6 35 9 55 3 20 7 47 10 60 3
14 8 41 11 60 4 19 8 42 9 50 2 8 10 45 19 81 8 37 17 78 20 90 11 54 87 310
116 388 66 181 194 451 251 533 11 14 19 31 19 36 0 6 3 12 8 14 4 2 20 23 36
48 130 202 338 429 516 563 330 248 655 428 975 540 65 23 204 64 243 72 9 2
49 10 87 19 208 46 547 55 752 20 299 -51 557 -145 868 -318 62 -34 324 -213
345 -236 3 -3 43 -37 90 -77 127 -107 209 -188 286 -283 38 -47 82 -101 99
-120 28 -33 287 -291 330 -328 53 -46 184 -150 215 -172 19 -13 37 -27 40 -30
3 -4 24 -21 48 -38 l43 -31 -38 -33 c-149 -130 -296 -289 -402 -433 -28 -38
-56 -76 -62 -83 -21 -25 -146 -238 -191 -327 -156 -304 -297 -752 -343 -1085
-4 -25 -8 -58 -11 -75 -8 -55 -14 -99 -20 -160 -3 -33 -7 -71 -9 -84 -24 -145
-24 -764 0 -1031 11 -127 23 -226 40 -340 20 -128 23 -144 41 -225 9 -38 18
-81 20 -95 14 -73 115 -389 149 -465 55 -121 104 -259 120 -334 2 -9 19 -81
39 -161 46 -191 97 -463 111 -590 3 -25 7 -61 10 -80 9 -62 13 -103 20 -205 4
-55 9 -120 11 -145 5 -54 5 -468 0 -560 -7 -125 -17 -265 -21 -290 -2 -14 -7
-52 -10 -85 -4 -33 -8 -71 -10 -85 -2 -14 -7 -45 -10 -70 -84 -611 -284 -1250
-580 -1855 -81 -164 -122 -243 -244 -459 -13 -22 -38 -64 -57 -93 -19 -29 -34
-58 -34 -63 0 -6 -4 -10 -8 -10 -5 0 -14 -12 -21 -26 -10 -23 -146 -230 -214
-327 -142 -203 -420 -559 -572 -733 -223 -254 -616 -657 -839 -859 -54 -50
-104 -95 -110 -101 -13 -12 -184 -161 -217 -189 -172 -145 -291 -243 -369
-305 -52 -41 -102 -81 -110 -87 -8 -7 -71 -55 -140 -107 -69 -52 -145 -110
-170 -129 -145 -111 -460 -330 -780 -545 -289 -193 -459 -311 -705 -488 -144
-105 -397 -291 -435 -321 -8 -6 -81 -62 -162 -122 -82 -61 -156 -118 -165
-125 -10 -8 -94 -75 -188 -148 -202 -157 -150 -117 -425 -339 -193 -156 -444
-363 -460 -379 -3 -3 -32 -27 -65 -55 -33 -27 -71 -60 -85 -71 -14 -12 -63
-54 -110 -94 -47 -40 -109 -94 -139 -119 -30 -25 -75 -65 -100 -87 -25 -23
-84 -75 -131 -115 -47 -41 -87 -76 -90 -79 -3 -3 -61 -55 -130 -115 -69 -61
-130 -114 -136 -120 -6 -5 -50 -46 -99 -90 -48 -44 -103 -93 -121 -110 -38
-36 -190 -174 -214 -195 -15 -13 -157 -145 -265 -245 -18 -16 -88 -82 -156
-147 -68 -64 -146 -137 -174 -163 -89 -84 -404 -386 -574 -550 -385 -372
-1588 -1583 -2023 -2037 -40 -42 -161 -167 -268 -279 -253 -263 -256 -266
-450 -470 -91 -95 -183 -191 -205 -214 -78 -81 -363 -380 -395 -415 -18 -19
-103 -109 -189 -199 -86 -90 -178 -187 -204 -215 -41 -44 -204 -213 -442 -461
-33 -34 -154 -160 -270 -280 -228 -236 -262 -272 -375 -391 -99 -105 -311
-332 -341 -365 -63 -70 -197 -216 -219 -240 -26 -28 -142 -157 -173 -193 -10
-12 -44 -50 -76 -86 -139 -155 -525 -604 -611 -710 -24 -30 -47 -57 -50 -60
-8 -7 -60 -70 -100 -120 -19 -24 -40 -48 -45 -54 -6 -6 -46 -56 -90 -111 -44
-55 -83 -102 -86 -105 -12 -10 -447 -568 -549 -705 -58 -77 -109 -144 -113
-150 -30 -39 -158 -214 -187 -256 -19 -28 -40 -56 -45 -62 -6 -7 -42 -57 -81
-112 -299 -424 -597 -880 -743 -1137 -33 -60 -35 -65 -46 -162 -4 -32 -8 -68
-10 -80 -2 -11 -6 -46 -9 -76 -8 -66 -14 -119 -26 -220 -5 -41 -12 -100 -15
-130 -3 -30 -8 -66 -10 -80 -2 -14 -6 -50 -10 -80 -11 -95 -15 -129 -20 -172
-8 -61 -13 -105 -20 -168 -4 -30 -8 -66 -10 -80 -2 -14 -6 -50 -10 -80 -3 -30
-8 -71 -10 -90 -3 -19 -7 -60 -10 -90 -3 -30 -8 -66 -10 -80 -4 -30 -13 -106
-21 -175 -6 -64 -12 -111 -18 -155 -3 -19 -8 -56 -11 -82 -3 -27 -8 -68 -11
-93 -3 -25 -4 -45 -1 -45 3 0 30 31 60 69 31 37 61 74 69 82 7 8 42 50 78 94
35 44 125 154 200 245 75 91 210 255 300 365 91 110 174 211 186 225 12 14
102 120 200 235 98 116 183 215 189 221 5 6 29 33 51 60 23 27 50 59 60 70 11
12 42 48 69 80 83 96 275 317 304 349 15 17 94 107 176 200 82 94 152 172 155
175 3 3 55 61 115 130 61 69 115 130 120 136 6 6 44 48 85 94 41 46 84 94 95
106 127 141 163 181 180 200 11 12 31 35 45 50 51 58 244 270 271 299 16 17
39 42 51 56 13 14 66 72 118 129 52 56 103 112 113 124 10 12 64 70 120 130
56 60 110 118 120 130 10 11 44 48 74 81 31 33 86 92 122 131 36 38 120 128
186 199 170 182 164 176 225 241 147 156 239 254 396 419 95 99 191 200 214
225 42 45 107 113 544 565 319 331 1735 1747 2051 2051 402 387 477 460 525
504 25 23 108 102 185 175 196 185 273 258 475 445 68 63 140 131 161 150 20
19 76 71 124 115 48 44 99 91 114 105 14 14 76 70 136 125 61 55 133 121 160
146 86 79 200 182 255 229 14 12 48 43 75 68 28 26 106 97 175 157 69 61 127
113 130 116 17 19 784 685 990 859 80 67 156 132 170 144 14 12 57 42 96 68
39 26 122 96 185 155 63 59 149 135 190 168 40 33 76 63 79 66 3 3 28 23 55
45 28 21 61 49 75 61 22 20 556 447 641 514 19 15 59 46 89 70 44 35 361 281
495 384 71 55 180 137 315 237 80 59 150 112 157 117 13 12 405 298 473 346
533 377 530 375 935 647 333 223 455 307 615 422 143 102 383 278 390 286 3 3
52 41 109 84 57 43 111 85 120 92 9 7 90 72 181 145 172 138 462 383 540 455
25 24 56 52 70 64 14 11 70 62 125 113 871 805 1564 1642 2085 2517 159 267
196 335 344 635 235 474 407 913 545 1390 38 134 104 386 116 450 3 17 7 35 9
40 1 6 6 28 11 50 9 48 13 67 20 98 7 29 51 279 60 337 4 25 9 52 10 61 2 9 6
40 10 70 3 30 8 65 10 79 2 14 7 50 10 80 3 30 8 66 10 80 2 14 7 63 10 110 4
47 8 101 10 120 18 182 24 737 11 965 -10 166 -15 244 -20 285 -3 19 -8 69
-12 110 -3 41 -8 83 -9 92 -2 9 -6 43 -10 75 -7 64 -13 115 -20 153 -3 14 -7
41 -10 60 -12 73 -27 157 -40 225 -8 39 -16 84 -19 100 -8 46 -52 234 -90 391
-34 137 -101 345 -200 619 -69 192 -109 340 -122 460 -2 28 -7 57 -9 65 -6 24
-18 285 -18 415 0 119 12 395 18 405 1 3 5 28 9 55 8 64 14 99 27 155 5 25 10
48 10 52 0 4 17 58 39 120 102 297 274 552 510 758 35 30 72 61 84 69 12 8 23
18 26 21 27 32 271 181 384 234 108 51 255 113 286 121 8 2 54 17 102 34 101
35 326 95 413 111 33 5 71 12 85 15 13 3 42 7 65 10 38 6 55 8 123 19 15 3 54
8 87 11 33 3 78 8 100 10 225 25 908 24 1100 0 17 -2 66 -7 110 -10 101 -7
180 -15 225 -20 19 -2 60 -7 90 -10 67 -7 134 -15 275 -34 39 -6 93 -13 120
-16 28 -3 73 -10 100 -15 28 -5 72 -12 99 -15 27 -3 83 -12 125 -20 42 -8 94
-16 116 -20 22 -3 87 -15 145 -26 58 -11 120 -22 139 -25 18 -3 41 -7 50 -9
33 -8 327 -66 361 -71 19 -3 38 -8 43 -11 4 -2 20 -7 35 -9 15 -3 64 -14 110
-24 46 -11 98 -22 115 -25 18 -3 68 -14 112 -25 77 -18 112 -25 165 -35 14 -3
36 -7 50 -9 63 -13 261 -37 340 -42 85 -5 390 -5 459 1 356 29 538 123 518
268 -19 140 -201 329 -537 559 -226 154 -342 219 -526 294 -143 58 -520 186
-734 249 -69 20 -161 47 -205 60 -400 122 -1604 456 -1765 490 -8 2 -89 21
-180 43 -144 34 -269 63 -335 77 -71 15 -377 74 -410 79 -22 4 -119 20 -215
36 -96 16 -193 32 -215 35 -22 4 -51 8 -65 11 -14 2 -47 7 -75 10 -27 3 -52 7
-55 9 -3 2 -37 6 -75 10 -39 4 -79 9 -89 11 -11 2 -52 6 -92 9 -39 3 -80 7
-90 9 -11 2 -57 7 -103 11 -47 4 -92 8 -100 10 -9 1 -43 6 -76 9 -33 4 -73 10
-90 13 -16 3 -41 6 -55 8 -27 3 -94 13 -125 19 -11 2 -40 7 -65 11 -193 32
-404 101 -583 191 -264 133 -462 291 -633 504 -50 64 -150 174 -221 246 -585
590 -1315 1033 -2058 1249 -90 27 -304 79 -360 89 -16 3 -57 10 -90 16 -78 14
-165 27 -240 35 -33 4 -73 9 -90 11 -46 6 -403 22 -408 18z m-10432 -7598 c94
-4 199 -9 235 -11 36 -2 106 -7 155 -10 50 -2 114 -7 143 -10 28 -3 76 -7 105
-10 28 -3 75 -7 102 -10 28 -3 75 -7 105 -10 30 -3 71 -7 90 -10 19 -2 60 -7
90 -10 46 -5 137 -18 360 -50 29 -4 95 -15 120 -20 10 -2 40 -7 67 -11 102
-15 455 -145 628 -231 367 -183 673 -481 844 -820 208 -416 292 -938 256
-1613 -4 -80 -8 -147 -10 -150 -1 -3 -6 -41 -9 -85 -4 -44 -9 -91 -11 -105 -2
-14 -6 -50 -10 -80 -9 -78 -20 -154 -30 -210 -1 -8 -8 -49 -15 -90 -6 -41 -18
-106 -25 -145 -12 -62 -23 -116 -29 -151 -4 -24 -30 -44 -149 -115 -186 -110
-196 -116 -352 -201 -132 -72 -614 -308 -630 -308 -2 0 -36 -15 -77 -33 -40
-19 -131 -58 -203 -87 -71 -29 -143 -59 -160 -66 -16 -7 -48 -19 -70 -27 -22
-8 -110 -40 -195 -71 -319 -118 -804 -268 -1080 -335 -47 -11 -141 -34 -210
-50 -106 -25 -220 -51 -305 -67 -11 -2 -31 -6 -45 -9 -14 -3 -36 -7 -50 -10
-14 -3 -36 -7 -50 -10 -14 -3 -34 -7 -45 -9 -46 -8 -111 -19 -125 -21 -41 -6
-107 -16 -120 -20 -8 -2 -39 -7 -69 -10 -30 -4 -61 -8 -70 -10 -33 -6 -98 -15
-151 -20 -30 -4 -62 -8 -70 -10 -8 -2 -51 -7 -94 -10 -43 -4 -86 -8 -95 -10
-9 -2 -54 -6 -101 -9 -47 -4 -110 -9 -140 -11 -147 -14 -306 -16 -930 -15
-1478 2 -2840 27 -4135 76 -71 2 -188 7 -259 9 -71 2 -176 7 -235 9 -58 3
-164 8 -236 11 -71 3 -166 8 -210 10 -44 3 -134 7 -200 10 -112 5 -164 8 -370
20 -44 3 -125 7 -180 10 -55 3 -131 7 -170 10 -127 9 -219 15 -315 20 -52 3
-115 7 -140 10 -25 2 -90 7 -145 10 -55 4 -113 8 -130 10 -16 2 -75 6 -130 10
-55 3 -116 8 -135 10 -19 2 -71 7 -115 10 -102 8 -241 20 -355 30 -25 3 -70 7
-100 10 -30 3 -73 7 -95 9 -22 2 -74 7 -115 11 -41 4 -88 9 -105 10 -16 2 -61
7 -100 10 -38 4 -81 8 -95 10 -14 2 -47 7 -75 10 -61 6 -120 14 -160 21 -16 3
-43 7 -60 10 -16 2 -39 6 -50 8 -11 2 -56 12 -100 21 -44 9 -98 21 -120 27
-52 15 -43 13 -95 27 -141 38 -309 110 -415 176 -113 71 -181 155 -226 281
-25 69 -35 274 -18 359 6 28 12 59 14 70 18 88 89 235 153 315 130 165 523
451 1296 942 115 73 214 135 220 138 6 3 48 28 94 55 46 28 108 64 138 80 30
17 59 36 66 43 7 7 15 12 19 12 4 0 45 22 91 48 47 27 129 73 184 102 54 29
113 61 129 70 137 80 688 352 985 487 30 14 80 36 110 50 98 44 133 60 270
118 286 122 624 257 870 347 91 33 208 76 260 95 103 38 683 230 870 287 197
61 765 221 855 241 11 2 103 25 205 50 192 49 209 53 249 61 12 3 53 12 90 20
36 9 77 18 90 20 12 3 53 12 90 20 98 23 514 109 605 124 28 5 65 12 81 15 75
14 254 45 290 50 22 3 63 10 90 15 28 5 68 12 90 15 23 3 52 7 65 10 13 3 42
7 65 10 48 7 76 11 135 20 80 12 93 14 215 30 118 15 136 18 245 30 30 4 66 8
80 10 14 2 52 6 85 10 33 3 78 8 100 10 22 3 67 7 100 10 33 3 80 7 105 10 25
3 72 7 105 10 33 2 83 7 110 9 28 3 91 8 140 11 50 4 113 8 140 10 161 12 331
20 625 30 113 4 206 8 207 8 4 5 640 -1 788 -7z"/>
</g>
</svg>
