<?xml version="1.0" standalone="no"?>
<!DOCTYPE svg PUBLIC "-//W3C//DTD SVG 20010904//EN"
 "http://www.w3.org/TR/2001/REC-SVG-20010904/DTD/svg10.dtd">
<svg version="1.0" xmlns="http://www.w3.org/2000/svg"
 width="700.000000pt" height="700.000000pt" viewBox="0 0 700.000000 700.000000"
 preserveAspectRatio="xMidYMid meet">
<metadata>
Created by potrace 1.11, written by Peter Selinger 2001-2013
</metadata>
<g transform="translate(0.000000,700.000000) scale(0.100000,-0.100000)"
fill="#000000" stroke="none">
<path d="M2010 3500 l0 -1799 1133 1 1132 0 358 352 357 352 0 927 c0 573 -4
927 -9 927 -6 0 -13 -4 -16 -10 -3 -5 -13 -10 -21 -10 -8 0 -34 -9 -57 -19
-23 -11 -89 -38 -147 -61 -58 -23 -118 -48 -135 -55 -16 -7 -86 -36 -155 -63
-69 -28 -142 -58 -162 -66 l-38 -16 0 -770 0 -770 -22 -1 c-13 0 -345 -1 -738
-1 l-715 -1 -3 1441 -2 1441 -380 0 -380 0 0 -1799z"/>
<path d="M4532 5285 c-175 -38 -282 -173 -282 -356 0 -163 88 -292 236 -345
71 -25 203 -23 272 4 152 59 236 192 228 361 -5 105 -31 166 -101 237 -45 45
-75 65 -120 82 -79 28 -155 33 -233 17z"/>
</g>
</svg>
